<?xml version="1.0" encoding="utf-8"?>
<!-- Generator: Adobe Illustrator 24.1.2, SVG Export Plug-In . SVG Version: 6.00 Build 0)  -->
<svg version="1.1" xmlns="http://www.w3.org/2000/svg" xmlns:xlink="http://www.w3.org/1999/xlink" x="0px" y="0px"
	 viewBox="0 0 633 279.7" style="enable-background:new 0 0 633 279.7;" xml:space="preserve">
<style type="text/css">
	.st0{fill:#00D29A;}
	.st1{fill:url(#SVGID_1_);}
	.st2{fill:url(#SVGID_2_);}
</style>
<g id="Layer_1">
</g>
<g id="Layer_2">
	<g>
		<path class="st0" d="M75.3,183.8c35.2-28.4,80.2-45.5,129.3-45.7H0L75.3,183.8z"/>
		<path class="st0" d="M96.4,119h67.4c0.8,0,1.4-0.6,1.4-1.4v-17.4c0-0.8-0.6-1.4-1.4-1.4h-43.6c-0.8,0-1.4-0.6-1.4-1.4V78
			c0-0.8,0.6-1.4,1.4-1.4h32.1c0.8,0,1.4-0.6,1.4-1.4V58.6c0-0.8-0.6-1.4-1.4-1.4h-32.1c-0.8,0-1.4-0.6-1.4-1.4V38.1
			c0-0.8,0.6-1.4,1.4-1.4h43.6c0.8,0,1.4-0.6,1.4-1.4V18.1c0-0.8-0.6-1.4-1.4-1.4H96.4c-0.8,0-1.4,0.6-1.4,1.4v99.5
			C95,118.4,95.6,119,96.4,119z"/>
		<path class="st0" d="M13.7,112.3c7.8,5.5,18.5,8.4,30.8,8.4c11.4,0,21.6-3,28.7-8.5c7.5-5.8,11.5-14,11.5-23.8
			c0-15-8.9-24.4-27.2-28.7l-21.1-4.8c-7-1.5-10.5-5-10.5-10.4c0-6.8,6.1-11.3,15.5-11.3c10.1,0,15,4.9,17.5,9.6
			c0.2,0.5,0.7,0.7,1.2,0.7h21.2c0.9,0,1.6-0.9,1.4-1.7c-2-7.2-6-13.4-11.8-17.9c-7.5-5.9-17.7-9-29.7-9c-11.2,0-21.4,3.2-28.5,9
			C5.6,29.9,1.8,38,1.8,47.5c0,14.8,8.6,23.8,26.2,27.7l20.7,4.3c6.1,1.4,11.8,3.6,11.8,10.7c0,7.4-6.5,12.1-16.6,12.1
			c-9,0-15.5-3.6-18.5-10.1c-0.2-0.5-0.7-0.8-1.3-0.8H1.4c-0.9,0-1.6,0.9-1.3,1.8C2.4,101.1,7.1,107.7,13.7,112.3z"/>
		<path class="st0" d="M203.4,16.7h-21.6c-0.8,0-1.4,0.6-1.4,1.4v99.5c0,0.8,0.6,1.4,1.4,1.4h21.6c0.8,0,1.4-0.6,1.4-1.4V18.1
			C204.8,17.3,204.2,16.7,203.4,16.7z"/>
		
			<linearGradient id="SVGID_1_" gradientUnits="userSpaceOnUse" x1="75.5523" y1="146.2499" x2="249.9664" y2="59.3669" gradientTransform="matrix(1 0 0 -1 0 282)">
			<stop  offset="0" style="stop-color:#00D29A;stop-opacity:0"/>
			<stop  offset="1" style="stop-color:#00D29A"/>
		</linearGradient>
		<path class="st1" d="M205.5,138.1c-0.3,0-0.6,0-1,0c-26.1-0.5-53.6,5.5-77.9,15.4c-18.4,7.5-36,17.9-51.3,30.3
			c43.4,26.4,86.8,52.7,130.2,79.1C205.5,221.3,205.5,179.7,205.5,138.1z"/>
		
			<linearGradient id="SVGID_2_" gradientUnits="userSpaceOnUse" x1="37.7183" y1="13.7109" x2="36.2098" y2="145.7168" gradientTransform="matrix(1 0 0 -1 0 282)">
			<stop  offset="0" style="stop-color:#00D29A;stop-opacity:0"/>
			<stop  offset="1" style="stop-color:#00D29A"/>
		</linearGradient>
		<path class="st2" d="M0,138.1V340h0.1c0-62.9,29.3-119.1,75.2-156.2L0,138.1L0,138.1z"/>
		<path class="st0" d="M496.9,233.9c4.1,0,6.3,3,6.4,6.7h-13.9C490.4,236.2,493.1,233.9,496.9,233.9 M503.7,250.7
			c-0.8,3.1-3.3,4.5-6.7,4.5c-4.4,0-7.5-3.2-7.8-8.6h23.9v-3.1c0-10.5-5.8-17.8-16.3-17.8c-10,0-17.2,7.9-17.2,18.8
			c0,11.1,7,18.7,17.4,18.7c9,0,14.6-4.9,15.9-12.5H503.7z M456.7,251.6c0,7.9,4.6,11.6,11.9,11.6c2.6,0,5-0.4,6.4-1.1v-8.8
			c-1.1,0.7-2.8,1.2-4.3,1.2c-2.6,0-4.1-1.3-4.1-4.1v-15.7h7.9v-8h-7.9v-11.1h-9.9v11.1h-5.4v8h5.4V251.6z M446,226.6h-10v22.8
			c-0.7,3.1-3.4,5-6.4,5c-3.9,0-5.8-2.6-5.8-6.3v-21.4h-9.9V250c0,7.9,4.6,13.3,12.6,13.3c4.2,0,7.6-1.9,9.6-4.1v3.3h9.9L446,226.6
			L446,226.6z M388.8,251.6c0,7.9,4.6,11.6,11.9,11.6c2.6,0,5-0.4,6.4-1.1v-8.8c-1.1,0.7-2.8,1.2-4.3,1.2c-2.6,0-4.1-1.3-4.1-4.1
			v-15.7h7.9v-8h-7.9v-11.1h-9.9v11.1h-5.4v8h5.4V251.6z M378.9,216.2c0-3.3-2.7-5.7-5.9-5.7c-3.2,0-5.9,2.4-5.9,5.7
			c0,3.4,2.7,5.7,5.9,5.7C376.1,221.9,378.9,219.6,378.9,216.2 M378,226.6H368v35.9h9.9V226.6z M342.5,251.6
			c0,7.9,4.6,11.6,11.9,11.6c2.6,0,5-0.4,6.4-1.1v-8.8c-1.1,0.7-2.8,1.2-4.3,1.2c-2.6,0-4.1-1.3-4.1-4.1v-15.7h7.9v-8h-7.9v-11.1
			h-9.9v11.1h-5.5v8h5.5V251.6z M303,251.8c1,7.3,7.2,11.5,16,11.5c8.3,0,14.7-4.3,14.7-11.6c0-5.5-3.3-8.9-9.5-10.4l-7.4-1.7
			c-2.2-0.6-3.2-1.4-3.2-2.8c0-2.2,2.3-3.4,4.7-3.4c3.3,0,5,1.5,5.6,3.5h9.5c-1.2-6.7-6.2-11.1-15.2-11.1c-8,0-14.3,4.7-14.3,11.6
			c0,6,3.8,8.8,9.3,10.1l7.2,1.6c2.5,0.6,3.6,1.5,3.6,3.1c0,2.3-2,3.5-5,3.5c-3,0-5.2-1.4-6-3.9L303,251.8L303,251.8z M264.8,262.5
			h9.9v-22.7c0.8-3.1,3.4-5,6.5-5c3.9,0,5.9,2.6,5.9,6.3v21.4h9.9V239c0-8-4.6-13.3-12.7-13.3c-4.2,0-7.7,1.8-9.6,4.1v-3.3h-9.9
			V262.5z M255.9,210.5h-10.3v52h10.3V210.5z"/>
		<path class="st0" d="M614.7,181c0,7.9,4.6,11.6,11.9,11.6c2.6,0,5-0.4,6.4-1.1v-8.8c-1.1,0.7-2.8,1.2-4.3,1.2
			c-2.6,0-4.1-1.3-4.1-4.1V164h7.9v-8h-7.9v-11.1h-9.9V156h-5.5v8h5.5V181z M573.7,191.9h9.9v-22.7c0.8-3.1,3.4-5,6.5-5
			c3.9,0,5.9,2.6,5.9,6.3v21.4h9.9v-23.4c0-7.9-4.6-13.3-12.7-13.3c-4.2,0-7.7,1.8-9.6,4.1V156h-9.9V191.9z M552.8,163.3
			c4.1,0,6.3,3,6.4,6.7h-13.9C546.2,165.6,548.9,163.3,552.8,163.3 M559.5,180.1c-0.8,3.1-3.3,4.5-6.7,4.5c-4.4,0-7.5-3.2-7.8-8.6
			h23.9V173c0-10.5-5.8-17.8-16.3-17.8c-10,0-17.2,7.9-17.2,18.8c0,11.1,7,18.7,17.4,18.7c9,0,14.6-4.9,15.9-12.5L559.5,180.1
			L559.5,180.1z M508.4,159.7c-2-2.6-5.4-4.6-9.6-4.6c-4,0-7.3,1.5-9.1,3.8v-3h-9.9v35.9h9.9v-23.1c0.6-3.1,3-4.7,5.6-4.7
			c3.4,0,5,2.6,5,6.4v21.4h10v-23.1c0.6-3.1,3-4.7,5.5-4.7c3.4,0,5.1,2.6,5.1,6.4v21.4h10v-23.4c0-8.1-4.4-13.3-11.8-13.3
			C514.2,155.1,510.7,157.2,508.4,159.7 M440.9,191.9h9.9v-22.7c0.8-3.1,3.4-5,6.5-5c3.9,0,5.9,2.6,5.9,6.3v21.4h9.9v-23.4
			c0-7.9-4.6-13.3-12.7-13.3c-4.2,0-7.7,1.8-9.6,4.1V156h-9.9V191.9z M426.3,173.9c0,5.9-2.7,10.3-7.7,10.3s-7.7-4.3-7.7-10.3
			c0-6,2.7-10.4,7.7-10.4S426.3,167.9,426.3,173.9 M436.2,173.9c0-11.1-7.1-18.8-17.6-18.8s-17.6,7.7-17.6,18.8
			c0,11,7.1,18.7,17.6,18.7S436.2,185,436.2,173.9 M399.4,155.8c-0.6-0.3-2.1-0.6-3.8-0.6c-3.5,0-6.5,1.8-8,4.3V156h-9.9v35.9h9.9
			v-22.3c0.7-3.3,3.4-5.1,6.8-5.1c1.8,0,3.6,0.4,5,1.2L399.4,155.8L399.4,155.8z M371.5,145.6c0-3.3-2.7-5.7-5.9-5.7
			c-3.2,0-5.9,2.4-5.9,5.7c0,3.4,2.7,5.7,5.9,5.7C368.8,151.3,371.5,149,371.5,145.6 M370.6,156h-9.9v35.9h9.9V156z M343.3,191.9
			l13.6-35.9h-10l-8.1,23.9l-8.3-23.9h-10.4l13.5,35.9L343.3,191.9L343.3,191.9z M285,191.9h9.9v-22.7c0.8-3.1,3.4-5,6.5-5
			c3.9,0,5.9,2.6,5.9,6.3v21.4h9.9v-23.4c0-7.9-4.6-13.3-12.7-13.3c-4.2,0-7.7,1.8-9.6,4.1V156H285V191.9z M245.6,139.8v52H279v-9.1
			h-23.3v-13.1h21.2V161h-21.2v-12.1H279v-9L245.6,139.8L245.6,139.8z"/>
		<path class="st0" d="M559.3,86.1c-2-2.6-5.4-4.6-9.6-4.6c-4,0-7.3,1.5-9.1,3.8v-3h-9.9v35.9h9.9V95.1c0.6-3.1,3.1-4.7,5.6-4.7
			c3.4,0,5,2.6,5,6.4v21.4h10V95.1c0.6-3.1,3-4.7,5.5-4.7c3.4,0,5.1,2.6,5.1,6.4v21.4h9.9V94.7c0-8.1-4.4-13.3-11.8-13.3
			C565.1,81.5,561.6,83.5,559.3,86.1 M522.1,66h-9.9v52.2h9.9V66z M495.9,100.3c0,5.9-2.7,10.3-7.7,10.3s-7.7-4.3-7.7-10.3
			c0-6,2.7-10.4,7.7-10.4C493.2,89.9,495.9,94.3,495.9,100.3 M505.8,100.3c0-11.1-7.1-18.8-17.6-18.8s-17.6,7.7-17.6,18.8
			c0,11,7.1,18.7,17.6,18.7S505.8,111.3,505.8,100.3 M432.4,118.2h9.9V95.5c0.8-3.1,3.4-5,6.5-5c3.9,0,5.9,2.6,5.9,6.3v21.4h9.9
			V94.7c0-8-4.6-13.3-12.7-13.3c-4.2,0-7.7,1.9-9.6,4.1V66h-9.9V118.2z M415.7,118.2h11.8l-15.1-20.6L427,82.3h-12.3l-12.3,13.3V66
			h-9.9v52.2h9.9v-11.3l2.9-3.1L415.7,118.2z M353.4,100.3c0,11.1,7.1,18.7,17.2,18.7c9,0,14.7-5.2,15.7-12.9h-9.8
			c-0.6,2.7-2.7,4.4-5.9,4.4c-4.6,0-7.4-4.2-7.4-10.2c0-6.1,2.8-10.3,7.4-10.3c3.2,0,5.4,1.7,5.9,4.4h9.8c-1-7.6-6.7-12.9-15.7-12.9
			C360.4,81.5,353.4,89.1,353.4,100.3 M339.1,100.3c0,5.9-2.7,10.3-7.7,10.3s-7.7-4.3-7.7-10.3c0-6,2.7-10.4,7.7-10.4
			C336.4,89.9,339.1,94.3,339.1,100.3 M349,100.3c0-11.1-7.1-18.8-17.6-18.8c-10.4,0-17.6,7.7-17.6,18.8c0,11,7.1,18.7,17.6,18.7
			C341.8,119,349,111.3,349,100.3 M290.9,107.3c0,8,4.6,11.6,11.9,11.6c2.6,0,5-0.4,6.4-1.1v-8.8c-1.1,0.7-2.8,1.2-4.3,1.2
			c-2.6,0-4.1-1.3-4.1-4.1V90.3h7.9v-8h-7.9V71.2h-9.9v11.1h-5.4v8h5.4V107.3z M243.6,104.1c1.7,9.4,9.5,14.9,20.4,14.9
			c10.4,0,18.3-5.8,18.3-15.3c0-7.5-4.9-12-12.9-13.9l-9-2.1c-3.7-0.9-5.5-2.6-5.5-5.4c0-3.5,3.1-5.8,7.8-5.8c5.1,0,7.9,2.6,9.1,5.9
			h10.2c-1.6-8.4-8.1-14.3-19.3-14.3c-10.3,0-17.7,6.3-17.7,15.2c0,8.1,5.4,11.9,12.5,13.5l8.8,2c4.3,1,6,2.6,6,5.5
			c0,3.9-3.3,6.2-8.3,6.2c-4.8,0-8.4-2-9.8-6.3C254.2,104.1,243.6,104.1,243.6,104.1z"/>
	</g>
</g>
</svg>
