<?xml version="1.0" encoding="utf-8"?>
<!-- Generator: Adobe Illustrator 24.1.2, SVG Export Plug-In . SVG Version: 6.00 Build 0)  -->
<svg version="1.1" id="Layer_1" xmlns="http://www.w3.org/2000/svg" xmlns:xlink="http://www.w3.org/1999/xlink" x="0px" y="0px"
	 viewBox="0 0 633 279.7" style="enable-background:new 0 0 633 279.7;" xml:space="preserve">
<style type="text/css">
	.st0{fill:#215C7D;}
	.st1{fill:#6AB959;}
</style>
<path class="st0" d="M238.6,91.1l-11.1,30.8h-4.6L215,100c-2.6,7.2-5.6,14.7-7.9,21.9h-4.3l-11.1-30.8h5.9l7.5,20.3l7.5-20.3h5.6
	l7.5,20.3l6.9-20.3L238.6,91.1L238.6,91.1z M327.6,99.6H322V97c0-0.3,0-0.3-0.3-0.3h-19c-0.3,0-0.3,0-0.3,0.3v19
	c0,0.3,0,0.3,0.3,0.3h19c0.3,0,0.3,0,0.3-0.3v-5.9h-6.9v-5.6H328V116c0,3.3-2.6,5.9-5.9,5.9h-19c-3.3,0-5.9-2.6-5.9-5.9V97
	c0-3.3,2.6-5.9,5.9-5.9h19c3.3,0,5.9,2.6,5.9,5.9v2.6H327.6z M374.1,96.7h-22.6v6.9h18.3v5.6h-18.3v6.9h22.6v5.6H346V91.1h28.1V96.7
	z M416,91.1h5.6v30.8h-6.2l-18.7-22.6v22.6h-5.6V91.1h6.2l19,22.6V91.1H416z M438.6,91.1h5.6v30.8h-5.6V91.1z M486.7,91.1h5.6v30.8
	H486l-19-22.6v22.6h-5.6V91.1h6.2l19,22.6V91.1H486.7z M539.7,99.6h-5.6V97c0-0.3,0-0.3-0.3-0.3h-19c-0.3,0-0.3,0-0.3,0.3v19
	c0,0.3,0,0.3,0.3,0.3h19c0.3,0,0.3,0,0.3-0.3v-5.9h-6.9v-5.6H540V116c0,3.3-2.6,5.9-5.9,5.9h-19c-3.3,0-5.9-2.6-5.9-5.9V97
	c0-3.3,2.6-5.9,5.9-5.9h19c3.3,0,5.9,2.6,5.9,5.9v2.6H539.7z M585.5,96.7H563v6.9h18.3v5.6H563v6.9h22.6v5.6h-28.1V91.1h28.1
	L585.5,96.7L585.5,96.7z M627.1,91.1h5.6v30.8h-6.2l-18.7-22.6v22.6h-5.6V91.1h6.2l19,22.6V91.1H627.1z M275.9,97
	c-1.3-3.6-2.6-5.9-5.9-5.9h-9.2c-3.3,0-4.6,2.3-5.9,5.9l-9.2,24.9h5.9l3.6-10.5h20l3.9,10.5h5.6C284.8,121.9,275.9,97,275.9,97
	L275.9,97z M257.3,105.8l2.9-8.8c0-0.3,0-0.3,0.3-0.3h9.5c0.3,0,0.3,0,0.3,0.3l2.9,8.8H257.3L257.3,105.8z"/>
<path class="st1" d="M209.2,146.1h2.6v15.1c0,2-1.3,3.3-3.3,3.3h-11.8c-2,0-3.3-1.3-3.3-3.3v-15.1h2.6v15.1c0,0.3,0.3,0.7,0.7,0.7
	h11.8c0.3,0,0.7-0.3,0.7-0.7V146.1z M234,146.1h2.6v18.3h-3.3l-12.1-14.7v14.7h-2.6v-18.3h3.3l12.1,14.7V146.1z M243.5,146.1h2.6
	v18.3h-2.6V146.1z M270,146.1h3.3l-10.5,18.3h-2.6l-10.5-18.3h3.3l8.8,15.1L270,146.1z M292.3,149h-14.1v4.9h11.1v2.6h-11.1v4.9
	h14.1v2.6h-16.7v-18.3h16.7V149z M317.2,154.6c0,1.6-1.3,3.3-3.3,3.3h-2l5.2,6.2v0.3h-3.3l-5.6-6.5h-6.9v6.5h-2.6v-18.3h15.1
	c2,0,3.3,1.6,3.3,3.3C317.2,149.4,317.2,154.6,317.2,154.6L317.2,154.6z M301.5,149v6.2h12.1c0.3,0,0.7-0.3,0.7-0.7v-5.2
	c0-0.3-0.3-0.7-0.7-0.7C313.6,148.7,301.5,149,301.5,149z M465.4,154.6c0,1.6-1.3,3.3-3.3,3.3h-2l5.2,6.2v0.3H462l-5.6-6.5h-6.9v6.5
	h-2.6v-18.3H462c2,0,3.3,1.6,3.3,3.3L465.4,154.6L465.4,154.6z M450,149v6.2h12.1c0.3,0,0.7-0.3,0.7-0.7v-5.2c0-0.3-0.3-0.7-0.7-0.7
	C462.2,148.7,450,149,450,149z M584.6,154.6c0,1.6-1.3,3.3-3.3,3.3h-2l5.2,6.2v0.3h-3.3l-5.6-6.5h-6.9v6.5h-2.6v-18.3h15.1
	c2,0,3.3,1.6,3.3,3.3L584.6,154.6L584.6,154.6z M569.2,149v6.2h12.1c0.3,0,0.7-0.3,0.7-0.7v-5.2c0-0.3-0.3-0.7-0.7-0.7
	C581.3,148.7,569.2,149,569.2,149z M341.7,150.7h-2.6v-1c0-0.3-0.3-0.7-0.7-0.7h-11.8c-0.3,0-0.7,0.3-0.7,0.7v3.9
	c0,0.3,0.3,0.7,0.7,0.7h11.8c2,0,3.3,1.6,3.3,3.3v3.9c0,2-1.3,3.3-3.3,3.3h-11.8c-2,0-3.3-1.3-3.3-3.3v-1h2.6v1
	c0,0.3,0.3,0.7,0.7,0.7h11.8c0.3,0,0.7-0.3,0.7-0.7v-3.9c0-0.3-0.3-0.7-0.7-0.7h-11.8c-2,0-3.3-1.6-3.3-3.3v-3.9
	c0-2,1.3-3.3,3.3-3.3h11.8c2,0,3.3,1.3,3.3,3.3V150.7z M348.6,146.1h2.6v18.3h-2.6V146.1z M373.8,146.1v2.6h-7.9v15.4h-2.6v-15.4
	h-7.9v-2.6H373.8z M395.4,146.1l-8.5,11.5v6.9h-2.6v-6.9l-8.5-11.5h3.3l6.5,8.2l6.5-8.2H395.4L395.4,146.1z M489,149h-14.1v4.9H486
	v2.6h-11.1v4.9H489v2.6h-16.7v-18.3H489V149z M512.6,150.7H510v-1c0-0.3-0.3-0.7-0.7-0.7h-11.5c-0.3,0-0.7,0.3-0.7,0.7v3.9
	c0,0.3,0.3,0.7,0.7,0.7h11.8c2,0,3.3,1.6,3.3,3.3v3.9c0,2-1.3,3.3-3.3,3.3h-11.8c-2,0-3.3-1.3-3.3-3.3v-1h2.6v1
	c0,0.3,0.3,0.7,0.7,0.7h11.8c0.3,0,0.7-0.3,0.7-0.7v-3.9c0-0.3-0.3-0.7-0.7-0.7h-11.8c-2,0-3.3-1.6-3.3-3.3v-3.9
	c0-2,1.3-3.3,3.3-3.3h11.8c2,0,3.3,1.3,3.3,3.3v1H512.6L512.6,150.7z M536.1,149H522v4.9h11.1v2.6H522v4.9h14.1v2.6h-16.7v-18.3
	h16.7V149z M553.5,146.1c2,0,2.9,1.3,3.6,3.3l5.2,15.1h-2.9l-2.3-6.2h-12.8l-2.3,6.2h-2.6l5.6-15.1c0.7-2,1.3-3.3,3.3-3.3H553.5z
	 M556.4,155.2l-2.3-5.9c0-0.3-0.3-0.7-0.7-0.7h-5.2c-0.3,0-0.3,0.3-0.7,0.7l-2.3,5.9H556.4z M594.1,149c-0.3,0-0.7,0.3-0.7,0.7v11.8
	c0,0.3,0.3,0.7,0.7,0.7h14.7v2.6h-14.7c-2,0-3.3-1.3-3.3-3.3v-11.8c0-2,1.3-3.3,3.3-3.3h14.7v2.6H594.1z M633,146.1v18.3h-2.6v-7.9
	h-13.1v7.9h-2.6v-18.3h2.6v7.9h13.1v-7.9H633z M430.7,161.8l-3.3-2v-5.2h-2.6v3.6c0,0-9.8-6.2-10.1-6.2c-0.3,0-0.3-0.3-0.3-0.3V150
	c0-0.3,0.3-0.7,0.7-0.7h6.9c0.3,0,0.7,0.3,0.7,0.7v1.3h2.6v-1.6c-0.3-1.6-1.6-2.6-3.3-2.6h-7c-2,0-3.3,1.3-3.3,3.3v2
	c0,1,0.7,1.3,1.3,1.6h-0.7c-2,0-3.3,0.7-3.3,2.3v5.6c0,2,1.3,3.3,3.3,3.3h11.8c1.3,0,2.6-1,2.9-2.3l3.3,2.3v-3.3L430.7,161.8
	L430.7,161.8z M424.8,161.1c0,0.3-0.3,0.7-0.7,0.7h-11.8c-0.3,0-0.7-0.3-0.7-0.7v-5.9c0-0.3,0.3-0.3,0.7-0.3h3.3l8.8,5.6v0.7h0.4
	L424.8,161.1z"/>
<path class="st0" d="M173.8,164.7c1.6-1.6-3.9-3.6-3.9-3.6s-6.2-2.9-30.4-4.9v8.5h-37.3v-9.5c-7.5-0.3-22.3,0-32.4,0v9.5H32.1v-8.2
	c-16.4,1-26.8,3.3-26.8,3.3s-1.6,1.3-2,1.3c-2,1.3,0,2,1.3,2.6c0.7,0.3,0.7,0.3,0.3,1c0,0.3-1.3,0.7-1.3,1.3c0.7,1.6,2.6,0,2.6,2.3
	c-0.3,2.3-5.6,1-6.2,3.3c-0.3,1.6,2,0,2,3.6c0,3.3,2.6,6.9,9.5,8.5c1.6,0.3,9.5,0.3,5.6,2.6c-0.3,0.3-2,0.3-2.6,0.3
	c-0.7,0-2.6,0-2.9,0.7c-0.7,1,1,1,0.7,2c-1,0-2.9,0-2,1.6c0.3,0.7,2,1.3,2.6,1.3c4.3-0.3,3.9,0,5.2,0.3c-2.3,0.3-4.6,2.9,4.6,2.6
	c0.3,1.3,2.6,1.3,3.6,1c57.3-12.8,82.1-7.2,82.1-10.8c-0.7-1.6-8.8-1.6-10.1-1.6c-5.2-0.3-16.4,0.3-15.7-1
	c0.3-3.3,58.3-2.3,51.7-0.3c-0.3,0-4.3,0.7-4.9,1c-3.3,1.6,8.8,2,10.1,2.3c1.3,0,4.9,0,4.3,1.6c-0.3,0.3-4.6,0-4.3,0.7
	c0,0.7,2.6,0.3,2.9,0.7c1.6,2.6-21.3,1.3-33.4,1.6c-3.6,0-10.5,0.3-14.1,1c-5.9,0.7-1,2.3,8.5,2.9c4.9,0.3,31.1,2.6,53,5.6
	c6.5,1.3,8.5-2,7.2-2.9c-1-0.7,2.9-2.3-1.3-3.9c-2.6-1-0.3-1.6-0.3-1.6c0.3,0,5.6,1.3,3.6-0.3c-1.3-1,1-0.3,1.3-0.7
	c4.9-0.3,3.6-2.3,3.9-2c-1.3-1.3,2.6-2.6,1.6-5.6c-0.3-1-5.9-0.7-2.3-1.6c0.3,0,5.6,0,0.7-2.6c-1-0.7-2.3-0.7-3.6-1
	c-3.6-0.7-1-2.6,1-2.3c2.3,0.3,4.3-1,3.9-3.3C171.9,169.3,170.9,165.1,173.8,164.7L173.8,164.7z"/>
<path class="st1" d="M37.7,79.6v85.1h31.7v-53h32.7v53h31.7V79.6H37.7z"/>
</svg>
