<?xml version="1.0" encoding="UTF-8"?>
<!-- Generator: Adobe Illustrator 21.1.0, SVG Export Plug-In . SVG Version: 6.00 Build 0)  -->
<svg version="1.1" id="Layer_2" xmlns="http://www.w3.org/2000/svg" xmlns:xlink="http://www.w3.org/1999/xlink" x="0px" y="0px" viewBox="0 0 501.84 203.02" style="enable-background:new 0 0 501.84 203.02;" xml:space="preserve">
<path style="fill:#00D29A;" d="M60.7,133.84c27.93-22.52,63.62-36.09,102.53-36.26H1L60.7,133.84z"/>
<path style="fill:#00D29A;" d="M77.44,82.45h53.45c0.62,0,1.11-0.49,1.11-1.1V67.58c0-0.61-0.5-1.1-1.11-1.1H96.34  c-0.62,0-1.11-0.49-1.11-1.09V49.96c0-0.6,0.5-1.09,1.11-1.09h25.47c0.61,0,1.11-0.49,1.11-1.09V34.54c0-0.6-0.5-1.09-1.11-1.09  H96.34c-0.62,0-1.11-0.49-1.11-1.09V18.29c0-0.61,0.5-1.1,1.11-1.1h34.55c0.62,0,1.11-0.49,1.11-1.09V2.46c0-0.6-0.5-1.09-1.11-1.09  H77.44c-0.62,0-1.11,0.49-1.11,1.09v78.89C76.33,81.96,76.83,82.45,77.44,82.45z"/>
<path style="fill:#00D29A;" d="M11.87,77.17c6.21,4.35,14.65,6.65,24.39,6.65c9,0,17.09-2.4,22.79-6.77  c5.97-4.58,9.13-11.09,9.13-18.83c0-11.93-7.04-19.37-21.53-22.76l-16.73-3.84c-5.52-1.19-8.33-3.95-8.33-8.22  c0-5.43,4.83-8.95,12.31-8.95c7.97,0,11.91,3.85,13.87,7.64c0.19,0.36,0.57,0.59,0.98,0.59h16.84c0.73,0,1.27-0.68,1.08-1.37  c-1.57-5.73-4.77-10.6-9.36-14.21C51.4,2.45,43.26,0,33.75,0c-8.91,0-16.93,2.53-22.58,7.12C5.43,11.78,2.4,18.22,2.4,25.73  c0,11.7,6.81,18.88,20.81,21.93l16.45,3.42c4.86,1.1,9.34,2.89,9.34,8.5c0,5.85-5.16,9.63-13.15,9.63c-7.15,0-12.28-2.83-14.65-8.01  c-0.18-0.39-0.58-0.63-1.01-0.63H2.12c-0.74,0-1.28,0.7-1.07,1.39C2.89,68.27,6.59,73.47,11.87,77.17z"/>
<path style="fill:#00D29A;" d="M162.27,1.37h-17.09c-0.62,0-1.11,0.49-1.11,1.09v78.89c0,0.6,0.5,1.09,1.11,1.09h17.09  c0.61,0,1.11-0.49,1.11-1.09V2.46C163.39,1.86,162.89,1.37,162.27,1.37z"/>
<linearGradient id="SVGID_1_" gradientUnits="userSpaceOnUse" x1="60.8962" y1="95.7329" x2="199.1711" y2="164.6134">
	<stop offset="0" style="stop-color:#00D29A;stop-opacity:0"/>
	<stop offset="1" style="stop-color:#00D29A"/>
</linearGradient>
<path style="fill:url(#SVGID_1_);" d="M163.92,97.57c-0.25,0-0.5,0-0.76,0c-20.66-0.36-42.53,4.37-61.75,12.22  C86.83,115.76,72.9,124,60.7,133.84c34.41,20.9,68.81,41.79,103.22,62.69C163.92,163.54,163.92,130.56,163.92,97.57z"/>
<linearGradient id="SVGID_2_" gradientUnits="userSpaceOnUse" x1="30.9093" y1="200.8066" x2="29.7133" y2="96.1528">
	<stop offset="0" style="stop-color:#00D29A;stop-opacity:0"/>
	<stop offset="1" style="stop-color:#00D29A"/>
</linearGradient>
<path style="fill:url(#SVGID_2_);" d="M1,97.57v160.07h0.05c0-49.89,23.23-94.45,59.64-123.81L1,97.57L1,97.57z"/>
<path style="fill:#00D29A;" d="M394.98,173.51c3.24,0,5.02,2.36,5.08,5.35h-11C389.77,175.36,391.93,173.51,394.98,173.51   M400.32,186.89c-0.64,2.42-2.61,3.57-5.28,3.57c-3.5,0-5.91-2.55-6.17-6.81h18.94v-2.42c0-8.34-4.58-14.14-12.91-14.14  c-7.94,0-13.66,6.3-13.66,14.9c0,8.79,5.53,14.84,13.79,14.84c7.12,0,11.57-3.88,12.59-9.94H400.32z M363.07,187.59  c0,6.3,3.63,9.17,9.41,9.17c2.1,0,4-0.32,5.08-0.89v-7.01c-0.89,0.57-2.23,0.96-3.43,0.96c-2.03,0-3.24-1.02-3.24-3.25v-12.48h6.23  v-6.37h-6.23v-8.79h-7.82v8.79h-4.32v6.37h4.32V187.59z M354.56,167.72h-7.95v18.08c-0.57,2.48-2.67,3.95-5.08,3.95  c-3.12,0-4.58-2.04-4.58-5.03v-17h-7.88v18.59c0,6.3,3.63,10.51,9.98,10.51c3.3,0,6.04-1.47,7.63-3.25v2.61h7.88V167.72z   M309.24,187.59c0,6.3,3.62,9.17,9.41,9.17c2.1,0,4-0.32,5.08-0.89v-7.01c-0.89,0.57-2.23,0.96-3.43,0.96  c-2.03,0-3.24-1.02-3.24-3.25v-12.48h6.23v-6.37h-6.23v-8.79h-7.82v8.79h-4.32v6.37h4.32V187.59z M301.36,159.51  c0-2.61-2.16-4.52-4.64-4.52c-2.54,0-4.7,1.91-4.7,4.52c0,2.67,2.16,4.52,4.7,4.52C299.19,164.03,301.36,162.18,301.36,159.51   M300.66,167.72h-7.88v28.47h7.88V167.72z M272.56,187.59c0,6.3,3.62,9.17,9.41,9.17c2.1,0,4-0.32,5.08-0.89v-7.01  c-0.89,0.57-2.23,0.96-3.43,0.96c-2.03,0-3.24-1.02-3.24-3.25v-12.48h6.23v-6.37h-6.23v-8.79h-7.82v8.79h-4.33v6.37h4.33V187.59z   M241.23,187.72c0.83,5.79,5.72,9.11,12.65,9.11c6.61,0,11.63-3.44,11.63-9.23c0-4.33-2.61-7.07-7.56-8.28l-5.85-1.34  c-1.78-0.45-2.54-1.08-2.54-2.23c0-1.78,1.85-2.67,3.75-2.67c2.6,0,3.94,1.21,4.45,2.8h7.5c-0.95-5.35-4.9-8.79-12.08-8.79  c-6.36,0-11.31,3.69-11.31,9.23c0,4.77,3.05,7,7.37,8.02l5.72,1.27c1.97,0.51,2.86,1.15,2.86,2.42c0,1.85-1.59,2.8-4,2.8  c-2.35,0-4.13-1.08-4.77-3.12H241.23z M210.97,196.18h7.88v-18.02c0.63-2.48,2.73-3.95,5.15-3.95c3.11,0,4.64,2.04,4.64,5.03v16.94  h7.88v-18.59c0-6.31-3.63-10.51-10.04-10.51c-3.3,0-6.1,1.46-7.63,3.25v-2.61h-7.88V196.18z M203.85,154.98h-8.13v41.2h8.13V154.98z  "/>
<path style="fill:#00D29A;" d="M488.35,131.62c0,6.3,3.62,9.17,9.41,9.17c2.1,0,4-0.32,5.08-0.89v-7c-0.89,0.57-2.23,0.95-3.43,0.95  c-2.03,0-3.24-1.02-3.24-3.25v-12.48h6.23v-6.37h-6.23v-8.79h-7.82v8.79h-4.33v6.37h4.33V131.62z M455.81,140.21h7.88v-18.02  c0.63-2.49,2.73-3.95,5.15-3.95c3.12,0,4.64,2.04,4.64,5.03v16.94h7.88v-18.59c0-6.3-3.62-10.51-10.04-10.51  c-3.3,0-6.1,1.46-7.63,3.25v-2.61h-7.88V140.21z M439.22,117.55c3.24,0,5.02,2.35,5.08,5.35h-11  C434.01,119.39,436.17,117.55,439.22,117.55 M444.56,130.92c-0.64,2.42-2.6,3.57-5.28,3.57c-3.5,0-5.91-2.55-6.16-6.82h18.94v-2.42  c0-8.34-4.58-14.14-12.9-14.14c-7.95,0-13.67,6.3-13.67,14.9c0,8.79,5.53,14.83,13.79,14.83c7.12,0,11.57-3.88,12.59-9.93H444.56z   M404.07,114.74c-1.59-2.1-4.26-3.63-7.63-3.63c-3.18,0-5.78,1.21-7.18,2.99v-2.35h-7.88v28.46h7.88v-18.34  c0.51-2.42,2.41-3.69,4.45-3.69c2.73,0,4,2.04,4,5.09v16.94h7.95v-18.34c0.51-2.42,2.35-3.69,4.38-3.69c2.73,0,4.07,2.04,4.07,5.09  v16.94H422v-18.59c0-6.43-3.5-10.51-9.34-10.51C408.65,111.11,405.92,112.71,404.07,114.74 M350.55,140.21h7.88v-18.02  c0.64-2.49,2.73-3.95,5.15-3.95c3.11,0,4.64,2.04,4.64,5.03v16.94h7.88v-18.59c0-6.3-3.63-10.51-10.04-10.51  c-3.3,0-6.1,1.46-7.63,3.25v-2.61h-7.88V140.21z M338.98,126.01c0,4.71-2.16,8.15-6.1,8.15c-3.94,0-6.1-3.44-6.1-8.15  c0-4.78,2.16-8.21,6.1-8.21C336.82,117.8,338.98,121.24,338.98,126.01 M346.8,126.01c0-8.79-5.66-14.9-13.92-14.9  s-13.92,6.11-13.92,14.9c0,8.72,5.66,14.83,13.92,14.83S346.8,134.74,346.8,126.01 M317.63,111.62c-0.44-0.25-1.65-0.51-2.99-0.51  c-2.8,0-5.15,1.4-6.36,3.44v-2.8h-7.88v28.46h7.88v-17.64c0.57-2.61,2.73-4.01,5.4-4.01c1.46,0,2.86,0.32,3.94,0.96V111.62z   M295.51,103.54c0-2.61-2.16-4.52-4.64-4.52c-2.54,0-4.7,1.91-4.7,4.52c0,2.67,2.16,4.52,4.7,4.52  C293.35,108.06,295.51,106.21,295.51,103.54 M294.81,111.75h-7.88v28.47h7.88V111.75z M273.14,140.21l10.81-28.46h-7.95l-6.42,18.91  l-6.55-18.91h-8.26l10.74,28.46H273.14z M226.93,140.21h7.88v-18.02c0.64-2.49,2.73-3.95,5.15-3.95c3.12,0,4.64,2.04,4.64,5.03  v16.94h7.88v-18.59c0-6.3-3.62-10.51-10.04-10.51c-3.3,0-6.1,1.46-7.63,3.25v-2.61h-7.88V140.21z M195.72,98.96v41.26h26.5v-7.19  h-18.49v-10.38h16.78v-6.94h-16.78v-9.61h18.49v-7.13H195.72z"/>
<path style="fill:#00D29A;" d="M444.43,56.34c-1.59-2.1-4.26-3.63-7.63-3.63c-3.18,0-5.78,1.21-7.18,2.99v-2.36h-7.88v28.47h7.88  V63.47c0.51-2.42,2.42-3.69,4.45-3.69c2.73,0,4,2.04,4,5.09v16.94h7.94V63.47c0.51-2.42,2.35-3.69,4.39-3.69  c2.73,0,4.07,2.04,4.07,5.09v16.94h7.88V63.22c0-6.43-3.5-10.51-9.34-10.51C449.01,52.71,446.27,54.3,444.43,56.34 M414.88,40.42  H407v41.39h7.88V40.42z M394.15,67.61c0,4.71-2.16,8.15-6.1,8.15c-3.94,0-6.1-3.44-6.1-8.15c0-4.77,2.16-8.21,6.1-8.21  C391.99,59.39,394.15,62.84,394.15,67.61 M401.97,67.61c0-8.79-5.66-14.9-13.92-14.9s-13.92,6.12-13.92,14.9  c0,8.72,5.66,14.84,13.92,14.84S401.97,76.33,401.97,67.61 M343.82,81.81h7.88V63.79c0.64-2.48,2.73-3.95,5.15-3.95  c3.11,0,4.64,2.04,4.64,5.03v16.94h7.88V63.22c0-6.31-3.62-10.51-10.04-10.51c-3.3,0-6.1,1.47-7.63,3.25V40.42h-7.88V81.81z   M330.59,81.81h9.35l-11.95-16.36l11.51-12.1h-9.79l-9.73,10.57v-23.5h-7.88v41.39h7.88v-8.98l2.29-2.48L330.59,81.81z   M281.14,67.61c0,8.79,5.59,14.84,13.66,14.84c7.12,0,11.63-4.14,12.46-10.25h-7.76c-0.45,2.17-2.16,3.5-4.7,3.5  c-3.62,0-5.85-3.31-5.85-8.09c0-4.84,2.23-8.15,5.85-8.15c2.55,0,4.26,1.34,4.7,3.5h7.76c-0.83-6.05-5.34-10.25-12.46-10.25  C286.74,52.71,281.14,58.76,281.14,67.61 M269.83,67.61c0,4.71-2.16,8.15-6.1,8.15c-3.94,0-6.1-3.44-6.1-8.15  c0-4.77,2.16-8.21,6.1-8.21C267.67,59.39,269.83,62.84,269.83,67.61 M277.65,67.61c0-8.79-5.66-14.9-13.92-14.9  c-8.26,0-13.92,6.12-13.92,14.9c0,8.72,5.66,14.84,13.92,14.84C271.99,82.45,277.65,76.33,277.65,67.61 M231.63,73.21  c0,6.31,3.62,9.17,9.41,9.17c2.1,0,4-0.32,5.08-0.89v-7.01c-0.89,0.57-2.22,0.95-3.43,0.95c-2.03,0-3.24-1.02-3.24-3.25V59.72h6.23  v-6.37h-6.23v-8.78h-7.82v8.78h-4.32v6.37h4.32V73.21z M194.13,70.67c1.33,7.45,7.5,11.78,16.21,11.78  c8.26,0,14.49-4.59,14.49-12.16c0-5.92-3.88-9.55-10.23-11.01l-7.12-1.66c-2.93-0.7-4.38-2.04-4.38-4.27c0-2.8,2.48-4.58,6.16-4.58  c4.07,0,6.29,2.04,7.18,4.65h8.07c-1.27-6.62-6.42-11.34-15.32-11.34c-8.2,0-14.05,4.97-14.05,12.04c0,6.43,4.32,9.42,9.91,10.7  l6.99,1.59c3.37,0.76,4.77,2.04,4.77,4.39c0,3.12-2.6,4.9-6.55,4.9c-3.81,0-6.67-1.59-7.76-5.03H194.13z"/>
</svg>