<?xml version="1.0" encoding="utf-8"?>
<!-- Generator: Adobe Illustrator 24.1.2, SVG Export Plug-In . SVG Version: 6.00 Build 0)  -->
<svg version="1.1" id="Layer_1" xmlns="http://www.w3.org/2000/svg" xmlns:xlink="http://www.w3.org/1999/xlink" x="0px" y="0px"
	 viewBox="0 0 633 279.7" style="enable-background:new 0 0 633 279.7;" xml:space="preserve">
<style type="text/css">
	.st0{fill:#E4854A;}
	.st1{fill:#8B9094;}
</style>
<path id="layer3" class="st0" d="M245,204.2v-5.5h53v11h-53V204.2z M335,204.2v-5.5h53v11h-53V204.2z M20,179.2v-5.5h100v-10h30v11
	h-29v10H20V179.2z M245,179.7v-5h-60v-11h61v10h52v11h-53V179.7z M335,179.2v-5.5h52v-10h61v11h-60v10h-53V179.2z M512,179.7v-5h-29
	v-11h30v10h100v11H512V179.7z M20,154.2v-5.5h41v11H20V154.2z M80,154.2v-5.5h40v-10h30v11h-29v10H80V154.2z M245,154.7v-5h-60v-11
	h61v10h52v11h-53V154.7z M335,154.2v-5.5h52v-10h61v11h-60v10h-53V154.2z M512,154.7v-5h-29v-11h30v10h40v11h-41V154.7z M572,154.2
	v-5.5h41v11h-41V154.2z M20,129.2v-5.5h41v11H20V129.2z M80,129.2v-5.5h40v-11h126v11h52v11h-53v-10H121v10H80V129.2z M335,129.2
	v-5.5h52v-11h126v11h40v11h-41v-10H388v10h-53V129.2z M572,129.2v-5.5h41v11h-41V129.2z M245.2,104l0.3-5.8h142l0.3,5.8l0.3,5.7
	H244.9L245.2,104z"/>
<path class="st1" d="M315,243.7v36h9v-36h-4.5L315,243.7z M400.2,265.8l-3.2-4.4l5.3-7.6c2.9-4.2,5.7-8.2,6.1-8.8
	c0.5-1-0.6-1.3-4.6-1.3h-5.3l-4,6.2l-4,6.3l-0.3-6.3l-0.3-6.2H381v36h9v-13.4l4.7,6.7l4.7,6.7h10.8l-3.5-4.7
	C404.8,272.3,401.9,268.2,400.2,265.8z M246,93.7v-5H120v9H0v11h121v-10h125V93.7z M573,97.7h-60v-9H387v10h125v10h121v-11H573z
	 M388,80.8c0-6.4-2.3-19.1-5.1-27.6c-7.2-22.6-23.9-41-44.5-49.2c-0.9-0.4-1.6-0.7-2.4-0.9c-3.9-1.9-11.5-3-19.1-3.1h-2.1
	c-5.7,0.1-11.4,0.9-15.2,2.1c-1.6,0.4-3.1,1-5.3,1.9c-21,8.7-36.8,26-44.3,48.9c-2.9,8.6-5.2,21.1-5.2,27.8v2.9H298v-8.9h-42v-2.9
	c0-4.9,4.9-20.2,8.6-27.1c15.8-28.7,44-41.1,70.6-31c13.3,5,26.3,17.3,33.5,31.5c3.7,7.1,7.2,18.1,8,24.2l0.6,5.3H335v9h53
	C388,83.7,388,80.8,388,80.8z M553,83.7v-9h-30.2l0.6-3.6c2.9-15.2,15.5-30.5,28.7-34.9c7.5-2.5,18.7-1.7,25.7,1.9
	c12.4,6.3,20.9,18,24.6,33.9l0.6,2.7h-31v9h41v-5.2c-0.1-15.7-9.4-34.6-21.8-44c-8.4-6.5-15.5-9.1-25.5-9.6
	c-20.7-1-36.8,9-46.7,29.2c-3.8,7.7-7,19.8-7,26.7v2.9H553L553,83.7z M61,83.7v-9H30.8l0.6-3.6c2.9-15.2,15.5-30.5,28.7-34.9
	c7.5-2.5,18.7-1.7,25.7,1.9c12.4,6.3,20.9,18,24.6,33.9l0.6,2.7H80v9h41v-5.2c-0.1-15.7-9.4-34.6-21.8-44
	c-8.4-6.5-15.5-9.1-25.5-9.6c-20.7-1-36.8,9-46.7,29.2c-3.8,7.7-7,19.8-7,26.7v2.9C20,83.7,61,83.7,61,83.7z M257.9,246.3
	c-2.8-2.4-3.8-2.6-12.5-2.6H236v36h9V269l4.9-0.7c6.1-0.8,9.7-3.6,11.2-8.6C262.7,254.3,261.5,249.3,257.9,246.3L257.9,246.3z
	 M248.1,261.7H245V250h3.1c3.5,0,6.3,2.6,6.3,5.9S251.5,261.7,248.1,261.7L248.1,261.7z"/>
</svg>
