<?xml version="1.0" encoding="utf-8"?>
<!-- Generator: Adobe Illustrator 21.1.0, SVG Export Plug-In . SVG Version: 6.00 Build 0)  -->
<svg version="1.1" id="Calque_1" xmlns="http://www.w3.org/2000/svg" xmlns:xlink="http://www.w3.org/1999/xlink" x="0px" y="0px"
	 viewBox="0 0 283.8 189.2" style="enable-background:new 0 0 283.8 189.2;" xml:space="preserve">
<style type="text/css">
	.st0{fill:#FFFFFF;}
	.st1{fill:#164194;}
	.st2{fill:#FFED00;}
</style>
<g>
	<g>
		<path class="st0" d="M141.8,96.7"/>
	</g>
	<g>
		<rect x="0" y="0.1" class="st1" width="283.6" height="189.1"/>
		<path class="st1" d="M141.8,94.7"/>
	</g>
	<g>
		<polygon class="st2" points="135.8,41.3 141.8,37 147.7,41.3 145.5,34.3 151.5,29.9 144.1,29.9 141.8,22.8 139.5,29.9 132,29.9 
			138.1,34.3 		"/>
		<polygon class="st2" points="104.8,49.7 110.8,45.3 116.8,49.7 114.5,42.6 120.6,38.2 113.1,38.2 110.8,31.1 108.5,38.2 101,38.2 
			107.1,42.6 		"/>
		<polygon class="st2" points="88.1,53.8 85.8,61 78.4,60.9 84.4,65.3 82.2,72.4 88.1,68 94.1,72.4 91.8,65.3 97.9,60.9 90.4,60.9 
					"/>
		<polygon class="st2" points="79.8,98.9 85.8,103.3 83.5,96.2 89.6,91.9 82.1,91.9 79.8,84.7 77.5,91.9 70,91.9 76.1,96.2 
			73.8,103.3 		"/>
		<polygon class="st2" points="90.4,122.9 88.1,115.7 85.8,122.9 78.4,122.9 84.4,127.3 82.2,134.3 88.1,130 94.1,134.3 91.8,127.3 
			97.9,122.9 		"/>
		<polygon class="st2" points="113.1,145.6 110.8,138.5 108.5,145.6 101.1,145.6 107.1,150 104.9,157 110.8,152.7 116.8,157 
			114.5,150 120.6,145.6 		"/>
		<polygon class="st2" points="144.1,153.8 141.8,146.7 139.5,153.8 132,153.8 138.1,158.2 135.8,165.3 141.8,160.9 147.8,165.3 
			145.5,158.2 151.6,153.8 		"/>
		<polygon class="st2" points="175,145.6 172.7,138.5 170.4,145.6 162.9,145.6 169,150 166.7,157 172.7,152.7 178.7,157 176.4,150 
			182.5,145.6 		"/>
		<polygon class="st2" points="197.7,122.9 195.4,115.7 193.1,122.9 185.6,122.9 191.7,127.3 189.4,134.3 195.4,130 201.4,134.3 
			199.1,127.3 205.2,122.9 		"/>
		<polygon class="st2" points="213.4,91.8 205.9,91.8 203.6,84.6 201.3,91.8 193.8,91.8 199.9,96.2 197.6,103.2 203.6,98.8 
			209.6,103.2 207.3,96.2 		"/>
		<polygon class="st2" points="189.4,72.3 195.4,67.9 201.4,72.3 199.1,65.2 205.2,60.9 197.7,60.9 195.4,53.7 193.1,60.9 
			185.6,60.9 191.7,65.2 		"/>
		<polygon class="st2" points="172.8,31.1 170.5,38.3 163,38.2 169.1,42.6 166.8,49.7 172.8,45.3 178.8,49.7 176.5,42.6 182.6,38.2 
			175.1,38.2 		"/>
	</g>
</g>
</svg>
