<svg xmlns="http://www.w3.org/2000/svg" viewBox="0 0 481.7 65.8">
  <path d="M49.3 32.9C49.3 14.6 64.3 0 83 0c18.7 0 33.7 14.6 33.7 32.9 0 18.3-15.1 32.9-33.7 32.9-18.7 0-33.7-14.6-33.7-32.9zm57.9 0c0-13.6-10.5-24-24.2-24-13.6 0-24.2 10.4-24.2 24s10.5 24 24.2 24 24.2-10.4 24.2-24zm58.5 31.6l-22-27.7v27.7h-9.4v-63h20.6c10.5 0 19 7.7 19 17.9s-8.2 17.8-18.5 18l21.7 27h-11.4zm-22-54.1v18.1H155c5.4 0 9.6-3.8 9.6-9.1 0-5.2-4.1-9-9.6-9h-11.3zM260.6.1v64.4h-9.4V19.6L229 38.1l-22.3-18.6v45h-9.4V.1h.2L229 26.3 260.4.1h.2zm57 46.2H294l-8.4 18.1H276L305.8 0h.2l29.8 64.4H326l-8.4-18.1zm-4.1-8.9l-7.8-16.8-7.7 16.8h15.5zm35.8 18.1h18.6c5.3 0 9.6-3.8 9.6-9 0-5.3-4.2-9.1-9.6-9.1h-2.3c-10.5 0-19-7.7-19-18s8.6-17.9 19-17.9H384v8.9h-18.5c-5.3 0-9.6 3.8-9.6 9 0 5.3 4.2 9.1 9.6 9.1h2.3c10.5 0 19 7.7 19 18s-8.6 17.9-19 17.9h-18.5v-8.9zm-315.1-27v8.9H9.1v27.1H0V28.4zM0 10.4v-9h34.2v9z"/>
  <ellipse cx="424.9" cy="8.6" fill="#fdc300" rx="8.1" ry="8.1" transform="rotate(-76.714 424.976 8.634)"/>
  <ellipse cx="449.3" cy="8.6" fill="#8a1b02" rx="8.1" ry="8.1" transform="rotate(-76.714 449.283 8.634)"/>
  <ellipse cx="473.6" cy="8.6" fill="#006378" rx="8.1" ry="8.1" transform="rotate(-80.781 473.557 8.638)"/>
  <circle cx="424.9" cy="33" r="8.1" fill="#007ab1"/>
  <circle cx="449.3" cy="33" r="8.1" fill="#009640"/>
  <circle cx="424.9" cy="57.3" r="8.1" fill="#cb9f00"/>
</svg>