<svg xmlns="http://www.w3.org/2000/svg" viewBox="0 0 133.8 110.2">
  <path fill="#0b0b0b" d="M118.385 97.497h1.5c2.125 0 4.625-.375 4.625-3.125 0-2.625-2.5-2.875-4.75-2.875h-1.5v6zm-4.5-9.5h4.75c4.75 0 10.5-.125 10.5 6 0 2.625-1.75 4.75-4.625 5.125 1.25.125 1.875 1.25 2.375 2.25l3.5 8.625h-5l-2.625-6.875c-.625-1.625-1.25-2.25-3.125-2.25h-1.375v9.25h-4.5c.125.125.125-22.125.125-22.125zm-17 0h4.5v18.75h8.625v3.5H96.885v-22.25zm-19.125 18.75h2.5c3.75 0 7.375-2.75 7.375-7.625s-3.625-7.625-7.375-7.625h-2.5v15.25zm-4.5-18.75h6.125c6.75 0 12.875 2.25 12.875 11.125 0 8.75-6 11.125-12.875 11.125H73.26v-22.25zm27.75-29.375H80.76l14.625-14.75h20.375l-14.75 14.75zm-30.875 0H49.26l14.75-14.75h20.875l-14.75 14.75zM44.01 84.747V66.122h18.625L44.01 84.747zm-26-26.125l14.75-14.75h20.625l-14.75 14.75H18.01zm71.75-40.5v18.25H71.385l18.375-18.25zm7.5 18.25V-.003L60.885 36.372h-31.25l-29.75 29.75H36.51v36.5l36.5-36.5h30.875l29.875-29.75h-36.5z"/>
</svg>