<svg xmlns="http://www.w3.org/2000/svg" width="132" height="38" viewBox="0 0 132 38">
  <g fill="none" fill-rule="evenodd">
    <polygon fill="#DC3E2A" points=".916 .762 .916 .771 2.075 3.257 12.454 3.257 12.454 .762"/>
    <polygon fill="#DC3E2A" points="3.239 5.752 4.402 8.246 12.454 8.246 12.454 5.752"/>
    <path fill="#1A1919" d="M20.8027 8.2345L23.1157 8.2345C24.5727 8.2345 25.5227 7.4105 25.5227 6.1225 25.5227 4.6545 24.3927 4.3275 24.2867 4.3065 24.3927 4.2855 25.1217 3.8625 25.1217 2.8595 25.1217 1.6245 24.2657.8435 22.7457.8435L20.8027.8435 20.8027 8.2345zM23.1157 7.3895L21.6897 7.3895 21.6897 4.8555 23.1157 4.8555C24.1717 4.8555 24.6357 5.4255 24.6357 6.1225 24.6357 6.8195 24.1717 7.3895 23.1157 7.3895zM21.6897 4.0315L21.6897 1.6885 22.8937 1.6885C23.7277 1.6885 24.2347 2.1415 24.2347 2.8595 24.2347 3.5775 23.7277 4.0315 22.8937 4.0315L21.6897 4.0315zM29.0287 8.3605C30.0847 8.3605 30.5287 7.4845 30.5287 7.4845L30.5287 8.2345 31.3517 8.2345 31.3517 3.3565 30.4647 3.3565 30.4647 6.7345C30.4647 6.7345 30.0737 7.5375 29.2507 7.5375 28.5957 7.5375 28.0787 7.1785 28.0787 6.3445L28.0787 3.3565 27.1917 3.3565 27.1917 6.4925C27.1917 7.6955 28.0577 8.3605 29.0287 8.3605zM35.6607 3.2295C34.6047 3.2295 34.1607 4.0425 34.1607 4.0425L34.1607 3.3565 33.3377 3.3565 33.3377 8.2345 34.2247 8.2345 34.2247 4.8765C34.2247 4.8765 34.6467 4.0535 35.4387 4.0535 36.0937 4.0535 36.6107 4.4125 36.6107 5.2465L36.6107 8.2345 37.4977 8.2345 37.4977 5.0985C37.4977 3.8945 36.6327 3.2295 35.6607 3.2295zM41.5107 3.2295C40.1907 3.2295 39.1457 4.3595 39.1457 5.7955 39.1457 7.2315 40.1907 8.3605 41.5107 8.3605 42.6827 8.3605 43.1577 7.5265 43.1577 7.5265L43.1577 8.2345 43.9707 8.2345 43.9707.2515 43.0847.2515 43.0847 3.9585C43.0847 3.9585 42.5877 3.2295 41.5107 3.2295zM43.0847 6.6925C43.0847 6.6925 42.6197 7.5375 41.6487 7.5375 40.6557 7.5375 40.0327 6.7565 40.0327 5.7955 40.0327 4.8345 40.6767 4.0535 41.6487 4.0535 42.6197 4.0535 43.0847 4.8985 43.0847 4.8985L43.0847 6.6925zM48.2477 3.2295C46.7807 3.2295 45.8087 4.3695 45.8087 5.7955 45.8087 7.2415 46.8757 8.3605 48.3537 8.3605 49.6417 8.3605 50.3817 7.4005 50.3817 7.4005L49.8217 6.8195C49.8217 6.8195 49.3147 7.5375 48.3537 7.5375 47.4347 7.5375 46.7277 6.8515 46.6747 6.1115L50.6137 6.1115C50.6237 5.9955 50.6237 5.9215 50.6237 5.8265 50.6237 4.2535 49.6107 3.2295 48.2477 3.2295zM46.6957 5.3735C46.7597 4.8665 47.1927 4.0535 48.2477 4.0535 49.2297 4.0535 49.7267 4.8235 49.7587 5.3735L46.6957 5.3735zM51.9547 7.3375C51.9547 7.3375 52.6727 8.3605 54.0457 8.3605 54.9857 8.3605 55.9777 7.8755 55.9777 6.9355 55.9777 5.9425 55.1857 5.5945 54.2567 5.3945 53.4547 5.2255 53.0737 5.0245 53.0737 4.6545 53.0737 4.3385 53.3807 4.0315 54.0037 4.0315 54.7427 4.0315 55.2287 4.5705 55.2287 4.5705L55.8087 3.9685C55.8087 3.9685 55.1547 3.2295 54.0037 3.2295 52.9157 3.2295 52.2087 3.9265 52.2087 4.6335 52.2087 5.5525 52.9477 5.9645 53.9927 6.1755 54.7427 6.3235 55.1017 6.5345 55.1017 6.9565 55.1017 7.3475 54.5417 7.5585 54.0457 7.5585 53.0847 7.5585 52.5677 6.7665 52.5677 6.7665L51.9547 7.3375zM62.8637 3.2295C61.7967 3.2295 61.4057 4.1375 61.4057 4.1375 61.4057 4.1375 61.0997 3.2295 59.8857 3.2295 58.8927 3.2295 58.5337 4.0745 58.5337 4.0745L58.5337 3.3565 57.7107 3.3565 57.7107 8.2345 58.5967 8.2345 58.5967 4.8345C58.5967 4.8345 58.9247 4.0535 59.6427 4.0535 60.2757 4.0535 60.6877 4.4435 60.6877 5.2355L60.6877 8.2345 61.5747 8.2345 61.5747 4.8345C61.5747 4.8345 61.8917 4.0535 62.6197 4.0535 63.2537 4.0535 63.6657 4.4435 63.6657 5.2355L63.6657 8.2345 64.5527 8.2345 64.5527 5.0985C64.5527 3.8945 63.8767 3.2295 62.8637 3.2295zM66.6967 8.2345L67.5837 8.2345 67.5837 3.3565 66.6967 3.3565 66.6967 8.2345zM66.5387 1.7935C66.5387 2.1205 66.8127 2.3955 67.1397 2.3955 67.4677 2.3955 67.7417 2.1205 67.7417 1.7935 67.7417 1.4655 67.4677 1.1915 67.1397 1.1915 66.8127 1.1915 66.5387 1.4655 66.5387 1.7935zM72.0507 3.2295C70.9947 3.2295 70.5517 4.0425 70.5517 4.0425L70.5517 3.3565 69.7277 3.3565 69.7277 8.2345 70.6147 8.2345 70.6147 4.8765C70.6147 4.8765 71.0367 4.0535 71.8287 4.0535 72.4837 4.0535 73.0007 4.4125 73.0007 5.2465L73.0007 8.2345 73.8877 8.2345 73.8877 5.0985C73.8877 3.8945 73.0217 3.2295 72.0507 3.2295zM76.0317 8.2345L76.9187 8.2345 76.9187 3.3565 76.0317 3.3565 76.0317 8.2345zM75.8737 1.7935C75.8737 2.1205 76.1477 2.3955 76.4757 2.3955 76.8027 2.3955 77.0767 2.1205 77.0767 1.7935 77.0767 1.4655 76.8027 1.1915 76.4757 1.1915 76.1477 1.1915 75.8737 1.4655 75.8737 1.7935zM78.7457 7.3375C78.7457 7.3375 79.4637 8.3605 80.8367 8.3605 81.7767 8.3605 82.7687 7.8755 82.7687 6.9355 82.7687 5.9425 81.9767 5.5945 81.0477 5.3945 80.2447 5.2255 79.8657 5.0245 79.8657 4.6545 79.8657 4.3385 80.1717 4.0315 80.7947 4.0315 81.5337 4.0315 82.0187 4.5705 82.0187 4.5705L82.5997 3.9685C82.5997 3.9685 81.9457 3.2295 80.7947 3.2295 79.7067 3.2295 78.9997 3.9265 78.9997 4.6335 78.9997 5.5525 79.7387 5.9645 80.7837 6.1755 81.5337 6.3235 81.8927 6.5345 81.8927 6.9565 81.8927 7.3475 81.3327 7.5585 80.8367 7.5585 79.8757 7.5585 79.3587 6.7665 79.3587 6.7665L78.7457 7.3375zM84.0787 4.1585L85.0297 4.1585 85.0297 6.8305C85.0297 7.9075 85.7997 8.3605 86.4967 8.3605 86.7817 8.3605 87.0877 8.2975 87.5107 8.0655L87.1827 7.3375C87.1827 7.3375 86.8977 7.5375 86.6237 7.5375 86.1487 7.5375 85.9157 7.2635 85.9157 6.7875L85.9157 4.1585 87.4367 4.1585 87.4367 3.3565 85.9157 3.3565 85.9157 1.8675 85.0297 1.8675 85.0297 3.3565 84.0787 3.3565 84.0787 4.1585zM91.2067 3.2295C89.7387 3.2295 88.7677 4.3695 88.7677 5.7955 88.7677 7.2415 89.8337 8.3605 91.3117 8.3605 92.6007 8.3605 93.3397 7.4005 93.3397 7.4005L92.7797 6.8195C92.7797 6.8195 92.2727 7.5375 91.3117 7.5375 90.3937 7.5375 89.6857 6.8515 89.6337 6.1115L93.5717 6.1115C93.5827 5.9955 93.5827 5.9215 93.5827 5.8265 93.5827 4.2535 92.5687 3.2295 91.2067 3.2295zM89.6547 5.3735C89.7177 4.8665 90.1507 4.0535 91.2067 4.0535 92.1887 4.0535 92.6847 4.8235 92.7167 5.3735L89.6547 5.3735zM97.4157 3.2295C96.4867 3.2295 96.0537 4.1065 96.0537 4.1065L96.0537 3.3565 95.2297 3.3565 95.2297 8.2345 96.1167 8.2345 96.1167 4.8765C96.1167 4.8765 96.4657 4.0535 97.2367 4.0535 97.6057 4.0535 97.7957 4.1585 97.7957 4.1585L98.1237 3.3565C98.1237 3.3565 97.8177 3.2295 97.4157 3.2295zM99.6127 8.2345L100.4997 8.2345 100.4997 3.3565 99.6127 3.3565 99.6127 8.2345zM99.4537 1.7935C99.4537 2.1205 99.7287 2.3955 100.0557 2.3955 100.3837 2.3955 100.6577 2.1205 100.6577 1.7935 100.6577 1.4655 100.3837 1.1915 100.0557 1.1915 99.7287 1.1915 99.4537 1.4655 99.4537 1.7935zM104.4807 8.3605C105.5367 8.3605 105.9797 7.4845 105.9797 7.4845L105.9797 8.2345 106.8037 8.2345 106.8037 3.3565 105.9167 3.3565 105.9167 6.7345C105.9167 6.7345 105.5257 7.5375 104.7017 7.5375 104.0477 7.5375 103.5307 7.1785 103.5307 6.3445L103.5307 3.3565 102.6437 3.3565 102.6437 6.4925C102.6437 7.6955 103.5097 8.3605 104.4807 8.3605zM113.9417 3.2295C112.8757 3.2295 112.4847 4.1375 112.4847 4.1375 112.4847 4.1375 112.1787 3.2295 110.9647 3.2295 109.9717 3.2295 109.6127 4.0745 109.6127 4.0745L109.6127 3.3565 108.7887 3.3565 108.7887 8.2345 109.6767 8.2345 109.6767 4.8345C109.6767 4.8345 110.0037 4.0535 110.7217 4.0535 111.3547 4.0535 111.7667 4.4435 111.7667 5.2355L111.7667 8.2345 112.6537 8.2345 112.6537 4.8345C112.6537 4.8345 112.9707 4.0535 113.6987 4.0535 114.3327 4.0535 114.7447 4.4435 114.7447 5.2355L114.7447 8.2345 115.6317 8.2345 115.6317 5.0985C115.6317 3.8945 114.9557 3.2295 113.9417 3.2295zM20.8662 21.4342L23.1362 21.4342C24.5622 21.4342 25.3752 20.6112 25.3752 19.4282 25.3752 17.9712 24.2242 17.5702 24.0972 17.5382 24.2242 17.4852 24.9732 17.0632 24.9732 15.9442 24.9732 14.7822 24.1292 14.0432 22.8722 14.0432L20.8662 14.0432 20.8662 21.4342zM21.4152 20.9272L21.4152 17.8862 23.2312 17.8862C24.3712 17.8862 24.8042 18.7002 24.8042 19.4282 24.8042 20.1572 24.3822 20.9272 23.0832 20.9272L21.4152 20.9272zM21.4152 17.3792L21.4152 14.5502 22.8202 14.5502C23.8332 14.5502 24.4032 15.1302 24.4032 15.9442 24.4032 16.7472 23.9702 17.3792 22.9672 17.3792L21.4152 17.3792zM27.2972 21.4342L27.8462 21.4342 27.8462 16.6202 27.2972 16.6202 27.2972 21.4342zM27.1492 15.0572C27.1492 15.2882 27.3392 15.4792 27.5722 15.4792 27.8042 15.4792 27.9942 15.2882 27.9942 15.0572 27.9942 14.8252 27.8042 14.6342 27.5722 14.6342 27.3392 14.6342 27.1492 14.8252 27.1492 15.0572zM30.3172 21.4342L30.8662 21.4342 30.8662 13.4522 30.3382 13.4522 30.3172 21.4342zM37.4872 21.4342L37.4872 13.4522 36.9492 13.4522 36.9492 17.4322C36.8222 17.2432 36.2622 16.4932 35.2062 16.4932 33.8652 16.4932 32.8092 17.5282 32.8092 19.0272 32.8092 20.5262 33.8652 21.5612 35.2062 21.5612 36.4312 21.5612 36.9912 20.5472 36.9912 20.5472L36.9912 21.4342 37.4872 21.4342zM36.9382 19.9032C36.9382 19.9032 36.4102 21.0232 35.2062 21.0232 34.1292 21.0232 33.3802 20.1462 33.3802 19.0272 33.3802 17.9082 34.1292 17.0322 35.2062 17.0322 36.4212 17.0322 36.9382 18.1512 36.9382 18.1512L36.9382 19.9032zM41.6162 21.5612C42.7992 21.5612 43.2632 20.5792 43.2632 20.5792L43.2632 21.4342 43.7602 21.4342 43.7602 16.6202 43.2112 16.6202 43.2112 19.9662C43.2112 19.9662 42.7882 21.0232 41.7222 21.0232 40.9192 21.0232 40.3602 20.6002 40.3602 19.6082L40.3602 16.6202 39.8102 16.6202 39.8102 19.6922C39.8102 21.0012 40.6982 21.5612 41.6162 21.5612zM48.0582 16.4932C46.8752 16.4932 46.4102 17.4962 46.4102 17.4962L46.4102 16.6202 45.9142 16.6202 45.9142 21.4342 46.4632 21.4342 46.4632 18.1082C46.4632 18.1082 46.8862 17.0322 47.9522 17.0322 48.7342 17.0322 49.3142 17.4542 49.3142 18.4462L49.3142 21.4342 49.8642 21.4342 49.8642 18.3622C49.8642 17.0522 48.9552 16.4932 48.0582 16.4932zM55.8192 16.6202L55.8192 17.5062C55.8192 17.5062 55.2912 16.4932 54.0242 16.4932 52.6942 16.4932 51.6382 17.5282 51.6382 19.0272 51.6382 20.5262 52.6942 21.5612 54.0242 21.5612 55.0912 21.5612 55.6082 20.8542 55.7662 20.6322L55.7662 21.5722C55.7662 22.6492 55.1962 23.4522 53.9612 23.4522 52.7362 23.4522 52.1242 22.6172 52.1242 22.6172L51.7542 23.0072C51.7542 23.0072 52.5462 23.9902 53.9612 23.9902 55.3652 23.9902 56.3162 23.0602 56.3162 21.5502L56.3162 16.6202 55.8192 16.6202zM55.7662 19.9032C55.7662 19.9032 55.2702 21.0232 54.0242 21.0232 52.9472 21.0232 52.2082 20.1462 52.2082 19.0272 52.2082 17.9082 52.9472 17.0322 54.0242 17.0322 55.2702 17.0322 55.7662 18.1512 55.7662 18.1512L55.7662 19.9032zM58.0482 22.9872L58.5332 23.1562 59.4312 20.6852 58.9242 20.5052 58.0482 22.9872zM74.0352 14.0432L73.4542 14.0432 71.3212 20.0822 69.3992 14.0432 68.8402 14.0432 66.9492 20.0822 64.7962 14.0432 64.2042 14.0432 66.9292 21.6462 69.1252 14.9512 71.3102 21.6462 74.0352 14.0432zM75.6192 21.4342L76.1682 21.4342 76.1682 16.6202 75.6192 16.6202 75.6192 21.4342zM75.4712 15.0572C75.4712 15.2882 75.6622 15.4792 75.8942 15.4792 76.1262 15.4792 76.3162 15.2882 76.3162 15.0572 76.3162 14.8252 76.1262 14.6342 75.8942 14.6342 75.6622 14.6342 75.4712 14.8252 75.4712 15.0572zM78.1012 20.5372C78.1012 20.5372 78.7352 21.5612 80.1602 21.5612 81.0682 21.5612 81.9872 21.0962 81.9872 20.1782 81.9872 19.3122 81.2692 18.9962 80.3712 18.7942 79.5582 18.6152 78.9252 18.4462 78.9252 17.8552 78.9252 17.3592 79.4102 17.0322 80.0652 17.0322 80.9312 17.0322 81.4272 17.5702 81.4272 17.5702L81.7862 17.1682C81.7862 17.1682 81.1952 16.4932 80.0652 16.4932 79.0092 16.4932 78.3652 17.1682 78.3652 17.8552 78.3652 18.6582 79.0202 19.0592 80.0752 19.2902 80.8252 19.4592 81.4172 19.6282 81.4172 20.1782 81.4172 20.8112 80.6882 21.0232 80.1602 21.0232 79.0202 21.0232 78.5342 20.1672 78.5342 20.1672L78.1012 20.5372zM83.4552 20.5372C83.4552 20.5372 84.0892 21.5612 85.5142 21.5612 86.4222 21.5612 87.3412 21.0962 87.3412 20.1782 87.3412 19.3122 86.6232 18.9962 85.7252 18.7942 84.9122 18.6152 84.2792 18.4462 84.2792 17.8552 84.2792 17.3592 84.7642 17.0322 85.4192 17.0322 86.2852 17.0322 86.7812 17.5702 86.7812 17.5702L87.1402 17.1682C87.1402 17.1682 86.5492 16.4932 85.4192 16.4932 84.3632 16.4932 83.7192 17.1682 83.7192 17.8552 83.7192 18.6582 84.3742 19.0592 85.4292 19.2902 86.1792 19.4592 86.7712 19.6282 86.7712 20.1782 86.7712 20.8112 86.0422 21.0232 85.5142 21.0232 84.3742 21.0232 83.8882 20.1672 83.8882 20.1672L83.4552 20.5372zM91.1742 16.4932C89.7382 16.4932 88.7992 17.6642 88.7992 19.0272 88.7992 20.4002 89.8332 21.5612 91.2692 21.5612 92.0612 21.5612 92.8222 21.1392 93.2862 20.5792L92.9172 20.1992C92.5892 20.6112 92.0092 21.0232 91.2692 21.0232 89.9912 21.0232 89.3902 19.9772 89.3472 19.2482L93.4972 19.2482C93.5082 19.1322 93.5082 19.1212 93.5082 19.0272 93.5082 17.5482 92.4522 16.4932 91.1742 16.4932zM89.3692 18.7422C89.3902 18.2132 89.8332 17.0322 91.1742 17.0322 92.4412 17.0322 92.9172 18.1932 92.9382 18.7422L89.3692 18.7422zM97.4262 16.4932C96.2432 16.4932 95.7792 17.4962 95.7792 17.4962L95.7792 16.6202 95.2832 16.6202 95.2832 21.4342 95.8312 21.4342 95.8312 18.1082C95.8312 18.1082 96.2542 17.0322 97.3202 17.0322 98.1022 17.0322 98.6822 17.4542 98.6822 18.4462L98.6822 21.4342 99.2322 21.4342 99.2322 18.3622C99.2322 17.0522 98.3242 16.4932 97.4262 16.4932zM101.0162 20.5372C101.0162 20.5372 101.6502 21.5612 103.0752 21.5612 103.9842 21.5612 104.9022 21.0962 104.9022 20.1782 104.9022 19.3122 104.1842 18.9962 103.2872 18.7942 102.4742 18.6152 101.8402 18.4462 101.8402 17.8552 101.8402 17.3592 102.3262 17.0322 102.9812 17.0322 103.8462 17.0322 104.3432 17.5702 104.3432 17.5702L104.7022 17.1682C104.7022 17.1682 104.1102 16.4932 102.9812 16.4932 101.9252 16.4932 101.2812 17.1682 101.2812 17.8552 101.2812 18.6582 101.9352 19.0592 102.9912 19.2902 103.7412 19.4592 104.3322 19.6282 104.3322 20.1782 104.3322 20.8112 103.6032 21.0232 103.0752 21.0232 101.9352 21.0232 101.4492 20.1672 101.4492 20.1672L101.0162 20.5372zM108.8422 21.0232C107.6902 21.0232 106.9302 20.0932 106.9302 19.0272 106.9302 17.9602 107.6902 17.0322 108.8422 17.0322 109.8552 17.0322 110.3722 17.7492 110.3722 17.7492L110.7632 17.4012C110.7632 17.4012 110.0982 16.4932 108.8422 16.4932 107.4062 16.4932 106.3602 17.6332 106.3602 19.0272 106.3602 20.4202 107.4062 21.5612 108.8422 21.5612 110.1512 21.5612 110.8162 20.5792 110.8162 20.5792L110.4362 20.2202C110.4362 20.2202 109.9082 21.0232 108.8422 21.0232zM113.1602 17.4122L113.1602 13.4522 112.6122 13.4522 112.6122 21.4342 113.1602 21.4342 113.1602 18.1082C113.1602 18.1082 113.5832 17.0322 114.6492 17.0322 115.4312 17.0322 116.0122 17.4542 116.0122 18.4462L116.0122 21.4342 116.5602 21.4342 116.5602 18.3622C116.5602 17.0522 115.6532 16.4932 114.7552 16.4932 113.6252 16.4932 113.1602 17.4122 113.1602 17.4122zM120.5532 16.4932C119.5392 16.4932 118.7472 16.9992 118.7472 16.9992L118.9902 17.4752C118.9902 17.4752 119.6862 17.0322 120.5632 17.0322 121.0912 17.0322 121.9782 17.2322 121.9782 18.4042L121.9782 18.7632C121.9782 18.7632 121.3552 18.3092 120.3732 18.3092 119.4332 18.3092 118.4622 18.8792 118.4622 19.9352 118.4622 21.0012 119.4022 21.5612 120.2152 21.5612 121.3972 21.5612 122.0312 20.6002 122.0312 20.6002L122.0312 21.4342 122.5272 21.4342 122.5272 18.2772C122.5272 17.2952 121.8932 16.4932 120.5532 16.4932zM120.3412 21.0232C119.7182 21.0232 119.0322 20.6952 119.0322 19.9352 119.0322 19.1742 119.8132 18.8362 120.4472 18.8362 121.4082 18.8362 121.9782 19.2382 121.9782 19.2382L121.9782 20.0512C121.9782 20.0512 121.3972 21.0232 120.3412 21.0232zM124.1642 17.1262L125.1992 17.1262 125.1992 21.4342 125.7482 21.4342 125.7482 17.1262 127.0152 17.1262 127.0152 16.6202 125.7482 16.6202 125.7482 14.8772C125.7482 14.2862 125.9702 13.8642 126.5932 13.8642 126.9202 13.8642 127.2052 14.0332 127.2052 14.0332L127.4372 13.5572C127.0572 13.3572 126.8042 13.3252 126.5192 13.3252 125.8642 13.3252 125.1992 13.8112 125.1992 14.7292L125.1992 16.6202 124.1642 16.6202 124.1642 17.1262zM128.2622 17.1262L129.3072 17.1262 129.3072 20.1352C129.3072 20.9272 129.7402 21.5612 130.6792 21.5612 131.1652 21.5612 131.6302 21.2762 131.6302 21.2762L131.4192 20.8012C131.4192 20.8012 131.0812 21.0232 130.7002 21.0232 130.0462 21.0232 129.8562 20.5692 129.8562 20.0302L129.8562 17.1262 131.4922 17.1262 131.4922 16.6202 129.8562 16.6202 129.8562 15.0672 129.3072 15.0672 129.3072 16.6202 128.2622 16.6202 128.2622 17.1262zM22.5029 34.7614C23.6859 34.7614 24.1499 33.7794 24.1499 33.7794L24.1499 34.6344 24.6469 34.6344 24.6469 29.8204 24.0969 29.8204 24.0969 33.1664C24.0969 33.1664 23.6749 34.2224 22.6079 34.2224 21.8059 34.2224 21.2459 33.8004 21.2459 32.8084L21.2459 29.8204 20.6969 29.8204 20.6969 32.8924C20.6969 34.2014 21.5839 34.7614 22.5029 34.7614zM28.9439 29.6934C27.7619 29.6934 27.2969 30.6964 27.2969 30.6964L27.2969 29.8204 26.8009 29.8204 26.8009 34.6344 27.3499 34.6344 27.3499 31.3084C27.3499 31.3084 27.7729 30.2314 28.8389 30.2314 29.6199 30.2314 30.2009 30.6544 30.2009 31.6464L30.2009 34.6344 30.7499 34.6344 30.7499 31.5624C30.7499 30.2524 29.8419 29.6934 28.9439 29.6934zM37.2019 34.6344L37.2019 26.6524 36.6639 26.6524 36.6639 30.6324C36.5369 30.4434 35.9779 29.6934 34.9209 29.6934 33.5809 29.6934 32.5239 30.7274 32.5239 32.2274 32.5239 33.7264 33.5809 34.7614 34.9209 34.7614 36.1469 34.7614 36.7059 33.7474 36.7059 33.7474L36.7059 34.6344 37.2019 34.6344zM36.6529 33.1034C36.6529 33.1034 36.1249 34.2224 34.9209 34.2224 33.8449 34.2224 33.0949 33.3464 33.0949 32.2274 33.0949 31.1084 33.8449 30.2314 34.9209 30.2314 36.1359 30.2314 36.6529 31.3504 36.6529 31.3504L36.6529 33.1034zM43.7499 27.7714L47.2449 27.7714 47.2449 27.2424 43.2009 27.2424 43.2009 34.6344 43.7499 34.6344 43.7499 31.0974 47.0339 31.0974 47.0339 30.5904 43.7499 30.5904 43.7499 27.7714zM50.9729 29.6934C49.5369 29.6934 48.5229 30.8334 48.5229 32.2274 48.5229 33.6204 49.5369 34.7614 50.9729 34.7614 52.4089 34.7614 53.4219 33.6204 53.4219 32.2274 53.4219 30.8334 52.4089 29.6934 50.9729 29.6934zM50.9729 34.2224C49.7689 34.2224 49.0929 33.3154 49.0929 32.2274 49.0929 31.1394 49.7689 30.2314 50.9729 30.2314 52.1759 30.2314 52.8519 31.1394 52.8519 32.2274 52.8519 33.3154 52.1759 34.2224 50.9729 34.2224zM57.0979 29.6934C56.1049 29.6934 55.6929 30.6014 55.6929 30.6014L55.6929 29.8204 55.1969 29.8204 55.1969 34.6344 55.7459 34.6344 55.7459 31.1604C55.7459 31.1604 56.1369 30.2314 56.9709 30.2314 57.4139 30.2314 57.6149 30.3474 57.6149 30.3474L57.8469 29.8204C57.8469 29.8204 57.5519 29.6934 57.0979 29.6934zM58.8089 33.7374C58.8089 33.7374 59.4419 34.7614 60.8669 34.7614 61.7749 34.7614 62.6939 34.2964 62.6939 33.3774 62.6939 32.5124 61.9759 32.1954 61.0789 31.9944 60.2659 31.8154 59.6319 31.6464 59.6319 31.0554 59.6319 30.5594 60.1179 30.2314 60.7729 30.2314 61.6379 30.2314 62.1339 30.7704 62.1339 30.7704L62.4939 30.3684C62.4939 30.3684 61.9019 29.6934 60.7729 29.6934 59.7159 29.6934 59.0719 30.3684 59.0719 31.0554 59.0719 31.8574 59.7269 32.2584 60.7829 32.4904 61.5329 32.6594 62.1239 32.8284 62.1239 33.3774 62.1239 34.0114 61.3959 34.2224 60.8669 34.2224 59.7269 34.2224 59.2409 33.3674 59.2409 33.3674L58.8089 33.7374zM66.6329 34.2224C65.4819 34.2224 64.7219 33.2934 64.7219 32.2274 64.7219 31.1604 65.4819 30.2314 66.6329 30.2314 67.6469 30.2314 68.1639 30.9494 68.1639 30.9494L68.5549 30.6014C68.5549 30.6014 67.8899 29.6934 66.6329 29.6934 65.1969 29.6934 64.1519 30.8334 64.1519 32.2274 64.1519 33.6204 65.1969 34.7614 66.6329 34.7614 67.9419 34.7614 68.6079 33.7794 68.6079 33.7794L68.2279 33.4204C68.2279 33.4204 67.6999 34.2224 66.6329 34.2224zM70.9519 30.6124L70.9519 26.6524 70.4029 26.6524 70.4029 34.6344 70.9519 34.6344 70.9519 31.3084C70.9519 31.3084 71.3749 30.2314 72.4409 30.2314 73.2229 30.2314 73.8029 30.6544 73.8029 31.6464L73.8029 34.6344 74.3529 34.6344 74.3529 31.5624C74.3529 30.2524 73.4439 29.6934 72.5469 29.6934 71.4169 29.6934 70.9519 30.6124 70.9519 30.6124zM78.3129 34.7614C79.4949 34.7614 79.9599 33.7794 79.9599 33.7794L79.9599 34.6344 80.4559 34.6344 80.4559 29.8204 79.9069 29.8204 79.9069 33.1664C79.9069 33.1664 79.4839 34.2224 78.4179 34.2224 77.6159 34.2224 77.0559 33.8004 77.0559 32.8084L77.0559 29.8204 76.5069 29.8204 76.5069 32.8924C76.5069 34.2014 77.3939 34.7614 78.3129 34.7614zM84.7539 29.6934C83.5709 29.6934 83.1069 30.6964 83.1069 30.6964L83.1069 29.8204 82.6099 29.8204 82.6099 34.6344 83.1599 34.6344 83.1599 31.3084C83.1599 31.3084 83.5819 30.2314 84.6489 30.2314 85.4299 30.2314 86.0109 30.6544 86.0109 31.6464L86.0109 34.6344 86.5599 34.6344 86.5599 31.5624C86.5599 30.2524 85.6509 29.6934 84.7539 29.6934zM92.5159 29.8204L92.5159 30.7064C92.5159 30.7064 91.9879 29.6934 90.7209 29.6934 89.3899 29.6934 88.3339 30.7274 88.3339 32.2274 88.3339 33.7264 89.3899 34.7614 90.7209 34.7614 91.7869 34.7614 92.3039 34.0534 92.4629 33.8314L92.4629 34.7724C92.4629 35.8494 91.8929 36.6514 90.6569 36.6514 89.4319 36.6514 88.8199 35.8174 88.8199 35.8174L88.4499 36.2074C88.4499 36.2074 89.2419 37.1904 90.6569 37.1904 92.0619 37.1904 93.0119 36.2604 93.0119 34.7504L93.0119 29.8204 92.5159 29.8204zM92.4629 33.1034C92.4629 33.1034 91.9659 34.2224 90.7209 34.2224 89.6439 34.2224 88.9039 33.3464 88.9039 32.2274 88.9039 31.1084 89.6439 30.2314 90.7209 30.2314 91.9659 30.2314 92.4629 31.3504 92.4629 31.3504L92.4629 33.1034z"/>
  </g>
</svg>