<svg xmlns="http://www.w3.org/2000/svg" viewBox="0 0 633 279.7">
  <path fill="#2c3e50" d="M.294 44.644v133h3v-130h129.9v-3H.294zm76.6 20.3c-21.6 0-40.4 12.2-49.8 30.1h99.7c-9.5-17.9-28.3-30.1-49.9-30.1zm-49.8 30.1c-4.1 7.9-6.5 16.8-6.5 26.3 0 4.9.6 9.7 1.8 14.2l52.3 6v-22.6h58.6c-.1-4.2-.7-8.1-1.7-12l-104.5-11.9zm565.6-11.2c-4.2 0-6.1 2.6-6.1 6.6v5.4h-3.8v3.2h3.8v21.1h4v-21.1h4.4v-3.2h-4.4v-5.1c0-2.4.7-3.7 2.9-3.7 1 0 1.9.2 2.4.5v-3.4c-.9-.2-2.1-.3-3.2-.3zm-196.1.5v35.8h4v-35.8h-4zm-80.9 1.4v4.8h4.4v-4.8h-4.4zm172 0v4.8h4.4v-4.8h-4.4zm-318.5 1.1v33.3h4.2v-33.3h-4.2zm250.8 0v33.3h4.2v-33.3h-4.2zm-210.3 2.8l-4 1.2v5h-3.9v3.2h3.9v15.6c0 4.3 2 5.8 5.6 5.8 1.1 0 2.4-.3 3.4-.6v-3.2c-.8.3-1.5.6-2.5.6-1.8 0-2.5-1.1-2.5-3.8v-14.4h5v-3.2h-5v-6.2zm96.9 0l-4 1.2v5h-3.8v3.2h3.8v15.6c0 4.3 2 5.8 5.6 5.8 1.1 0 2.5-.3 3.4-.6v-3.2c-.8.3-1.5.6-2.5.6-1.8 0-2.6-1.1-2.6-3.8v-14.4h5v-3.2h-5v-6.2zm172 0l-4 1.2v5h-3.9v3.2h3.9v15.6c0 4.3 2 5.8 5.6 5.8 1.1 0 2.4-.3 3.4-.6v-3.2c-.8.3-1.4.6-2.4.6-1.8 0-2.6-1.1-2.6-3.8v-14.4h5v-3.2h-5v-6.2zm25.7 0l-4 1.2v5h-3.9v3.2h3.9v15.6c0 4.3 2 5.8 5.6 5.8 1.1 0 2.4-.3 3.4-.6v-3.2c-.8.3-1.5.6-2.5.6-1.8 0-2.6-1.1-2.6-3.8v-14.4h5v-3.2h-5v-6.2zm38.1 0l-4 1.2v5h-3.8v3.2h3.8v15.6c0 4.3 2 5.8 5.6 5.8 1.1 0 2.5-.3 3.4-.6v-3.2c-.8.3-1.5.6-2.5.6-1.8 0-2.6-1.1-2.6-3.8v-14.4h5v-3.2h-5v-6.2zm-351.9 5.9c-2.8 0-4.9 1.2-6.2 4h-.1l-.2-3.6h-3.8c.1 1.7.2 3.5.2 5.2v19.1h4v-14.6c0-4.4 2-6.6 5.2-6.6 2.6 0 4 1.6 4 5.5v15.7h4v-16.9c0-5.4-2.8-7.8-7.1-7.8zm36.2 0c-6.1 0-9.4 4.9-9.4 12.5s3.4 12.5 9.8 12.5c2.4 0 4.9-.5 6.8-1.4l-.2-3.6c-1.4 1-3.6 2-5.6 2-4.4 0-6.6-2.6-6.6-8.3h13.8v-2.1c0-7.3-3.1-11.6-8.6-11.6zm24.3 0c-3.6 0-5.6 1.2-6.9 4.2h-.1l-.1-3.8h-3.9c0 1.7.2 3.5.2 5.2v19.1h4v-12.9c0-5.3 2.2-7.9 5.3-7.9.5 0 1 0 1.5.1v-4zm13.9 0c-2.8 0-4.9 1.2-6.2 4h-.1l-.1-3.6h-3.8c0 1.7.2 3.5.2 5.2v19.1h4v-14.6c0-4.4 2-6.6 5.2-6.6 2.6 0 4 1.6 4 5.5v15.7h4v-16.9c-.1-5.4-2.9-7.8-7.2-7.8zm21.3 0c-2.4 0-4.8.7-6.8 2l.4 3.8c1.4-1.5 3.8-2.6 6.2-2.6 1.7 0 3.3.5 4.1 1.5.8 1.1.9 2.1.9 3.9v1.1h-2.4c-8.4 0-11.4 3.5-11.4 8.3 0 4.7 3 7 7 7 3.7 0 5.7-1.8 6.8-3.6h.1l.3 3.3h3.6c-.1-.9-.2-2.3-.2-3.7v-12.7c0-3.4-1-4.9-2.1-6-.8-.8-3-2.3-6.5-2.3zm49 0c-6.4 0-9.7 4.9-9.7 12.5s3.3 12.5 9.7 12.5c6.4 0 9.8-4.8 9.8-12.5s-3.4-12.5-9.8-12.5zm25 0c-2.8 0-4.8 1.2-6.1 4h-.1l-.1-3.6h-3.9c0 1.7.2 3.5.2 5.2v19.1h4v-14.6c0-4.4 2-6.6 5.2-6.6 2.6 0 4 1.6 4 5.5v15.7h4v-16.9c-.1-5.4-3-7.8-7.2-7.8zm21.2 0c-2.4 0-4.9.7-6.9 2l.5 3.8c1.4-1.5 3.8-2.6 6.2-2.6 1.7 0 3.2.5 4 1.5.8 1.1.9 2.1.9 3.9v1.1h-2.4c-8.4 0-11.5 3.5-11.5 8.3 0 4.7 3 7 7.1 7 3.7 0 5.8-1.8 6.8-3.6h.1l.2 3.3h3.7c-.1-.9-.2-2.3-.2-3.7v-12.7c0-3.4-1-4.9-2.1-6-.6-.8-2.8-2.3-6.4-2.3zm59.9 0c-2.8 0-4.8 1.2-6.1 4h-.2l-.1-3.6h-3.8c.1 1.7.1 3.5.1 5.2v19.1h4v-14.6c0-4.4 2-6.6 5.2-6.6 2.6 0 4 1.6 4 5.5v15.7h4v-16.9c.1-5.4-2.9-7.8-7.1-7.8zm20.1 0c-4.7 0-7.9 3-7.9 7.1 0 3.1 1.3 4.7 4.8 6.2l2.7 1.2c2.2 1 3.1 2.2 3.1 3.8 0 1.9-1.6 3.4-4.6 3.4-2 0-3.9-.7-5.7-1.8l-.3 3.6c1.8.9 4 1.4 6.6 1.4 5.6 0 7.9-3.3 7.9-7.5 0-3-1.9-5-4.8-6.2l-1.4-.6c-2.7-1.1-4.1-2.1-4.1-4.1 0-1.9 1.3-3.4 4-3.4 1.8 0 3.5.5 4.8 1.1l.2-3.4c-1.6-.5-3.3-.8-5.3-.8zm98.1 0c-6.1 0-9.5 4.9-9.5 12.5s3.4 12.5 9.8 12.5c2.4 0 5-.5 6.8-1.4l-.2-3.6c-1.4 1-3.6 2-5.6 2-4.4 0-6.6-2.6-6.6-8.3h13.8v-2.1c.1-7.3-3-11.6-8.5-11.6zm47.8 0c-6.4 0-9.8 4.9-9.8 12.5s3.4 12.5 9.8 12.5 9.7-4.8 9.7-12.5-3.3-12.5-9.7-12.5zm25.7 0c-3.6 0-5.6 1.2-6.9 4.2h-.1l-.1-3.8h-3.9c0 1.7.2 3.5.2 5.2v19.1h4v-12.9c0-5.3 2.2-7.9 5.3-7.9.5 0 1.1 0 1.5.1v-4zm-317.1.3v24.3h4v-24.3h-4zm172 0v24.3h4v-24.3h-4zm25.3 0v16.8c0 5.4 2.9 7.8 7.1 7.8 2.8 0 4.8-1.2 6.1-4h.1l.1 3.6h3.9c-.1-1.7-.2-3.5-.2-5.2v-19.1h-4v14.6c0 4.4-2 6.6-5.2 6.6-2.6 0-4-1.6-4-5.5v-15.7h-3.9zm-286.7 2.7c3.2 0 4.8 2.5 4.8 7.6h-9.7c0-5.7 2.3-7.6 4.9-7.6zm332.8 0c3.2 0 4.8 2.5 4.8 7.6h-9.7c0-5.7 2.3-7.6 4.9-7.6zm-224.1.2c3.8 0 5.6 3.2 5.6 9.3 0 6.1-1.8 9.3-5.6 9.3s-5.6-3.2-5.6-9.3c0-6.2 1.8-9.3 5.6-9.3zm272.1 0c3.8 0 5.6 3.2 5.6 9.3 0 6.1-1.8 9.3-5.6 9.3s-5.6-3.2-5.6-9.3c-.1-6.2 1.8-9.3 5.6-9.3zm-319.2 9.4c1.1 0 2.1 0 2.8.1v3c0 3.3-2.2 6.2-5.7 6.2-2.8 0-4.1-1.6-4.1-4.2 0-2.8 2.3-5.1 7-5.1zm95.3 0c1.1 0 2.1 0 2.8.1v3c0 3.3-2.2 6.2-5.7 6.2-2.8 0-4.1-1.6-4.1-4.2 0-2.8 2.3-5.1 7-5.1zm-304.2 15.4v18.5l47.6 5.5c3.8-7.2 6.1-15.4 6.4-24h-54zm47.6 24.1h-47.6v30c20.6-.8 38.5-12.8 47.6-30zm116.8-6.3v35.8h4v-35.8h-4zm56.9 0v14.8h-.1c-1.6-2.6-3.5-3.6-6.2-3.6-5 0-8.4 4.1-8.4 12.5s3.4 12.5 8.4 12.5c3.5 0 5.4-2 6.4-3.9h.1l.1 3.6h3.9c0-1.5-.2-3-.2-4.5v-31.3h-4zm254.7 0v35.8h4v-35.8h-4zm-300.7 1.4v4.8h4.4v-4.8h-4.4zm349.6 0v4.8h4.4v-4.8h-4.4zm-273.2.8c-5.1 0-9.3 2.8-9.3 8.3 0 4.3 1.4 6.4 7.4 10 4.5 2.7 5.2 4.2 5.2 6.8 0 2.7-2.1 5.2-5.9 5.2-2 0-4.5-1-6.4-2.1v4.4c1.8.9 4.3 1.4 7 1.4 6.4 0 9.7-4.2 9.7-9.5 0-3.8-1.7-6.7-6.8-9.7-4.8-2.8-5.6-4.1-5.6-6.2 0-2.8 2-5 5.2-5 2 0 4.1.6 5.7 1.5v-4.1c-1.7-.6-4-1-6.2-1zm-153.9.3l-11.1 33.3h4.2l2.7-8.7h12.7l2.7 8.7h4.4l-10.9-33.3h-4.7zm312.5 0l-11.1 33.3h4.2l2.7-8.7h12.7l2.7 8.7h4.4l-10.9-33.3h-4.7zm-101.6 2.8l-4 1.2v5h-3.9v3.2h3.9v15.6c0 4.3 2 5.8 5.6 5.8 1.1 0 2.4-.3 3.4-.6v-3.2c-.8.3-1.5.6-2.5.6-1.8 0-2.5-1.1-2.5-3.8v-14.4h5v-3.2h-5v-6.2zm-360.8 1c9.1 17.3 27 29.2 47.6 30v-30h-47.6zm152 .6h.1l5.1 16.7h-10.5l5.3-16.7zm312.5 0h.1l5.1 16.7h-10.5l5.3-16.7zm-285.4 4.3c-3.5 0-5.4 2-6.4 3.9h-.1l-.1-3.6h-3.9c0 1.5.2 3 .2 4.5v30.2h4v-13.6h.1c1.6 2.6 3.5 3.6 6.2 3.6 5 0 8.4-4.1 8.4-12.5s-3.3-12.5-8.4-12.5zm23.5 0c-3.5 0-5.4 2-6.4 3.9h-.1l-.1-3.6h-3.9c0 1.5.2 3 .2 4.5v30.2h4v-13.6h.1c1.6 2.6 3.5 3.6 6.2 3.6 5 0 8.4-4.1 8.4-12.5s-3.4-12.5-8.4-12.5zm43.8 0c-6.1 0-9.4 4.9-9.4 12.5s3.4 12.5 9.8 12.5c2.4 0 4.9-.5 6.8-1.4l-.2-3.6c-1.4 1-3.6 2-5.6 2-4.4 0-6.6-2.6-6.6-8.3h13.8v-2.1c0-7.3-3.1-11.6-8.6-11.6zm97.1 0c-4.7 0-7.8 3-7.8 7.1 0 3.1 1.3 4.7 4.8 6.2l2.7 1.2c2.2 1 3.1 2.2 3.1 3.8 0 1.9-1.6 3.4-4.6 3.4-2 0-3.9-.7-5.7-1.8l-.3 3.6c1.8.9 4.1 1.4 6.6 1.4 5.6 0 7.9-3.3 7.9-7.5 0-3-1.9-5-4.8-6.2l-1.4-.6c-2.7-1.1-4.2-2.1-4.2-4.1 0-1.9 1.4-3.4 4-3.4 1.8 0 3.5.5 4.8 1.1l.2-3.5c-1.5-.5-3.3-.7-5.3-.7zm34.3 0c-6.1 0-9.4 4.9-9.4 12.5s3.3 12.5 9.8 12.5c2.4 0 4.9-.5 6.8-1.4l-.2-3.6c-1.4 1-3.6 2-5.6 2-4.4 0-6.6-2.6-6.6-8.3h13.8v-2.1c0-7.3-3.1-11.6-8.6-11.6zm23.5 0c-2.7 0-4.7 1.2-6 4h-.1l-.1-3.6h-3.9c0 1.7.2 3.5.2 5.2v19.1h4v-15c0-4.4 1.6-6.2 4.6-6.2 2.4 0 3.7 1.4 3.7 4.5v16.7h4v-15c0-4.4 1.6-6.2 4.6-6.2 2.4 0 3.8 1.4 3.8 4.5v16.7h4v-16.9c0-5.3-2.8-7.8-7.1-7.8-2.8 0-4.6 1.4-5.9 3.8-1.4-2.5-3.2-3.8-5.8-3.8zm31.5 0c-4.7 0-7.8 3-7.8 7.1 0 3.1 1.3 4.7 4.8 6.2l2.7 1.2c2.2 1 3.1 2.2 3.1 3.8 0 1.9-1.6 3.4-4.6 3.4-2 0-3.9-.7-5.7-1.8l-.3 3.6c1.8.9 4.1 1.4 6.6 1.4 5.6 0 7.9-3.3 7.9-7.5 0-3-1.9-5-4.8-6.2l-1.4-.6c-2.7-1.1-4.1-2.1-4.1-4.1 0-1.9 1.3-3.4 4-3.4 1.8 0 3.6.5 4.8 1.1l.1-3.5c-1.5-.5-3.2-.7-5.3-.7zm58.9 0c-2.8 0-4.9 1.2-6.2 4h-.1l-.1-3.6h-3.8c0 1.7.2 3.5.2 5.2v19.1h4v-14.6c0-4.4 2-6.6 5.2-6.6 2.6 0 4 1.6 4 5.5v15.7h4v-16.9c0-5.4-2.9-7.8-7.2-7.8zm21.3 0c-2.4 0-4.8.7-6.8 2l.4 3.8c1.4-1.5 3.8-2.6 6.2-2.6 1.7 0 3.3.4 4.1 1.5.8 1.1.9 2.1.9 3.9v1.1h-2.4c-8.4 0-11.4 3.5-11.4 8.3 0 4.7 3 7 7 7 3.7 0 5.8-1.8 6.8-3.6h.1l.3 3.3h3.6c-.1-.9-.2-2.3-.2-3.7v-12.7c0-3.4-1-4.9-2.1-6-.8-.8-3-2.3-6.5-2.3zm52.3 0c-4.7 0-7.8 3-7.8 7.1 0 3.1 1.3 4.7 4.8 6.2l2.7 1.2c2.2 1 3.1 2.2 3.1 3.8 0 1.9-1.6 3.4-4.6 3.4-2 0-3.9-.7-5.7-1.8l-.3 3.6c1.8.9 4 1.4 6.6 1.4 5.6 0 7.9-3.3 7.9-7.5 0-3-1.9-5-4.8-6.2l-1.4-.6c-2.7-1.1-4.1-2.1-4.1-4.1 0-1.9 1.3-3.4 4-3.4 1.8 0 3.5.5 4.8 1.1l.2-3.5c-1.6-.5-3.4-.7-5.4-.7zm29.3 0c-4.7 0-7.9 3-7.9 7.1 0 3.1 1.3 4.7 4.8 6.2l2.7 1.2c2.2 1 3.1 2.2 3.1 3.8 0 1.9-1.6 3.4-4.6 3.4-2 0-3.9-.7-5.7-1.8l-.3 3.6c1.8.9 4.1 1.4 6.6 1.4 5.6 0 7.9-3.3 7.9-7.5 0-3-1.9-5-4.8-6.2l-1.4-.6c-2.7-1.1-4.1-2.1-4.1-4.1 0-1.9 1.4-3.4 4-3.4 1.8 0 3.5.5 4.8 1.1l.1-3.5c-1.5-.5-3.2-.7-5.2-.7zm-367 .3v24.3h4v-24.3h-4zm86.7 0l7.7 24.7-1 3.7c-.7 2.5-1.5 3.1-2.7 3.1-.9 0-1.5-.2-2.1-.5l-.2 3.6c.7.2 1.7.3 2.7.3 3.1 0 4.8-1.5 6-5.6l8.5-29.3h-4l-5.1 19.8h-.2l-5.4-19.8h-4.2zm221.8 0l7.7 24.7-.9 3.7c-.7 2.5-1.5 3.1-2.7 3.1-.9 0-1.6-.2-2.2-.5l-.2 3.6c.7.2 1.8.3 2.8.3 3.1 0 4.8-1.5 6-5.6l8.4-29.3h-4l-5.1 19.8h-.1l-5.4-19.8h-4.3zm41.1 0v24.3h4v-24.3h-4zm-331 2.7c3.2 0 4.8 2.5 4.8 7.6h-9.7c.1-5.7 2.3-7.6 4.9-7.6zm131.4 0c3.2 0 4.8 2.5 4.8 7.6h-9.7c.1-5.7 2.4-7.6 4.9-7.6zm-199.5.2c3.7 0 5.4 3.2 5.4 9.3 0 6.1-1.7 9.3-5.4 9.3s-5.3-3.2-5.3-9.3c0-6.2 1.7-9.3 5.3-9.3zm23.5 0c3.7 0 5.3 3.2 5.3 9.3 0 6.1-1.6 9.3-5.3 9.3-3.7 0-5.4-3.2-5.4-9.3.1-6.2 1.8-9.3 5.4-9.3zm66.5 0c3.7 0 5.4 3.2 5.4 9.3 0 6.1-1.7 9.3-5.4 9.3s-5.3-3.2-5.3-9.3c-.1-6.2 1.6-9.3 5.3-9.3zm246.8 9.4c1.1 0 2.1 0 2.8.1v3c0 3.3-2.1 6.2-5.6 6.2-2.8 0-4.1-1.6-4.1-4.2 0-2.8 2.2-5.1 6.9-5.1zm-447.8 28.1c-3.9 0-6.6 3.8-6.6 9.3 0 8.3 7 17.5 7 23.8 0 2.2-1.4 4-3.2 4-1.2 0-2.5-.9-3.6-2.3v5.4c1.4 1.1 2.7 1.6 4.1 1.6 4 0 6.6-3.9 6.6-9.4 0-8.5-6.9-17.3-6.9-23.8 0-2.6 1.1-3.9 3.1-3.9 1 0 1.7.4 3 1.3v-4.9c-1.4-.8-2.4-1.1-3.5-1.1zm-36.2.3l-6.1 41h4l1.2-9.1h6l1.2 9.1h4l-6-41h-4.3zm65.8 0l-6 41h4l1.3-9.1h6l1.1 9.1h4l-6-41h-4.4zm-123.8.3v40.6h4.2v-40.6h-4.2zm27.1 0v40.6h4.2v-40.6h-4.2zm32.9 9.7h.1l2.4 17.1h-4.7l2.2-17.1zm65.9 0h.1l2.2 17.1h-4.6l2.3-17.1z"/>
</svg>