<svg xmlns="http://www.w3.org/2000/svg" id="Layer_1" viewBox="0 0 633 279.7"><style>.st0{fill:#2C3E50;} .st1{fill:#566573;}</style><path d="M238.6 91.1l-11.1 30.8h-4.6L215 100c-2.6 7.2-5.6 14.7-7.9 21.9h-4.3l-11.1-30.8h5.9l7.5 20.3 7.5-20.3h5.6l7.5 20.3 6.9-20.3h6zm89 8.5H322V97c0-.3 0-.3-.3-.3h-19c-.3 0-.3 0-.3.3v19c0 .3 0 .3.3.3h19c.3 0 .3 0 .3-.3v-5.9h-6.9v-5.6H328V116c0 3.3-2.6 5.9-5.9 5.9h-19c-3.3 0-5.9-2.6-5.9-5.9V97c0-3.3 2.6-5.9 5.9-5.9h19c3.3 0 5.9 2.6 5.9 5.9v2.6h-.4zm46.5-2.9h-22.6v6.9h18.3v5.6h-18.3v6.9h22.6v5.6H346V91.1h28.1v5.6zm41.9-5.6h5.6v30.8h-6.2l-18.7-22.6v22.6h-5.6V91.1h6.2l19 22.6V91.1h-.3zm22.6 0h5.6v30.8h-5.6V91.1zm48.1 0h5.6v30.8H486l-19-22.6v22.6h-5.6V91.1h6.2l19 22.6V91.1zm53 8.5h-5.6V97c0-.3 0-.3-.3-.3h-19c-.3 0-.3 0-.3.3v19c0 .3 0 .3.3.3h19c.3 0 .3 0 .3-.3v-5.9h-6.9v-5.6H540V116c0 3.3-2.6 5.9-5.9 5.9h-19c-3.3 0-5.9-2.6-5.9-5.9V97c0-3.3 2.6-5.9 5.9-5.9h19c3.3 0 5.9 2.6 5.9 5.9v2.6h-.3zm45.8-2.9H563v6.9h18.3v5.6H563v6.9h22.6v5.6h-28.1V91.1h28.1v5.6zm41.6-5.6h5.6v30.8h-6.2l-18.7-22.6v22.6h-5.6V91.1h6.2l19 22.6V91.1h-.3zM275.9 97c-1.3-3.6-2.6-5.9-5.9-5.9h-9.2c-3.3 0-4.6 2.3-5.9 5.9l-9.2 24.9h5.9l3.6-10.5h20l3.9 10.5h5.6c.1 0-8.8-24.9-8.8-24.9zm-18.6 8.8l2.9-8.8c0-.3 0-.3.3-.3h9.5c.3 0 .3 0 .3.3l2.9 8.8h-15.9z" class="st0"/><path d="M209.2 146.1h2.6v15.1c0 2-1.3 3.3-3.3 3.3h-11.8c-2 0-3.3-1.3-3.3-3.3v-15.1h2.6v15.1c0 .3.3.7.7.7h11.8c.3 0 .7-.3.7-.7v-15.1zm24.8 0h2.6v18.3h-3.3l-12.1-14.7v14.7h-2.6v-18.3h3.3l12.1 14.7v-14.7zm9.5 0h2.6v18.3h-2.6v-18.3zm26.5 0h3.3l-10.5 18.3h-2.6l-10.5-18.3h3.3l8.8 15.1 8.2-15.1zm22.3 2.9h-14.1v4.9h11.1v2.6h-11.1v4.9h14.1v2.6h-16.7v-18.3h16.7v3.3zm24.9 5.6c0 1.6-1.3 3.3-3.3 3.3h-2l5.2 6.2v.3h-3.3l-5.6-6.5h-6.9v6.5h-2.6v-18.3h15.1c2 0 3.3 1.6 3.3 3.3.1 0 .1 5.2.1 5.2zm-15.7-5.6v6.2h12.1c.3 0 .7-.3.7-.7v-5.2c0-.3-.3-.7-.7-.7 0 .1-12.1.4-12.1.4zm163.9 5.6c0 1.6-1.3 3.3-3.3 3.3h-2l5.2 6.2v.3H462l-5.6-6.5h-6.9v6.5h-2.6v-18.3H462c2 0 3.3 1.6 3.3 3.3v5.2zM450 149v6.2h12.1c.3 0 .7-.3.7-.7v-5.2c0-.3-.3-.7-.7-.7.1.1-12.1.4-12.1.4zm134.6 5.6c0 1.6-1.3 3.3-3.3 3.3h-2l5.2 6.2v.3h-3.3l-5.6-6.5h-6.9v6.5h-2.6v-18.3h15.1c2 0 3.3 1.6 3.3 3.3v5.2zm-15.4-5.6v6.2h12.1c.3 0 .7-.3.7-.7v-5.2c0-.3-.3-.7-.7-.7 0 .1-12.1.4-12.1.4zm-227.5 1.7h-2.6v-1c0-.3-.3-.7-.7-.7h-11.8c-.3 0-.7.3-.7.7v3.9c0 .3.3.7.7.7h11.8c2 0 3.3 1.6 3.3 3.3v3.9c0 2-1.3 3.3-3.3 3.3h-11.8c-2 0-3.3-1.3-3.3-3.3v-1h2.6v1c0 .3.3.7.7.7h11.8c.3 0 .7-.3.7-.7v-3.9c0-.3-.3-.7-.7-.7h-11.8c-2 0-3.3-1.6-3.3-3.3v-3.9c0-2 1.3-3.3 3.3-3.3h11.8c2 0 3.3 1.3 3.3 3.3v1zm6.9-4.6h2.6v18.3h-2.6v-18.3zm25.2 0v2.6h-7.9v15.4h-2.6v-15.4h-7.9v-2.6h18.4zm21.6 0l-8.5 11.5v6.9h-2.6v-6.9l-8.5-11.5h3.3l6.5 8.2 6.5-8.2h3.3zM489 149h-14.1v4.9H486v2.6h-11.1v4.9H489v2.6h-16.7v-18.3H489v3.3zm23.6 1.7H510v-1c0-.3-.3-.7-.7-.7h-11.5c-.3 0-.7.3-.7.7v3.9c0 .3.3.7.7.7h11.8c2 0 3.3 1.6 3.3 3.3v3.9c0 2-1.3 3.3-3.3 3.3h-11.8c-2 0-3.3-1.3-3.3-3.3v-1h2.6v1c0 .3.3.7.7.7h11.8c.3 0 .7-.3.7-.7v-3.9c0-.3-.3-.7-.7-.7h-11.8c-2 0-3.3-1.6-3.3-3.3v-3.9c0-2 1.3-3.3 3.3-3.3h11.8c2 0 3.3 1.3 3.3 3.3v1h-.3zm23.5-1.7H522v4.9h11.1v2.6H522v4.9h14.1v2.6h-16.7v-18.3h16.7v3.3zm17.4-2.9c2 0 2.9 1.3 3.6 3.3l5.2 15.1h-2.9l-2.3-6.2h-12.8l-2.3 6.2h-2.6l5.6-15.1c.7-2 1.3-3.3 3.3-3.3h5.2zm2.9 9.1l-2.3-5.9c0-.3-.3-.7-.7-.7h-5.2c-.3 0-.3.3-.7.7l-2.3 5.9h11.2zm37.7-6.2c-.3 0-.7.3-.7.7v11.8c0 .3.3.7.7.7h14.7v2.6h-14.7c-2 0-3.3-1.3-3.3-3.3v-11.8c0-2 1.3-3.3 3.3-3.3h14.7v2.6h-14.7zm38.9-2.9v18.3h-2.6v-7.9h-13.1v7.9h-2.6v-18.3h2.6v7.9h13.1v-7.9h2.6zm-202.3 15.7l-3.3-2v-5.2h-2.6v3.6s-9.8-6.2-10.1-6.2c-.3 0-.3-.3-.3-.3V150c0-.3.3-.7.7-.7h6.9c.3 0 .7.3.7.7v1.3h2.6v-1.6c-.3-1.6-1.6-2.6-3.3-2.6h-7c-2 0-3.3 1.3-3.3 3.3v2c0 1 .7 1.3 1.3 1.6h-.7c-2 0-3.3.7-3.3 2.3v5.6c0 2 1.3 3.3 3.3 3.3h11.8c1.3 0 2.6-1 2.9-2.3l3.3 2.3v-3.3l.4-.1zm-5.9-.7c0 .3-.3.7-.7.7h-11.8c-.3 0-.7-.3-.7-.7v-5.9c0-.3.3-.3.7-.3h3.3l8.8 5.6v.7h.4z" class="st1"/><path d="M173.8 164.7c1.6-1.6-3.9-3.6-3.9-3.6s-6.2-2.9-30.4-4.9v8.5h-37.3v-9.5c-7.5-.3-22.3 0-32.4 0v9.5H32.1v-8.2c-16.4 1-26.8 3.3-26.8 3.3s-1.6 1.3-2 1.3c-2 1.3 0 2 1.3 2.6.7.3.7.3.3 1 0 .3-1.3.7-1.3 1.3.7 1.6 2.6 0 2.6 2.3-.3 2.3-5.6 1-6.2 3.3-.3 1.6 2 0 2 3.6 0 3.3 2.6 6.9 9.5 8.5 1.6.3 9.5.3 5.6 2.6-.3.3-2 .3-2.6.3-.7 0-2.6 0-2.9.7-.7 1 1 1 .7 2-1 0-2.9 0-2 1.6.3.7 2 1.3 2.6 1.3 4.3-.3 3.9 0 5.2.3-2.3.3-4.6 2.9 4.6 2.6.3 1.3 2.6 1.3 3.6 1 57.3-12.8 82.1-7.2 82.1-10.8-.7-1.6-8.8-1.6-10.1-1.6-5.2-.3-16.4.3-15.7-1 .3-3.3 58.3-2.3 51.7-.3-.3 0-4.3.7-4.9 1-3.3 1.6 8.8 2 10.1 2.3 1.3 0 4.9 0 4.3 1.6-.3.3-4.6 0-4.3.7 0 .7 2.6.3 2.9.7 1.6 2.6-21.3 1.3-33.4 1.6-3.6 0-10.5.3-14.1 1-5.9.7-1 2.3 8.5 2.9 4.9.3 31.1 2.6 53 5.6 6.5 1.3 8.5-2 7.2-2.9-1-.7 2.9-2.3-1.3-3.9-2.6-1-.3-1.6-.3-1.6.3 0 5.6 1.3 3.6-.3-1.3-1 1-.3 1.3-.7 4.9-.3 3.6-2.3 3.9-2-1.3-1.3 2.6-2.6 1.6-5.6-.3-1-5.9-.7-2.3-1.6.3 0 5.6 0 .7-2.6-1-.7-2.3-.7-3.6-1-3.6-.7-1-2.6 1-2.3 2.3.3 4.3-1 3.9-3.3-.2-2.7-1.2-6.9 1.7-7.3z" class="st0"/><path d="M37.7 79.6v85.1h31.7v-53h32.7v53h31.7V79.6H37.7z" class="st1"/></svg>