<svg xmlns="http://www.w3.org/2000/svg" viewBox="0 0 135.4 80.7">
  <path d="M50.5 15.4V5.1h5l-.1 1h-3.7V10h3.4v1h-3.4v4.4h-1.2zm10.8-4.7v.8c0 .2 0 .4-.1.6h-3.6c0 .8.2 1.5.5 1.9.3.4.8.6 1.4.6.2 0 .4 0 .6-.1.2-.1.3-.1.4-.2.1-.1.2-.1.3-.2.1-.1.2-.1.2-.2l.4.9c0 .1-.1.1-.2.2s-.2.2-.4.3c-.2.1-.4.2-.6.2-.2.1-.5.1-.9.1s-.9-.1-1.2-.2c-.4-.1-.7-.4-.9-.7-.3-.3-.4-.7-.6-1.2-.1-.5-.2-1.1-.2-1.7 0-.6.1-1.2.2-1.7.2-.5.4-.8.6-1.1.2-.3.5-.5.9-.7.3-.1.7-.2 1.1-.2.7 0 1.2.2 1.6.7.3.4.5 1 .5 1.9zm-2.2-1.6c-.4 0-.8.2-1 .5-.3.4-.4.9-.4 1.6h2.6v-.5c0-.5-.1-.9-.3-1.2-.3-.3-.5-.4-.9-.4zm3.5 2.9c0-.7.1-1.3.3-1.8.2-.5.4-.9.7-1.2.3-.3.6-.5 1-.6.4-.1.8-.2 1.1-.2.2 0 .4 0 .6.1.2 0 .3.1.4.1V4.9l1.3-.2v10.7h-1.1v-.8c0 .1-.1.1-.2.2l-.3.3c-.1.1-.3.2-.5.3-.2.1-.5.1-.7.1-.3 0-.7-.1-1-.2-.3-.1-.6-.3-.8-.6-.2-.3-.4-.7-.5-1.1-.2-.4-.3-1-.3-1.6zm2.8 2.5c.2 0 .4 0 .5-.1.1-.1.3-.1.4-.2.1-.1.2-.2.3-.2l.2-.2V9.4c-.1-.1-.2-.1-.4-.2-.1 0-.3-.1-.5-.1-.3 0-.5 0-.8.1-.2.1-.5.3-.6.5-.2.2-.3.5-.4.9-.1.3-.2.8-.2 1.3s0 .9.1 1.2c.1.3.2.6.3.8.1.2.3.4.5.4.2.2.4.2.6.2zm9-3.8v.8c0 .2 0 .4-.1.6h-3.6c0 .8.2 1.5.5 1.9.3.4.8.6 1.4.6.2 0 .4 0 .6-.1.2-.1.3-.1.4-.2.1-.1.2-.1.3-.2l.2-.2.4.9-.2.2c-.1.1-.2.2-.4.3-.2.1-.4.2-.6.2-.2.1-.5.1-.9.1s-.9-.1-1.2-.2c-.4-.1-.7-.4-.9-.7-.3-.3-.4-.7-.6-1.2-.1-.5-.2-1.1-.2-1.7 0-.6.1-1.2.2-1.7s.3-.8.6-1.1c.2-.3.5-.5.9-.7.3-.1.7-.2 1.1-.2.7 0 1.2.2 1.6.7.3.4.5 1 .5 1.9zm-2.2-1.6c-.4 0-.8.2-1 .5-.3.4-.4.9-.4 1.6h2.6v-.5c0-.5-.1-.9-.3-1.2-.3-.3-.6-.4-.9-.4zm7 .2s-.1 0-.2-.1h-.4c-.4 0-.7.1-.9.3-.2.2-.4.4-.5.7v5.3H76V8.3h1.1v1c0-.1.1-.3.2-.4.1-.1.2-.3.3-.4.1-.1.3-.2.4-.2.2-.1.4-.1.6-.1h.4c.1 0 .2.1.2.1v1zm.7 4.3c0-.4.1-.8.2-1 .2-.3.4-.5.6-.7.3-.2.6-.3.9-.4.4-.1.7-.1 1.2-.1h.4v-.7c0-.6-.1-1-.3-1.3-.2-.2-.5-.3-.9-.3s-.7.1-.9.2c-.2.2-.4.3-.6.4L80 9l.3-.3c.1-.1.3-.2.5-.3.2-.1.4-.2.6-.2s.5-.1.8-.1c.7 0 1.3.2 1.7.6.4.4.6 1.1.6 2v4.2c0 .3 0 .5.1.6h-1.1v-.8c0 .1-.1.2-.2.3l-.3.3c-.1.1-.3.2-.4.2-.2.1-.4.1-.6.1-.3 0-.5 0-.8-.1-.2-.1-.4-.2-.6-.4-.2-.2-.3-.4-.4-.6-.3-.3-.3-.6-.3-.9zm2.1 1c.2 0 .3 0 .4-.1.1 0 .2-.1.3-.2.1-.1.2-.1.2-.2.1-.1.1-.2.2-.2v-1.6h-.4c-.6 0-1 .1-1.3.3-.3.2-.4.5-.4.9s.1.6.3.8c.2.2.4.3.7.3zm5.4-.8c0 .3 0 .5.1.6.1.1.2.2.4.2h.3c.1 0 .1 0 .2-.1l.1.9c-.1 0-.2.1-.3.1-.2.1-.4.1-.6.1-.4 0-.7-.1-1-.4-.2-.2-.4-.7-.4-1.3v-9l1.2-.1v9zm14.2-8.7v10.3h-1.2V7.6c0 .2-.2.6-.3 1.1-.2.5-.3 1.1-.5 1.7l-1.7 5h-1l-1.7-5c-.2-.6-.4-1.1-.5-1.7-.2-.5-.3-.9-.3-1.1v7.8H93V5.1h1.4l2.4 7.1c.1.3.2.7.3 1 .1.3.1.6.2.8 0-.2.1-.5.1-.8.1-.3.2-.6.3-1l2.4-7.1h1.5zm3.3 10.3h-1.2V8.3h1.2v7.1zm-.6-8.9c-.2 0-.4-.1-.6-.2-.1-.2-.2-.4-.2-.6 0-.2.1-.5.2-.6.2-.2.3-.2.6-.2.2 0 .4.1.6.2.2.2.2.4.2.6 0 .3-.1.5-.2.6-.2.2-.4.2-.6.2zm6.3 8.9v-4.6c0-.6-.1-1-.3-1.3-.2-.3-.5-.4-.9-.4s-.7.1-.9.3c-.2.2-.4.4-.6.5v5.5h-1.2V8.3h1.1v.8c0-.1.1-.1.2-.3.1-.1.2-.2.4-.3.2-.1.3-.2.6-.3.2-.1.5-.1.7-.1.3 0 .6 0 .9.1.3.1.5.2.7.5.2.2.3.5.4.8.1.3.1.7.1 1.2v4.7h-1.2zm4.2 0h-1.2V8.3h1.2v7.1zm-.6-8.9c-.2 0-.4-.1-.6-.2-.2-.2-.2-.4-.2-.6 0-.2.1-.5.2-.6.2-.2.3-.2.6-.2.2 0 .4.1.6.2.2.2.2.4.2.6 0 .3-.1.5-.2.6-.1.2-.3.2-.6.2zm5.6 3.2l-.4-.4c-.2-.2-.5-.2-.8-.2-.3 0-.6.1-.7.2-.2.1-.3.3-.3.5 0 .3.1.5.2.7.2.2.4.4.7.6l.4.3c.5.3.9.6 1.1.9.3.3.4.8.4 1.3 0 .6-.2 1-.6 1.4-.4.4-1 .6-1.7.6-.3 0-.5 0-.8-.1-.2-.1-.4-.1-.6-.2-.2-.1-.3-.2-.4-.3l-.3-.3.6-1 .2.2c.1.1.2.2.3.2.1.1.3.1.4.2.1 0 .3.1.5.1.4 0 .6-.1.8-.2.2-.2.3-.4.3-.6 0-.2 0-.3-.1-.4 0-.1-.1-.2-.2-.3l-.3-.3c-.1-.1-.3-.2-.4-.3l-.4-.3c-.4-.3-.8-.6-1-.9-.3-.3-.4-.7-.4-1.2 0-.3.1-.5.2-.7.1-.2.2-.4.4-.6.2-.2.4-.3.7-.4.3-.1.5-.1.8-.1.3 0 .5 0 .7.1.2.1.4.1.5.2.1.1.3.2.4.3l.2.2-.4.8zm5.1-.5h-1.6v4c0 .5.1.9.2 1 .1.2.3.3.7.3.2 0 .3 0 .5-.1.1-.1.2-.1.3-.1l.2 1c-.1 0-.2.1-.4.2s-.4.1-.8.1c-.6 0-1.1-.2-1.4-.5-.3-.3-.5-.9-.5-1.7V9.2h-.9v-.8l.9-.2.1-2h1.1v2h1.7l-.1 1zm4.5.1s-.1 0-.2-.1h-.4c-.4 0-.7.1-.9.3-.2.2-.4.4-.5.7v5.3h-1.2V8.3h1.1v1c0-.1.1-.3.2-.4.1-.1.2-.3.3-.4.1-.1.3-.2.4-.2.2-.1.4-.1.6-.1h.4c.1 0 .2.1.2.1v1zm6-1l-2.2 7.6c-.3.9-.6 1.5-.9 2-.4.4-.9.7-1.6.7-.1 0-.3 0-.4-.1-.1 0-.2-.1-.2-.1v-1c.1 0 .1 0 .2.1h.3c.4 0 .8-.1 1-.4.2-.3.4-.7.6-1.2l.1-.4-2.3-7.2h1.3l1.1 4c.1.4.2.8.3 1.1.1.4.1.7.2.9 0-.3.1-.6.1-.9.1-.3.2-.7.3-1.1l1-4h1.1zM49.9 26.9c0-.7.1-1.2.2-1.7.2-.5.4-.9.6-1.2.3-.3.6-.5.9-.7.3-.1.7-.2 1.1-.2.4 0 .8.1 1.1.2.3.1.6.4.9.7.2.3.4.7.6 1.2.1.5.2 1 .2 1.7s-.1 1.2-.2 1.7-.4.9-.6 1.2c-.3.3-.6.5-.9.7-.3.1-.7.2-1.1.2-.4 0-.8-.1-1.1-.2-.3-.1-.6-.4-.9-.7-.2-.3-.4-.7-.6-1.2-.1-.4-.2-1-.2-1.7zm4.4 0c0-1-.1-1.7-.4-2.1-.3-.4-.7-.6-1.2-.6s-.9.2-1.2.6c-.3.4-.4 1.1-.4 2.1s.1 1.6.4 2.1c.3.4.7.6 1.2.6s.9-.2 1.2-.6c.2-.4.4-1.1.4-2.1zm5.7-2.6h-1.5v6.2h-1.2v-6.2h-.9v-.8l.9-.2v-1.4c0-.4.1-.7.2-1 .1-.3.3-.5.4-.7.2-.2.4-.3.6-.4.2-.1.5-.1.8-.1.3 0 .5 0 .7.1.2.1.3.1.4.2l-.4 1c-.1 0-.1-.1-.3-.1-.1 0-.2-.1-.4-.1-.3 0-.5.1-.7.3-.1.2-.2.5-.2 1v1.3H60v.9zm9.3-3.1h-3.7v3.6H69v1h-3.4v3.6h4l-.1 1.1h-5.3V20.2h5l.1 1zm1.4 5.8c0-.7.1-1.3.3-1.8.2-.5.4-.9.7-1.2.3-.3.6-.5 1-.6.4-.1.8-.2 1.1-.2.2 0 .4 0 .6.1.2 0 .3.1.4.1V20l1.2-.1v10.7h-1.1v-.8c0 .1-.1.1-.2.2l-.3.3c-.1.1-.3.2-.5.3-.2.1-.5.1-.7.1-.3 0-.7-.1-1-.2-.3-.1-.6-.3-.8-.6-.2-.3-.4-.7-.5-1.1-.2-.6-.2-1.1-.2-1.8zm2.8 2.6c.2 0 .4 0 .5-.1.1 0 .3-.1.4-.2.1-.1.2-.2.3-.2l.2-.2v-4.4c-.1-.1-.2-.1-.4-.2-.1 0-.3-.1-.5-.1-.3 0-.5 0-.8.1-.2.1-.5.3-.6.5-.2.2-.3.5-.4.9-.2.3-.3.8-.3 1.3s0 .9.1 1.2c.1.3.2.6.4.8.1.2.3.4.5.4.2.2.4.2.6.2zm9.4.9h-1.1v-.8c0 .1-.1.1-.2.3-.1.1-.2.2-.4.3-.2.1-.3.2-.6.3-.2.1-.5.1-.7.1-.3 0-.6 0-.9-.1-.3-.1-.5-.2-.6-.5-.2-.2-.3-.5-.4-.8-.1-.3-.1-.7-.1-1.2v-4.7H79V28c0 .6.1 1 .3 1.3.2.3.5.4.9.4.3 0 .6-.1.9-.3.2-.2.4-.3.6-.5v-5.5h1.2v7.1zm5.8-5.8l-.1-.1-.2-.2c-.1-.1-.2-.1-.4-.2-.1 0-.3-.1-.5-.1-.3 0-.5 0-.7.1-.2.1-.4.2-.6.5-.2.2-.3.5-.4.8-.1.3-.1.7-.1 1.2s0 1 .1 1.3c.1.4.2.6.3.9.1.2.3.4.5.5.2.1.4.1.7.1.4 0 .6-.1.8-.2.2-.1.3-.2.4-.3l.5.8c0 .1-.1.1-.2.2s-.2.2-.4.2c-.1.1-.3.1-.5.2s-.5.1-.7.1c-.4 0-.8-.1-1.1-.2-.3-.1-.7-.3-.9-.6-.3-.3-.5-.7-.6-1.2-.1-.5-.2-1.1-.2-1.8s.1-1.3.3-1.7c.2-.5.4-.9.7-1.2.3-.3.6-.5 1-.6.4-.1.7-.2 1.1-.2.3 0 .5 0 .7.1.2 0 .4.1.5.2.1.1.3.2.4.2l.2.2-.6 1zm1.4 4c0-.4.1-.8.2-1 .2-.3.4-.5.6-.7.3-.2.6-.3.9-.4.4-.1.7-.1 1.2-.1h.4v-.7c0-.6-.1-1-.3-1.3-.2-.2-.5-.3-.9-.3s-.7.1-.9.2c-.2.2-.4.3-.6.4l-.5-.8.3-.3c.1-.1.3-.2.5-.3.2-.1.4-.2.6-.2.2-.1.5-.1.8-.1.7 0 1.3.2 1.7.6.4.4.6 1.1.6 2v4.2c0 .3 0 .5.1.6h-1.1v-.8c0 .1-.1.2-.2.3l-.3.3c-.1.1-.3.2-.4.2-.2.1-.4.1-.6.1-.3 0-.5-.1-.8-.1-.2-.1-.4-.2-.6-.4-.2-.2-.3-.4-.4-.6-.3-.3-.3-.5-.3-.8zm2.1.9c.2 0 .3 0 .4-.1.1 0 .2-.1.3-.2.1-.1.2-.1.2-.2.1-.1.1-.2.2-.2v-1.6h-.4c-.6 0-1 .1-1.3.3-.3.2-.4.5-.4.9s.1.6.3.8c.2.3.4.3.7.3zm7.3-5.3h-1.6v4c0 .5.1.9.2 1 .1.2.3.3.7.3.2 0 .3 0 .5-.1.1 0 .2-.1.3-.1l.2 1c-.1 0-.2.1-.4.2s-.4.1-.8.1c-.6 0-1.1-.2-1.4-.5-.3-.3-.5-.9-.5-1.7v-4.1h-.9v-.8l.9-.2.1-2h1.1v2h1.7l-.1.9zm2.5 6.2h-1.2v-7.2h1.2v7.2zm-.6-8.9c-.2 0-.4-.1-.6-.2-.2-.2-.2-.4-.2-.6 0-.2.1-.5.2-.6.1-.2.3-.2.6-.2.2 0 .4.1.6.2.1.2.2.4.2.6 0 .3-.1.5-.2.6-.1.1-.3.2-.6.2zm2.2 5.3c0-.7.1-1.2.2-1.7.2-.5.4-.9.6-1.2.3-.3.6-.5.9-.7.3-.1.7-.2 1.1-.2.4 0 .8.1 1.1.2.3.1.6.4.9.7.2.3.4.7.6 1.2.1.5.2 1 .2 1.7s-.1 1.2-.2 1.7c-.2.5-.4.9-.6 1.2-.3.3-.6.5-.9.7-.3.1-.7.2-1.1.2-.4 0-.8-.1-1.1-.2-.3-.1-.6-.4-.9-.7-.2-.3-.4-.7-.6-1.2-.2-.4-.2-1-.2-1.7zm4.3 0c0-1-.1-1.7-.4-2.1-.3-.4-.7-.6-1.2-.6s-.9.2-1.2.6c-.3.4-.4 1.1-.4 2.1s.1 1.6.4 2.1c.3.4.7.6 1.2.6s.9-.2 1.2-.6c.3-.4.4-1.1.4-2.1zm6.7 3.6v-4.6c0-.6-.1-1-.3-1.3-.2-.3-.5-.4-.9-.4s-.7.1-.9.3c-.2.2-.4.4-.6.5v5.5h-1.2v-7.2h1.1v.8c0-.1.1-.1.2-.3.1-.1.2-.2.4-.3.2-.1.3-.2.6-.3.2-.1.5-.1.7-.1.3 0 .6 0 .9.1.3.1.5.2.7.5.2.2.3.5.4.8.1.3.1.7.1 1.2v4.7h-1.2zM49.8 43.7c0-.4.1-.8.2-1 .2-.3.4-.5.6-.7.3-.2.6-.3.9-.4.4-.1.7-.1 1.2-.1h.4v-.7c0-.6-.1-1-.3-1.3-.2-.2-.5-.3-.9-.3s-.7.1-.9.2c-.2.2-.4.3-.6.4l-.4-.7.3-.3c.1-.1.3-.2.5-.3.2-.1.4-.2.6-.2.2-.1.5-.1.8-.1.7 0 1.3.2 1.7.6.4.4.6 1.1.6 2V45c0 .3 0 .5.1.6h-1.1v-.8c0 .1-.1.2-.2.3l-.3.3c-.1.1-.3.2-.4.2-.2.1-.4.1-.6.1-.3 0-.5 0-.8-.1-.2-.1-.4-.2-.6-.4-.2-.2-.3-.4-.4-.6-.3-.3-.4-.6-.4-.9zm2.2 1c.2 0 .3 0 .4-.1.1 0 .2-.1.3-.2.1-.1.2-.1.2-.2.1-.1.1-.2.2-.2v-1.6h-.4c-.6 0-1 .1-1.3.3-.3.2-.4.5-.4.9s.1.6.3.8c.1.2.4.3.7.3zm8.1.9V41c0-.6-.1-1-.3-1.3-.2-.3-.5-.4-.9-.4s-.7.1-.9.3c-.2.2-.4.4-.6.5v5.5h-1.2v-7.2h1.1v.8c0-.1.1-.1.2-.3.1-.1.2-.2.4-.3.2-.1.3-.2.6-.3.2-.1.5-.1.7-.1.3 0 .6 0 .9.1.3.1.5.2.7.5.2.2.3.5.4.8.1.3.1.7.1 1.2v4.7h-1.2zm2.6-3.5c0-.7.1-1.3.3-1.8.2-.5.4-.9.7-1.2.3-.3.6-.5 1-.6.4-.1.8-.2 1.1-.2.2 0 .4 0 .6.1.2 0 .3.1.4.1V35l1.2-.1v10.7h-1v-.8c0 .1-.1.1-.2.2l-.3.3c-.1.1-.3.2-.5.3-.2.1-.5.1-.7.1-.3 0-.7-.1-1-.2-.3-.1-.6-.3-.8-.6-.2-.3-.4-.7-.5-1.1-.2-.5-.3-1.1-.3-1.7zm2.9 2.6c.2 0 .4 0 .5-.1.1 0 .3-.1.4-.2.1-.1.2-.2.3-.2l.2-.2v-4.4c-.1-.1-.2-.1-.4-.2-.1 0-.3-.1-.5-.1-.3 0-.5 0-.8.1-.2.1-.5.3-.6.5-.2.2-.3.5-.4.9-.3.3-.3.7-.3 1.2s0 .9.1 1.2c.1.3.2.6.3.8.1.2.3.4.5.4.3.2.5.3.7.3zm12.4.9l-2.1-4.2h-1.3v4.2h-1.3V35.3h1.9c1.2 0 2.2.2 2.7.7.6.5.9 1.2.9 2.2 0 .7-.1 1.3-.4 1.8-.3.5-.7.9-1.3 1.1l2.4 4.5H78zm-.5-7.4c0-.7-.2-1.1-.5-1.5-.4-.3-.9-.5-1.7-.5h-.6v4h.6c.8 0 1.4-.2 1.7-.6.3-.2.5-.7.5-1.4zm7.7 2.6v.8c0 .2 0 .4-.1.6h-3.6c0 .8.2 1.5.5 1.9.3.4.8.6 1.4.6.2 0 .4 0 .6-.1.2 0 .3-.1.4-.2.1-.1.2-.1.3-.2l.2-.2.4.9c-.1 0-.1.1-.2.2s-.2.2-.4.3c-.2.1-.4.2-.6.2-.2.1-.5.1-.9.1s-.8-.1-1.2-.2c-.4-.1-.7-.4-.9-.7-.3-.3-.5-.7-.6-1.2-.1-.5-.2-1.1-.2-1.7 0-.6.1-1.2.2-1.7s.3-.8.6-1.1c.2-.3.5-.5.9-.7.3-.1.7-.2 1.1-.2.7 0 1.2.2 1.6.6.3.5.5 1.1.5 2zM83 39.2c-.4 0-.8.2-1 .5-.3.4-.4.9-.4 1.6h2.6v-.5c0-.5-.1-.9-.3-1.2-.3-.3-.6-.4-.9-.4zm6.9.6l-.4-.4c-.2-.2-.5-.2-.8-.2-.3 0-.6.1-.7.2-.2.1-.3.3-.3.5 0 .3.1.5.2.7.2.2.4.4.7.6l.4.3c.5.3.9.6 1.1.9.3.3.4.8.4 1.3 0 .6-.2 1-.6 1.4-.4.4-1 .6-1.7.6-.3 0-.5 0-.8-.1-.2-.1-.4-.1-.6-.2-.2-.1-.3-.2-.4-.3l-.3-.3.6-1 .2.2c.1.1.2.2.3.2.1.1.2.1.4.2.1.1.3.1.5.1.4 0 .6-.1.8-.2.2-.2.3-.4.3-.6 0-.2 0-.3-.1-.4 0-.1-.1-.2-.2-.3l-.3-.3c-.1-.1-.3-.2-.4-.3l-.2-.2c-.4-.3-.8-.6-1-.9-.3-.3-.4-.7-.4-1.2 0-.3.1-.5.2-.7.1-.2.3-.4.4-.6.2-.2.4-.3.7-.4.3-.1.5-.1.8-.1.3 0 .5 0 .7.1.2.1.4.1.5.2.1.1.3.2.4.3l.2.2-.6.7zm6.7 1v.8c0 .2 0 .4-.1.6h-3.6c0 .8.2 1.5.5 1.9.3.4.8.6 1.4.6.2 0 .4 0 .6-.1.2 0 .3-.1.4-.2.1-.1.2-.1.3-.2l.2-.2.4.9c-.1 0-.1.1-.2.2s-.2.2-.4.3c-.2.1-.4.2-.6.2-.2.1-.5.1-.9.1s-.9-.1-1.2-.2c-.4-.1-.7-.4-.9-.7-.2-.3-.4-.7-.6-1.2-.1-.5-.2-1.1-.2-1.7 0-.6.1-1.2.2-1.7s.3-.8.6-1.1c.2-.3.5-.5.9-.7.3-.1.7-.2 1.1-.2.7 0 1.2.2 1.6.6.3.5.5 1.1.5 2zm-2.2-1.6c-.4 0-.8.2-1 .5-.3.4-.4.9-.4 1.6h2.6v-.5c0-.5-.1-.9-.3-1.2-.3-.3-.6-.4-.9-.4zm3.4 4.5c0-.4.1-.8.2-1 .2-.3.4-.5.6-.7.3-.2.6-.3.9-.4.4-.1.7-.1 1.2-.1h.4v-.7c0-.6-.1-1-.3-1.3-.2-.2-.5-.3-.9-.3s-.7.1-.9.2c-.2.2-.4.3-.6.4l-.4-.7.3-.3c.1-.1.3-.2.5-.3.2-.1.4-.2.6-.2.2-.1.5-.1.8-.1.7 0 1.3.2 1.7.6.4.4.6 1.1.6 2V45c0 .3 0 .5.1.6h-1.1v-.8c0 .1-.1.2-.2.3l-.3.3c-.1.1-.3.2-.4.2-.2.1-.4.1-.6.1-.3 0-.5 0-.8-.1-.2-.1-.4-.2-.6-.4-.2-.2-.3-.4-.4-.6-.3-.3-.4-.6-.4-.9zm2.2 1c.2 0 .3 0 .4-.1.1 0 .2-.1.3-.2.1-.1.2-.1.2-.2.1-.1.1-.2.2-.2v-1.6h-.4c-.6 0-1 .1-1.3.3-.3.2-.4.5-.4.9s.1.6.3.8c.1.2.4.3.7.3zm7.3-5.2s-.1 0-.2-.1h-.4c-.4 0-.7.1-.9.3-.2.2-.4.4-.5.7v5.3h-1.2v-7.2h1.1v1c0-.1.1-.3.2-.4.1-.1.2-.3.3-.4.1-.1.3-.2.4-.2.2-.1.4-.1.6-.1h.4c.1 0 .2.1.2.1v1zm5 .3l-.1-.1-.2-.2c-.1-.1-.2-.1-.4-.2-.1 0-.3-.1-.5-.1-.3 0-.5 0-.7.1-.2.1-.4.2-.6.5-.2.2-.3.5-.4.8-.1.3-.1.7-.1 1.2s0 1 .1 1.3c.1.4.2.6.4.9.1.2.3.4.5.5.2.1.4.1.7.1.4 0 .6-.1.8-.2.2-.1.3-.2.4-.3l.5.8-.2.2c-.1.1-.2.2-.4.2-.1.1-.3.1-.5.2s-.5.1-.7.1c-.4 0-.8-.1-1.1-.2-.4-.1-.7-.3-.9-.6-.3-.3-.5-.7-.6-1.2-.2-.5-.2-1.1-.2-1.8s.1-1.3.3-1.7c.2-.5.4-.9.7-1.2.3-.3.6-.5 1-.6.4-.1.7-.2 1.1-.2.3 0 .5 0 .7.1.2.1.4.1.5.2.1.1.3.2.4.2l.2.2-.7 1zm5.7 5.8V41c0-.6-.1-1-.3-1.3-.2-.3-.5-.4-.9-.4s-.7.1-.9.3c-.2.2-.4.4-.6.5v5.5h-1.2V35l1.2-.1v4.3c0-.1.1-.1.2-.2l.3-.3c.2-.1.3-.2.5-.3.2-.1.5-.1.8-.1.6 0 1.1.2 1.5.6.4.4.6 1.1.6 2v4.7H118zM25.4 14.2c1.3 2 2.3 2 3.8 2-1.3-1-2.1-2.2-2.5-2.8l-2.3-3.8c-.2-1.2-.8-2.2-1.7-3.1.3-.1.6-.2.7-.3-1.5 0-3-.8-3.9-.8-.5 0-.9.3-.9.7 0 .5.5 1 1.4 1 .2 0 .5 0 .7-.1.5.7.9 1.3.9 2.2 0 1.6-2 2.9-3.9 2.9h-.3c-.2-.4-.8-1.1-.8-1.9 0-1.3.8-2.4.8-3.7 0-.8-.4-1.3-.5-1.5.2-.2.5-.5.6-.7-.1.1-.3.1-.6.1-.9 0-1.7-.2-2.5-.2-.4 0-.5.1-.5.3v.1c-.2-.1-.3-.1-.5-.1s-.5-.1-.7-.1c-.9 0-1.2.4-1.2.7 0 .3.2.8.5 1.2.4-.2.8-.3 1-.3.5 0 .9.5 1.1 1h-.7c-.9 0-1.5-.3-1.6-.3 0 .1.3.5.8.6.7.2 1.6.3 1.8.4 0 0-.2.3-.4.4h-.1c-.8-.1-1-.1-1.8-.5 0 .3.9 1.1 1.7 1.4-.7.9-1.5 1.7-1.9 3.1h-.3c-2 0-3.9-1.3-3.9-2.9 0-.9.4-1.5.9-2.2.3 0 .5.1.7.1.9 0 1.4-.5 1.4-1 0-.4-.3-.7-.9-.7-.8 0-2.3.8-3.9.8.1.1.3.2.6.3-.9.8-1.5 1.9-1.7 3.1l-2.3 3.8c-.4.6-1.2 1.8-2.5 2.8 1.5 0 2.5 0 3.8-2l1.2-2c.1.3.2.5.3.7l-2.4 3.8c-.4.6-1.2 1.9-2.5 2.8 1.5 0 2.5 0 3.8-2l2.1-3.3.5.5-2.9 4.7c-.4.6-1.2 1.9-2.5 2.8 1.5 0 2.5 0 3.8-2L8 15.8l.6.3-3.4 5.5c-.4.6-1.2 1.9-2.5 2.8 1.5 0 2.5 0 3.8-2l3.5-5.7c.2.1.4.2.6.2l-4 6.4c-.4.6-1.2 1.9-2.5 2.8 1.5 0 2.5 0 3.8-2l4.3-6.9h.1c.1.4.2.7.2 1.1 0 2.2-1.4 4.1-3.1 5.5.1 0 .3.1.5.1h.7c-.4.9-1.2 2.1-1.7 2.6-.6-.1-1.4-.2-1.9-.2-.6 0-.6.3-.6.6 0 .5.2.9.5 1.1.1-.3.3-.6 1.3-.6h.1c-.3.3-1.2 1.1-1.2 1.7 0 .4.4 1 1 1v-.3c0-.5.4-1.1.8-1.5v.2c0 1.2.1 1.7.8 1.7.4 0 .6-.2.7-.3-.5-.4-.5-.8-.5-1.4v-1.1h.6s1.1-.1 1.3.5c.3-.3.7-.6.7-1 0-.3-.1-.6-.7-.6-.2 0-.8.1-1.4.1.1-.3.8-1.3 1.3-2 .1.3.2.6.5.8 0-.4.3-1.8 1-2.7.1.6.2 1.1.2 2.3 0 2.9-.7 5-2.2 5.5.2.3.6.6 1 .6.5 0 .8-.6 1.1-1.2.2.4.6 1.5 1 1.5s.9-1 1-1.5c.3.6.6 1.2 1.1 1.2.4 0 .8-.3 1-.6-1.5-.4-2.2-2.6-2.2-5.5 0-1.2.1-1.8.2-2.3.7.8.9 2.2 1 2.7.3-.2.4-.5.5-.8.6.7 1.2 1.6 1.3 2-.5 0-1.2-.1-1.4-.1-.5 0-.7.3-.7.6 0 .4.4.8.7 1 .3-.5 1.3-.5 1.3-.5h.6v1.1c0 .7 0 1-.5 1.4.1.1.3.3.7.3.7 0 .8-.5.8-1.7v-.2c.4.4.8 1 .8 1.5v.3c.6 0 1-.6 1-1 0-.6-.9-1.4-1.2-1.7h.1c1 0 1.2.3 1.3.6.3-.2.5-.6.5-1.1 0-.3-.1-.6-.6-.6s-1.3.1-1.9.2c-.4-.6-1.3-1.8-1.7-2.6h.7c.2 0 .4 0 .5-.1-1.7-1.5-3.1-3.4-3.1-5.5 0-.3.1-.7.2-1.1h.1l4.3 6.9c1.3 2 2.3 2 3.8 2-1.2-1-2.1-2.2-2.5-2.8l-4-6.4c.2-.1.4-.1.6-.2l3.5 5.7c1.3 2 2.3 2 3.8 2-1.3-1-2.1-2.2-2.5-2.8L20 16.1l.6-.3 2.8 4.5c1.3 2 2.3 2 3.8 2-1.3-1-2.1-2.2-2.5-2.8l-2.9-4.7.5-.5 2.1 3.3c1.3 2 2.3 2 3.8 2-1.3-1-2.1-2.2-2.5-2.8L23.9 13c.1-.2.2-.5.3-.7l1.2 1.9zM6.3 9.8c0-1.4 1-2.6 1.4-2.9.1 0 .2 0 .3.1-.5.4-1.1 1.2-1.1 2.3 0 2.1 2.2 3.9 4.8 3.9v1.5c-2.9-.1-5.4-2.4-5.4-4.9zm3.8 17.1h1.8c.2 0 .4 0 .4.3 0 .2-.2.4-.4.6-.3-.3-.7-.3-1.3-.3-.3 0-.6.1-.8.1v.1c0 .2.1.4.1.7v.6c0 .7.1 1.1.3 1.4H10c-.4 0-.5-.2-.5-1.4v-.8h-.1c-.6.5-1.3 1.3-1.3 2-.2-.1-.4-.4-.4-.6 0-.4.5-.9 1.1-1.5l.2-.6h-.1c-.1 0-.4-.1-.6-.1-.7 0-1.1.1-1.4.4-.1-.1-.2-.5-.2-.6 0-.1 0-.2.1-.3.2-.1.2-.1.3-.1.8 0 1.6.1 2 .2.1-.1 1.5-2 1.9-3 .1 0 .2-.1.3-.1.3 0 .4.2.4.5-.8 1.1-1.4 1.9-1.6 2.5zm7.8-3c.1 0 .2 0 .3.1.4 1 1.8 2.9 1.9 3 .4-.1 1.2-.2 2-.2.1 0 .2 0 .2.1 0 0 .1.1.1.3 0 .2-.1.5-.2.6-.3-.3-.7-.4-1.4-.4-.2 0-.4.1-.6.1H20l.4.4c.6.6 1.1 1.1 1.1 1.5 0 .2-.2.5-.4.6 0-.6-.7-1.5-1.3-2h-.1v.8c0 1.2-.1 1.4-.5 1.4H19c.2-.3.3-.7.3-1.4v-.6c0-.3 0-.5.1-.7v-.1h-.1c-.2 0-.6-.1-.8-.1-.6 0-1 .1-1.3.3-.2-.2-.4-.4-.4-.6 0-.3.2-.3.4-.3h.3c.3 0 .6.1 1.4.1-.2-.6-.8-1.4-1.7-2.5.3-.2.4-.4.7-.4zM14.5 7.2c-.1-.4-.3-.8-.5-1-.2-.3-.6-.6-1.1-.6-.2 0-.6.1-.8.2-.1-.2-.3-.6-.3-.7 0-.2.3-.4.9-.4 1.3 0 2.1.6 2.1 1.6 0 .3-.1.6-.3.9zm.6-1.3c0-.3-.2-.5-.3-.7 0-.3.1-.5.5-.3-.2.2 0 .6 0 .6s.4-.2.4-.5c.6.2.1 1.1-.6.9zm2.5 8.7c0-.3.1-.6.1-.9v-.6c2.5 0 4.7-1.8 4.7-3.9 0-1.1-.7-1.9-1.1-2.3.1 0 .2 0 .3-.1.4.3 1.4 1.5 1.4 2.9-.1 2.5-2.5 4.9-5.4 4.9z"/>
  <path fill="#f8d200" d="M39.3 55.6h1.9v25.1h-4.4V55.6z"/>
  <path fill="#e30613" d="M39.3 30.4h1.9v25.2h-4.4V30.4z"/>
  <path d="M41.2 5.4v25.1h-4.4V5.4z"/>
</svg>