<svg xmlns="http://www.w3.org/2000/svg" id="Layer_1" viewBox="0 0 633 279.7"><style>.st0{fill:#2C3E50;} .st1{fill:#566573;}</style><g id="g10"><g id="g12"><path id="path14" d="M70.36 194.947c-22.6-1.254-39.027-9.774-50.213-20.974-14.974-15-20.56-34.826-19.027-48.48 1.453-12.986 6.747-22.76 13.68-29.546 8.453-8.267 19.333-12.08 28.693-11.854 8.467.214 14.614 3.067 18.84 7.2 5.267 5.147 7.534 12.24 7.6 18.667.014.653-.013 1.28-.053 1.867-.373 4.933-2.44 8.56-5.2 10.96-2.76 2.4-6.187 3.573-9.28 3.613-.373 0-.72 0-1.04-.027-2.933-.213-5.653-1.146-7.587-2.8-1.773-1.506-2.88-3.6-2.88-6.266 0-.814.067-2.374.747-3.8.72-1.494 2.053-2.827 4.587-3l.106 1.44c-1.88.133-2.866 1.093-3.386 2.173-.547 1.16-.6 2.493-.6 3.187 0 2.213.906 3.933 2.36 5.173 1.693 1.44 4.12 2.253 6.76 2.453.32.027.626.027.933.027 2.773-.027 5.853-1.08 8.333-3.253 2.494-2.174 4.36-5.467 4.707-9.987.04-.573.067-1.16.053-1.747-.066-6.093-2.213-12.813-7.16-17.653-4-3.893-9.813-6.587-17.866-6.787-9.014-.226-19.507 3.454-27.654 11.44-6.706 6.574-11.84 16.054-13.253 28.68-1.493 13.307 3.973 32.64 18.613 47.307 10.96 10.973 27.067 19.32 49.267 20.547l-.08 1.44" class="st0"/><path id="path16" d="M.573 83.32l69.96 42.613-.386.64L.187 83.96l.386-.64" class="st0"/><path id="path18" d="M53.613 126.253h.76V109.68h-.76v16.573z" class="st0"/><path id="path20" d="M42.853 116.72H54v-.747H42.867l-.014.747z" class="st0"/><path id="path22" d="M49.453 116.347h.747v-6.667h-.747v6.667z" class="st0"/><path id="path24" d="M42.853 110.053h27.494v-.746H42.853v.746z" class="st0"/><path id="path26" d="M.373 126.627h69.974v-.747H.373v.747z" class="st0"/><path id="path28" d="M42.48 126.253h.76V83.64h-.76v42.613z" class="st0"/><path id="path30" d="M70.667 83.84L.693 195.4l-.64-.4L70.027 83.44l.64.4" class="st0"/><path id="path32" d="M0 83.267h70.72v112.32H0V83.267zm.76.746v110.814h69.213V84.013H.76" class="st0"/><path id="path34" d="M334.92 101.013c0-.266.027-.44.067-.506.04-.067.133-.107.28-.12.24 0 .413.32.533.933.107.507.2.907.307 1.213.466 1.267 1.173 2.254 2.12 2.947.946.693 2.04 1.04 3.293 1.04 1.427 0 2.56-.373 3.36-1.133.813-.747 1.213-1.8 1.213-3.147 0-.507-.066-.973-.213-1.4-.133-.427-.333-.827-.613-1.173-.654-.827-2.2-1.734-4.64-2.734-.414-.16-.72-.293-.92-.386-1.374-.574-2.427-1.36-3.174-2.36-.733-1-1.106-2.12-1.106-3.387 0-1.627.586-2.987 1.746-4.04 1.174-1.053 2.667-1.587 4.467-1.587 1.267 0 2.547.36 3.853 1.08.374.214.627.307.734.307.2 0 .36-.2.52-.587.146-.386.293-.586.453-.586.12 0 .227.066.293.2.08.12.12.293.12.493 0 .093-.013.36-.053.827-.027.453-.04.88-.04 1.253 0 .213.013.52.04.947.027.426.053.746.053.973 0 .373-.026.6-.066.707-.054.106-.134.16-.267.173-.24 0-.44-.267-.587-.8-.133-.467-.266-.853-.4-1.147-.466-1-1.08-1.773-1.853-2.293-.773-.533-1.667-.787-2.68-.787-1.2 0-2.16.32-2.867.974-.72.653-1.08 1.506-1.08 2.573 0 1.52 1.507 2.933 4.52 4.253.134.067.227.107.28.12 2.4 1.08 4.067 2.147 4.987 3.214.933 1.066 1.387 2.386 1.387 3.946 0 1.814-.707 3.307-2.134 4.507-1.426 1.187-3.213 1.787-5.373 1.787-1.56 0-3.12-.454-4.693-1.347-.4-.227-.654-.347-.747-.347-.147 0-.293.16-.467.48-.16.307-.306.48-.44.48-.106 0-.186-.04-.24-.106-.053-.067-.066-.187-.066-.334 0-.013.026-.28.08-.8.053-.52.08-1.04.08-1.56 0-.413-.014-.933-.054-1.546 0-.614-.013-1.014-.013-1.214zm32.933 2.214c0 .813.08 1.4.254 1.746.16.347.453.614.893.8.293.134.733.227 1.333.28h.12c.534.067.814.214.814.414 0 .106-.054.186-.174.24-.12.066-.266.093-.453.093-.04 0-.16 0-.373-.013-1.307-.094-2.654-.134-4.027-.134-1.373 0-2.72.054-4.053.134-.2.013-.32.013-.374.013-.186 0-.346-.027-.44-.093-.093-.054-.146-.147-.146-.24 0-.2.266-.347.813-.414h.12c.587-.053 1.04-.146 1.333-.28.427-.186.734-.453.894-.8.16-.346.24-.933.24-1.746v-15.84c0-.374-.107-.627-.32-.76-.214-.147-.707-.214-1.48-.214h-1.254c-1.733 0-2.933.094-3.626.28-.694.187-1.2.507-1.52.974-.254.373-.44.906-.534 1.6-.093.693-.226 1.04-.36 1.04-.106 0-.173-.04-.213-.107-.04-.067-.067-.213-.067-.427V86.24c0-.28.067-.467.187-.573.12-.094.36-.147.707-.147.08 0 .346 0 .8.013 3 .134 6.106.2 9.306.2 3.214 0 6.32-.066 9.334-.2.453-.013.706-.013.8-.013.346 0 .586.04.693.147.12.093.173.293.173.573v3.533c0 .24-.013.4-.053.454-.04.053-.093.08-.2.08-.147 0-.267-.347-.387-1.04-.12-.694-.306-1.227-.56-1.6-.306-.467-.8-.8-1.48-.974-.68-.186-2.133-.28-4.346-.28h-.534c-.8 0-1.293.067-1.493.2-.2.134-.293.387-.293.774l-.054 15.84zm19.44-7.067c0 3.12.707 5.653 2.107 7.56 1.4 1.907 3.24 2.867 5.493 2.867 2.307 0 4.147-.947 5.547-2.827 1.4-1.88 2.093-4.4 2.093-7.547 0-3.2-.68-5.706-2.053-7.56-1.36-1.853-3.213-2.773-5.547-2.773-2.28 0-4.133.947-5.546 2.827-1.387 1.88-2.094 4.36-2.094 7.453zm-3.866.147c0-1.467.28-2.84.826-4.147.547-1.307 1.347-2.48 2.414-3.547 1.12-1.093 2.4-1.946 3.84-2.52 1.426-.586 2.96-.866 4.586-.866 1.64 0 3.214.32 4.694.933 1.48.627 2.76 1.507 3.84 2.653.92.974 1.6 2.08 2.053 3.307.453 1.227.68 2.6.68 4.133 0 1.507-.28 2.96-.853 4.334-.574 1.373-1.374 2.546-2.414 3.52-1.026.973-2.266 1.733-3.72 2.306-1.44.56-2.92.84-4.413.84-1.587 0-3.08-.253-4.453-.773-1.387-.52-2.614-1.267-3.68-2.24-1.147-1.08-2-2.267-2.56-3.547-.56-1.293-.84-2.746-.84-4.386zm49.28 9.653c0 .12-.027.2-.08.253-.054.054-.147.08-.254.08-.16 0-.293-.2-.413-.586-.12-.387-.333-.587-.627-.587-.213 0-.546.147-1.013.427-.2.133-.347.226-.467.293-.84.453-1.72.8-2.64 1.053-.933.24-1.88.36-2.88.36-1.44 0-2.813-.24-4.133-.72-1.32-.493-2.44-1.16-3.387-2.026-1.053-.974-1.84-2.12-2.373-3.427-.533-1.307-.8-2.773-.8-4.36 0-1.24.16-2.427.48-3.533.32-1.107.787-2.16 1.413-3.147 1.014-1.547 2.32-2.72 3.907-3.547 1.6-.813 3.387-1.226 5.387-1.226 1.813 0 3.613.453 5.413 1.346.387.187.627.294.72.294.187 0 .347-.2.493-.6.147-.4.28-.6.414-.6.12 0 .213.053.266.146.054.107.094.28.12.534L432.4 91c0 .12.013.24.027.36v.053c0 .134-.027.24-.094.32-.053.08-.146.12-.24.12-.16 0-.293-.2-.4-.6-.093-.386-.2-.706-.306-.973-.587-1.493-1.414-2.6-2.454-3.32-1.053-.72-2.346-1.08-3.906-1.08-2.307 0-4.134.947-5.494 2.853-1.346 1.907-2.026 4.507-2.026 7.8 0 3.054.68 5.48 2.066 7.267 1.374 1.787 3.24 2.68 5.574 2.68 1.386 0 2.613-.36 3.666-1.08 1.067-.72 1.867-1.733 2.427-3.04.24-.573.48-1.213.693-1.907.214-.693.387-1.04.534-1.04.066 0 .133.027.173.094.053.053.067.133.067.213v6.24zm14.386-7.32v4.587c0 .813.067 1.4.214 1.733.146.347.426.613.826.8.147.08.32.133.507.173.187.054.413.08.68.094.027 0 .053 0 .08.013.507.067.76.2.76.4 0 .107-.053.187-.16.24-.107.067-.253.093-.44.093-.04 0-.16 0-.36-.013-1.227-.093-2.48-.133-3.747-.133-1.28 0-2.52.053-3.746.133-.2.013-.334.013-.374.013-.186 0-.32-.026-.413-.093-.093-.053-.147-.147-.147-.24 0-.187.254-.32.76-.4.04-.013.067-.013.08-.013.267-.027.494-.054.68-.094.187-.053.36-.106.534-.186.36-.174.626-.427.773-.76.147-.334.213-.92.213-1.774V89.08c0-.813-.066-1.387-.213-1.72-.147-.333-.413-.587-.787-.76-.16-.067-.333-.12-.52-.147-.186-.04-.413-.066-.68-.093-.026 0-.053 0-.093-.013-.507-.067-.747-.187-.747-.334 0-.093.054-.173.16-.226.107-.054.254-.08.44-.08.08 0 .24 0 .507.013 1.227.067 2.413.107 3.573.107 1.254 0 2.507-.04 3.76-.107.2-.013.334-.013.374-.013.186 0 .32.026.413.066.093.04.147.12.147.214 0 .146-.214.266-.627.346-.053.014-.093.027-.12.027-.147 0-.293.013-.467.04-.16.027-.36.067-.56.12-.466.133-.8.387-1 .76-.186.373-.293.973-.293 1.827V97.6c2.387-2.373 4.28-4.48 5.707-6.333 1.426-1.84 2.146-3.094 2.146-3.747 0-.32-.106-.587-.32-.773-.213-.187-.533-.307-.96-.36h-.12c-.026 0-.053-.014-.08-.027-.386-.027-.64-.053-.746-.12-.107-.053-.16-.147-.16-.267 0-.093.053-.16.146-.213.094-.053.24-.067.454-.067.24 0 .68.027 1.32.054.64.04 1.173.066 1.56.066.466 0 1.026-.026 1.666-.066.64-.04 1.04-.054 1.2-.054.2 0 .347.027.454.08.093.054.146.134.146.254s-.12.213-.36.293c-.04.013-.053.027-.08.027-.32 0-.613.053-.866.146-.254.094-.52.24-.774.454-.333.24-1.186 1.24-2.573 2.986-1.387 1.747-2.613 3.24-3.667 4.48l7.067 8.56c.04.04.107.12.2.227 1.413 1.667 2.44 2.6 3.067 2.8.093.027.253.067.466.093.347.067.52.174.52.32 0 .134-.04.227-.106.28-.067.054-.214.08-.4.08-1.187-.093-2.094-.146-2.694-.146-1.493 0-3.106.053-4.826.133-.48.027-.774.053-.907.053-.24 0-.413-.026-.52-.08-.12-.053-.173-.146-.187-.253 0-.187.28-.32.827-.387.187-.026.347-.04.467-.066.506-.067.853-.174 1.026-.307.174-.133.267-.333.267-.6 0-.36-.347-1.027-1.04-2.013-.693-.974-1.747-2.32-3.2-4.027l-2.013-2.373-2.094 1.933zm24.987-9.56c0-.813-.067-1.373-.213-1.72-.147-.333-.4-.587-.774-.76-.16-.067-.333-.12-.52-.147-.186-.04-.413-.066-.68-.093-.026 0-.053 0-.093-.013-.507-.067-.747-.187-.747-.334 0-.093.054-.173.147-.226.093-.054.24-.08.413-.08.067 0 .227 0 .507.013 1.24.067 2.453.107 3.6.107 1.253 0 2.507-.04 3.733-.107.2-.013.334-.013.374-.013.186 0 .32.026.413.08.093.053.147.12.147.2 0 .146-.214.266-.627.346-.053.014-.093.027-.12.027-.133 0-.28.013-.44.04-.16.027-.347.067-.56.12-.467.133-.8.387-1 .76-.187.373-.293.973-.293 1.813v6.28h11.346v-6.28c0-.813-.066-1.373-.213-1.72-.147-.333-.413-.586-.787-.76-.133-.066-.293-.12-.493-.146-.187-.04-.413-.067-.68-.094-.347-.053-.587-.106-.693-.146-.12-.054-.174-.134-.174-.227 0-.08.054-.147.147-.2.093-.053.24-.08.413-.08.04 0 .174 0 .374.013 1.24.067 2.48.107 3.746.107 1.147 0 2.36-.04 3.6-.107.28-.013.44-.013.507-.013.187 0 .32.027.413.08.107.053.147.133.147.227 0 .16-.253.266-.747.333-.04.013-.066.013-.093.013-.253.027-.48.054-.68.094-.187.04-.36.093-.52.146-.373.174-.627.427-.773.76-.147.334-.214.907-.214 1.72v14.147c0 .853.067 1.44.214 1.773.146.334.413.587.8.774.146.066.32.12.506.173.2.053.414.08.68.093.027 0 .054 0 .08.014.507.066.76.2.76.4 0 .12-.04.2-.146.253-.094.053-.24.08-.414.08-.04 0-.16 0-.36-.013-1.226-.094-2.48-.134-3.746-.134-1.267 0-2.52.054-3.747.134-.2.013-.333.013-.373.013-.187 0-.32-.027-.414-.093-.093-.054-.146-.147-.146-.24 0-.187.253-.32.76-.4.04-.014.066-.014.08-.014.266-.026.493-.053.693-.093.187-.053.36-.107.533-.187.374-.173.627-.426.774-.76.146-.333.213-.92.213-1.773v-6.893h-11.347v6.893c0 .813.08 1.4.227 1.733.147.347.413.614.8.787.187.093.387.173.587.213.213.054.413.08.626.08h.054c.506.067.76.214.76.414 0 .106-.054.186-.147.24-.093.066-.24.093-.413.093-.04 0-.16 0-.374-.013-1.226-.094-2.466-.134-3.733-.134-1.28 0-2.533.054-3.76.134-.2.013-.32.013-.36.013-.187 0-.32-.027-.413-.08-.094-.053-.147-.147-.147-.253 0-.2.253-.334.76-.4.027-.014.053-.014.08-.014.253-.026.48-.053.68-.093.2-.053.36-.107.507-.173.386-.187.653-.44.8-.774.146-.333.213-.92.213-1.773l-.04-14.16zm32.347 7.08c0 3.12.706 5.653 2.106 7.56s3.24 2.867 5.494 2.867c2.306 0 4.146-.947 5.56-2.827 1.4-1.88 2.093-4.4 2.093-7.547 0-3.2-.68-5.706-2.053-7.56-1.36-1.853-3.214-2.773-5.547-2.773-2.28 0-4.133.947-5.547 2.827-1.4 1.88-2.106 4.36-2.106 7.453zm-3.867.147c0-1.467.267-2.84.827-4.147.546-1.307 1.346-2.48 2.413-3.547 1.12-1.093 2.4-1.946 3.84-2.52 1.427-.586 2.96-.866 4.587-.866 1.64 0 3.213.32 4.693.933 1.493.627 2.76 1.507 3.84 2.653.92.974 1.6 2.08 2.053 3.307.454 1.227.68 2.6.68 4.133 0 1.507-.28 2.96-.853 4.334-.573 1.373-1.373 2.546-2.413 3.52-1.027.973-2.267 1.733-3.72 2.306-1.44.56-2.92.84-4.414.84-1.586 0-3.08-.253-4.453-.773-1.4-.52-2.613-1.267-3.68-2.24-1.147-1.08-2-2.267-2.56-3.547-.56-1.293-.84-2.746-.84-4.386zm36.56 5.84c0 1.506.32 2.506.947 3.013.64.507 1.96.76 3.96.76 1.48 0 2.666-.147 3.533-.453.867-.307 1.547-.774 2.013-1.44.294-.414.534-.974.694-1.68.16-.707.36-1.054.56-1.054.093 0 .16.027.186.08.04.054.054.214.054.48l-.067 4.2c0 .334-.04.534-.133.64-.08.094-.267.147-.534.147-.106 0-.44-.013-.973-.027-2.947-.146-5.88-.213-8.813-.213-2.387 0-4.627.053-6.734.173-.253.014-.413.014-.466.014-.187 0-.32-.027-.414-.08-.093-.054-.146-.147-.146-.254.013-.2.266-.333.76-.4.04-.013.066-.013.093-.013.253-.027.48-.053.667-.093.186-.054.36-.107.506-.174.374-.186.64-.44.787-.773.147-.333.213-.92.213-1.773V89.093c0-.813-.066-1.386-.213-1.72-.147-.333-.413-.586-.773-.76-.16-.066-.334-.12-.534-.146-.2-.04-.426-.067-.666-.094-.027 0-.054 0-.094-.013-.493-.067-.76-.173-.76-.333 0-.094.054-.174.147-.227.107-.053.24-.08.413-.08.067 0 .24 0 .52.013 1.24.067 2.454.107 3.6.107 1.254 0 2.494-.04 3.734-.107.2-.013.333-.013.386-.013.174 0 .307.027.4.067.107.04.16.12.16.213 0 .147-.213.267-.626.347-.054.013-.094.026-.12.026-.147 0-.307.014-.467.04-.16.027-.36.067-.573.12-.467.12-.787.374-.974.734-.186.36-.28.973-.28 1.84v13.04zm21.867.546V87.627c-.134-.32-.32-.56-.574-.734-.253-.173-.626-.32-1.12-.426-.133-.027-.266-.054-.373-.067-.12-.013-.227-.027-.333-.027h-.027c-.493-.066-.733-.213-.733-.413 0-.107.053-.187.186-.24.12-.067.28-.093.48-.093.2 0 .6.026 1.227.053.627.04 1.147.067 1.587.067.52 0 .933-.014 1.24-.027.306-.027.533-.053.693-.093h.293c.267 0 .467.04.6.146.147.107.294.334.44.707l6.534 15.387 6.72-15.64c.08-.214.186-.36.333-.454.147-.093.32-.133.533-.133.067 0 .16.013.28.04.12.027.187.04.227.053.067 0 .213 0 .413.014.2.013.374.013.494.013.48 0 1.093-.013 1.826-.053.734-.027 1.24-.04 1.52-.04s.48.026.587.066c.107.054.16.147.16.267 0 .16-.187.267-.56.36-.053.013-.107.027-.147.027-.36.026-.666.066-.906.146-.254.08-.48.187-.68.334-.32.226-.56.56-.72 1.026-.16.467-.254 1.04-.254 1.734v13.626c0 .8.08 1.387.214 1.734.146.346.4.613.773.813.147.067.307.133.493.173.187.054.4.08.627.094.04.013.093.026.147.026.413.08.626.214.626.387 0 .093-.053.187-.133.24-.093.067-.227.093-.4.093-.04 0-.147 0-.32-.013-1.173-.093-2.36-.133-3.573-.133-1.294 0-2.56.053-3.8.133-.2.013-.334.013-.374.013-.186 0-.32-.026-.413-.093-.107-.053-.147-.147-.147-.24.014-.213.267-.347.774-.4.04-.013.066-.013.066-.013.267-.027.494-.054.694-.094.186-.04.36-.106.533-.186.373-.187.64-.454.8-.787.147-.347.227-.933.227-1.747V88.707l-7.454 17.44c-.066.16-.133.28-.226.386-.08.094-.147.147-.2.147-.067 0-.134-.04-.2-.107-.08-.066-.134-.16-.187-.266l-7.467-17.747v14.2c0 .987.094 1.68.28 2.093.187.4.52.72.987.947.173.107.347.173.533.227.174.04.36.066.547.066.027 0 .067.014.12.027.347.08.507.213.507.387 0 .106-.054.186-.174.24-.12.066-.28.093-.506.093-.04 0-.147 0-.294-.013-.16-.014-.293-.014-.386-.014-.04 0-.28-.026-.707-.053-.44-.04-.813-.067-1.147-.067-.186 0-.44.014-.746.04-.307.027-.494.04-.56.054-.347.026-.6.053-.774.053h-.466c-.414 0-.707-.027-.88-.08-.174-.053-.267-.147-.267-.28 0-.107.04-.187.147-.24.093-.053.293-.107.6-.147.013 0 .04 0 .093-.013.48-.093.84-.2 1.067-.333.386-.227.653-.534.826-.947.094-.453.174-1.133.174-2.107" class="st0"/><path id="path36" d="M341.253 145.307c0 2.053.294 3.333.894 3.826.6.507 1.84.747 3.72.747 1.533 0 2.693-.147 3.48-.44.786-.293 1.386-.8 1.8-1.507.226-.386.4-.853.52-1.386.12-.534.28-.8.466-.8.134 0 .227.053.267.173.053.12.067.373.067.773 0 .32-.027.84-.067 1.547-.04.707-.053 1.253-.053 1.627 0 .413-.054.666-.174.76-.106.08-.4.12-.853.12-.093 0-.4 0-.893-.014-3.454-.093-7.04-.133-10.76-.133-1.28 0-2.534.053-3.76.133-.187.014-.307.014-.36.014-.187 0-.32-.027-.414-.08-.093-.054-.146-.147-.146-.254 0-.2.253-.333.76-.4.04-.013.053-.013.08-.013.253-.027.48-.053.68-.093.186-.054.36-.107.506-.174.387-.186.654-.44.8-.773.147-.333.214-.92.214-1.773v-14.134c0-.813-.067-1.386-.214-1.72-.146-.333-.413-.586-.773-.76-.16-.066-.333-.12-.52-.146-.2-.04-.413-.067-.68-.094-.027 0-.053 0-.093-.013-.507-.08-.76-.187-.76-.333 0-.094.053-.174.146-.227.094-.053.24-.08.414-.08.053 0 .2 0 .453.013 1.493.067 2.987.107 4.467.107.693 0 1.893-.013 3.613-.053 1.72-.027 3.093-.054 4.147-.054h.693c.84 0 1.373.054 1.573.147.2.107.307.307.307.6 0 .04-.013.24-.053.613-.027.374-.04.734-.04 1.08 0 .294.013.627.053.987s.067.573.067.64c0 .187-.027.32-.08.387-.054.08-.147.12-.267.12-.2 0-.347-.28-.44-.84-.08-.56-.227-1-.44-1.32-.387-.614-.96-1.04-1.733-1.294-.774-.253-2.12-.373-4.014-.373h-.24c-1.146 0-1.84.093-2.053.267-.213.173-.32.653-.32 1.44v7.2c1.44-.067 2.493-.214 3.133-.48.64-.254 1.134-.667 1.48-1.24.214-.347.374-.827.48-1.454.107-.626.254-.933.44-.933.12 0 .214.053.267.133.067.094.093.227.093.4 0 .134-.026.574-.08 1.32-.053.747-.066 1.427-.066 2.04 0 .854.026 1.72.093 2.6.067.88.093 1.347.093 1.387 0 .173-.026.307-.093.413-.053.094-.147.147-.24.147-.147 0-.267-.213-.373-.667-.094-.44-.214-.813-.347-1.12-.307-.653-.787-1.12-1.44-1.4-.653-.28-1.613-.426-2.88-.426h-.56l.013 5.24zm22.787 1.373c0 .96.107 1.653.293 2.08.2.427.534.773 1.027 1.027.147.066.293.12.48.16.173.04.36.066.547.093h.053c.387.067.587.2.587.387 0 .106-.054.186-.174.253-.12.053-.28.08-.493.08-.067 0-.227-.013-.48-.027-.867-.053-1.68-.093-2.44-.093-.347 0-.813.013-1.387.053-.573.027-.973.04-1.186.04-.24 0-.427-.026-.56-.093-.134-.067-.2-.147-.2-.24 0-.12.066-.2.2-.267.12-.066.306-.093.546-.093.054-.013.134-.027.254-.067.413-.093.733-.213.92-.32.4-.226.68-.533.826-.946.147-.4.227-1.094.227-2.067v-14.68c-.267-.413-.547-.747-.853-.973-.294-.24-.667-.414-1.107-.56-.12-.027-.307-.067-.547-.107-.04-.013-.066-.013-.093-.013-.013 0-.027 0-.067-.014-.44-.066-.653-.186-.653-.373 0-.107.067-.187.213-.227.134-.053.36-.08.654-.08.093 0 .386.027.906.054.507.04.974.066 1.387.066.093 0 .253 0 .467-.013.213-.013.373-.013.493-.013.053-.014.173-.027.373-.054.187-.026.347-.04.48-.04.2 0 .387.054.574.147.173.093.346.24.493.453l12.853 16.094v-12.894c0-1.16-.2-1.973-.613-2.466-.4-.494-1.08-.734-2.027-.734-.08 0-.16-.026-.226-.093-.067-.067-.107-.147-.107-.227 0-.093.053-.173.133-.226.094-.054.227-.08.387-.08.2 0 .653.026 1.387.08.733.053 1.373.066 1.906.066.307 0 .614 0 .894-.013.293-.013.6-.027.933-.053.027 0 .067 0 .12-.014.293-.026.493-.053.6-.053.173 0 .307.027.4.08.093.053.133.133.133.227 0 .146-.226.266-.68.373l-.053.013h-.053c-.494.094-.88.187-1.12.307-.4.213-.68.507-.827.88-.147.387-.227 1.027-.227 1.947v16.813c0 .387-.04.627-.12.76-.08.133-.213.2-.386.2-.16 0-.32-.053-.467-.147-.16-.106-.347-.306-.573-.6l-14.027-17.466v13.693zm37.4.667l3.107-7.6c.853-2.094 1.506-3.827 1.973-5.214.467-1.386.693-2.306.693-2.733 0-.373-.08-.667-.253-.907s-.413-.386-.733-.44c-.267-.053-.587-.12-.974-.16-.466-.08-.693-.173-.693-.306 0-.094.053-.16.147-.214.093-.053.213-.08.4-.08.053 0 .413.027 1.093.067.68.053 1.333.08 1.947.08.586 0 1.2-.027 1.84-.08.626-.053.973-.067 1.026-.067.174 0 .307.027.4.08.094.054.147.134.147.227 0 .147-.16.253-.493.347-.054.013-.094.026-.12.026-.2 0-.347 0-.44.027-.094.013-.187.04-.267.067-.427.16-.827.506-1.2 1.04-.373.533-.827 1.466-1.36 2.786l-5.32 13.214c-.533 1.386-.973 2.36-1.293 2.906-.32.534-.6.814-.84.814-.12 0-.28-.12-.44-.347-.174-.227-.32-.533-.467-.907l-5.96-15.706c-.067-.174-.173-.427-.293-.76-.68-1.8-1.32-2.8-1.947-2.96-.147-.04-.32-.08-.48-.12-.16-.04-.307-.054-.427-.067-.36-.067-.6-.12-.693-.173-.093-.054-.147-.134-.147-.24 0-.107.04-.187.134-.227.08-.053.226-.08.413-.08.04 0 .16.013.333.027 1.08.106 2.214.146 3.374.146 1.386 0 2.733-.053 4.04-.133.186-.013.306-.013.36-.013.16 0 .28.026.36.066.08.054.12.12.12.214-.014.2-.267.32-.747.373-.147.027-.267.04-.36.053-.507.054-.867.187-1.093.387-.227.187-.334.48-.334.84 0 .24.067.6.214 1.093.146.494.413 1.294.813 2.414l4.44 12.24zm23.813-.16c0 .8.08 1.373.254 1.733.173.36.466.627.866.8.187.08.4.147.627.2.227.04.48.08.773.093.027 0 .054 0 .067.014.507.066.773.2.773.4 0 .106-.053.186-.16.24-.106.066-.253.093-.44.093-.053 0-.186 0-.413-.013-1.333-.094-2.653-.134-3.973-.134-1.334 0-2.654.054-3.96.134-.227.013-.36.013-.414.013-.186 0-.346-.027-.466-.093-.107-.054-.16-.147-.16-.24 0-.2.266-.334.813-.414h.12c.587-.053 1.04-.146 1.333-.28.427-.2.734-.466.894-.813.16-.347.253-.933.253-1.733v-14.134c0-.786-.08-1.36-.227-1.693-.146-.347-.426-.613-.813-.787-.147-.066-.347-.12-.56-.146-.213-.04-.48-.067-.787-.094-.026 0-.053 0-.106-.013-.587-.08-.894-.187-.894-.333 0-.08.094-.16.294-.214.186-.066.4-.093.613-.093.067 0 .24 0 .507.013 1.24.067 2.426.107 3.586.107 1.24 0 2.494-.04 3.76-.107.2-.013.334-.013.387-.013.213 0 .413.027.587.08.173.053.266.12.266.2 0 .147-.253.267-.733.347-.067.013-.12.026-.16.026-.227 0-.44.014-.627.04-.186.027-.373.067-.546.12-.467.134-.8.387-1 .76-.187.374-.294.974-.294 1.827l-.04 14.107zm17.387-7.787c0 .373.053.613.16.707.107.106.307.16.627.16 2.253 0 3.853-.374 4.826-1.12.96-.76 1.44-2 1.44-3.734 0-1.786-.44-3.093-1.346-3.946-.894-.854-2.294-1.267-4.16-1.267-.587 0-1 .08-1.214.253-.213.174-.32.494-.32.974l-.013 7.973zm0 7.787c0 .853.08 1.44.227 1.773.146.333.413.587.786.773.16.08.32.134.52.174.187.04.414.08.667.093.027 0 .053 0 .093.013.494.067.747.2.76.4-.013.12-.066.2-.146.254-.094.053-.227.08-.414.08-.053 0-.173 0-.373-.014-1.227-.093-2.48-.133-3.747-.133-1.266 0-2.52.053-3.746.133-.2.014-.32.014-.374.014-.186 0-.32-.027-.413-.08-.093-.054-.147-.147-.147-.254.014-.2.267-.333.76-.4.04-.013.067-.013.094-.013.253-.027.48-.053.666-.093.187-.054.36-.107.534-.2.36-.174.626-.427.773-.76.147-.334.227-.92.227-1.774V133.04c0-.8-.067-1.373-.227-1.72-.147-.333-.413-.587-.787-.76-.16-.067-.333-.12-.52-.147-.186-.04-.413-.08-.653-.093-.027 0-.053 0-.093-.013-.494-.067-.76-.174-.76-.334 0-.093.053-.173.146-.226.107-.054.24-.08.414-.08h.266c.214.026.52.026.934.04.413.013.853.013 1.36.013.786 0 1.853-.027 3.186-.08 1.334-.053 2.267-.067 2.814-.067 2.693 0 4.666.44 5.92 1.294 1.253.866 1.88 2.213 1.88 4.066 0 1.56-.494 2.814-1.48 3.747-.987.933-2.44 1.52-4.36 1.773l6.826 7.987c.28.333.6.613.96.853s.827.48 1.427.707c.013 0 .027 0 .053.013.467.2.707.374.707.52 0 .067-.053.134-.147.2-.093.054-.213.08-.346.08-.054 0-.094 0-.134-.013-.026 0-.066-.013-.093-.027-.027 0-.093 0-.213-.013-.734-.08-1.414-.107-2.04-.107-.094 0-.2 0-.294.014-.106.013-.266.026-.453.053h-.72c-.413 0-.707-.04-.88-.107-.173-.066-.333-.2-.467-.4l-6.8-8.506c-.213-.267-.426-.454-.653-.56-.213-.107-.507-.16-.88-.16-.227 0-.373.053-.453.133-.08.093-.12.267-.12.52v5.547zm24.213-7.067c0 3.12.707 5.653 2.107 7.56 1.4 1.907 3.24 2.867 5.493 2.867 2.307 0 4.147-.947 5.547-2.827 1.4-1.88 2.093-4.4 2.093-7.547 0-3.186-.68-5.706-2.04-7.56-1.36-1.853-3.213-2.773-5.546-2.773-2.28 0-4.134.947-5.547 2.827-1.4 1.88-2.107 4.373-2.107 7.453zm-3.866.16c0-1.467.28-2.84.826-4.147.547-1.306 1.347-2.48 2.414-3.546 1.12-1.094 2.4-1.947 3.84-2.52 1.426-.587 2.96-.867 4.586-.867 1.64 0 3.2.32 4.694.933 1.48.627 2.76 1.507 3.84 2.654.92.973 1.6 2.08 2.053 3.306.453 1.227.68 2.6.68 4.134 0 1.506-.293 2.96-.853 4.333-.574 1.373-1.374 2.547-2.414 3.52-1.026.973-2.266 1.733-3.72 2.307-1.44.56-2.92.84-4.4.84-1.586 0-3.08-.254-4.453-.774-1.4-.52-2.613-1.266-3.68-2.24-1.147-1.08-2-2.266-2.56-3.546-.573-1.294-.853-2.747-.853-4.387zm34.493 6.4c0 .96.093 1.653.293 2.08.187.427.534.773 1.027 1.027.147.066.293.12.48.16.173.04.36.066.547.093h.053c.387.067.587.2.587.387 0 .106-.054.186-.174.253-.12.053-.28.08-.493.08-.067 0-.213-.013-.48-.027-.867-.053-1.68-.093-2.44-.093-.347 0-.813.013-1.387.053-.573.027-.973.04-1.186.04-.24 0-.427-.026-.56-.093-.134-.067-.2-.147-.2-.24 0-.12.066-.2.186-.267.12-.066.32-.093.56-.093.054-.013.134-.027.24-.067.414-.093.72-.213.92-.32.4-.226.68-.533.827-.946.147-.4.227-1.094.227-2.067v-14.68c-.267-.413-.547-.747-.854-.973-.293-.24-.666-.414-1.106-.56-.12-.027-.307-.067-.547-.107-.04-.013-.067-.013-.093-.013-.014 0-.027 0-.067-.014-.44-.066-.653-.186-.653-.373 0-.107.066-.187.213-.227.133-.053.36-.08.653-.08.094 0 .387.027.907.054.507.04.973.066 1.387.066.093 0 .253 0 .466-.013.214-.013.374-.013.494-.013.053-.014.173-.027.373-.054.187-.026.347-.04.48-.04.2 0 .387.054.573.147.174.093.347.24.494.453l12.853 16.094v-12.894c0-1.16-.2-1.973-.613-2.466-.414-.494-1.08-.734-2.027-.734-.08 0-.16-.026-.227-.093-.066-.067-.106-.147-.106-.227 0-.093.053-.173.133-.226.093-.054.227-.08.387-.08.2 0 .653.026 1.386.08.734.053 1.374.066 1.907.066.307 0 .613 0 .893-.013.294-.013.6-.027.934-.053.026 0 .066 0 .12-.014.293-.026.493-.053.6-.053.173 0 .306.027.4.08.093.053.133.133.133.227 0 .146-.227.266-.68.373l-.053.013h-.054c-.493.094-.88.187-1.12.307-.4.213-.68.507-.826.88-.147.387-.227 1.027-.227 1.947v16.813c0 .387-.04.627-.12.76-.08.133-.213.2-.387.2-.16 0-.32-.053-.466-.147-.16-.106-.347-.306-.574-.6l-14.026-17.466.013 13.693zm29.08-.027v-15.08c-.133-.32-.32-.56-.573-.733-.254-.173-.627-.32-1.12-.427-.134-.026-.267-.053-.374-.08-.12-.013-.226-.026-.333-.026h-.027c-.493-.08-.733-.214-.733-.414 0-.106.053-.186.187-.24.12-.066.28-.093.48-.093.186 0 .6.027 1.226.053.627.04 1.147.067 1.587.067.52 0 .933-.013 1.24-.027.307-.026.533-.053.693-.093h.294c.266 0 .466.053.6.147.146.093.293.333.44.706l6.533 15.387 6.72-15.64c.08-.213.187-.373.333-.467.147-.093.32-.133.534-.133.066 0 .16.013.266.04.12.027.187.04.227.053.067 0 .213 0 .413.014.2.013.374.013.494.013.48 0 1.093-.013 1.826-.053.734-.027 1.24-.04 1.52-.04s.48.026.587.08c.107.053.16.146.16.266 0 .16-.187.267-.56.36-.053.014-.093.027-.147.027-.36.027-.666.067-.906.147-.254.066-.48.186-.68.333-.32.227-.56.56-.72 1.027-.16.466-.254 1.04-.254 1.733v13.627c0 .8.067 1.386.214 1.733.146.347.4.613.773.813.147.067.307.134.493.174.187.04.4.08.627.093.04.013.093.013.16.027.413.08.627.213.627.386 0 .094-.054.187-.134.24-.093.067-.226.094-.4.094-.04 0-.146 0-.32-.014-1.173-.093-2.373-.133-3.573-.133-1.293 0-2.56.053-3.8.133-.2.014-.333.014-.373.014-.187 0-.32-.027-.414-.094-.093-.053-.146-.146-.146-.24.013-.213.266-.346.773-.4.04-.013.067-.013.067-.013.266-.027.493-.053.68-.093.186-.04.36-.107.533-.187.373-.187.64-.453.8-.787.147-.346.227-.92.227-1.746V132.64l-7.454 17.44c-.066.16-.133.28-.226.387-.08.093-.16.146-.2.146-.067 0-.134-.04-.2-.106-.067-.067-.134-.16-.187-.267l-7.467-17.747v14.2c0 .987.094 1.68.28 2.094.187.4.52.72.987.946.173.107.347.174.533.227.174.053.36.067.547.067.027 0 .067.013.12.026.347.08.507.214.507.387 0 .107-.054.187-.174.24-.12.067-.28.093-.506.093-.04 0-.147 0-.294-.013-.16-.013-.293-.013-.386-.013-.04 0-.28-.027-.707-.054-.44-.04-.813-.066-1.147-.066-.186 0-.44.013-.746.04-.32.026-.494.04-.56.053-.347.027-.6.053-.774.053h-.466c-.414 0-.707-.026-.88-.08-.174-.053-.267-.146-.267-.28 0-.106.053-.186.147-.24.093-.053.293-.106.6-.146.013 0 .04 0 .093-.014.48-.093.84-.2 1.067-.333.386-.227.653-.533.826-.947.107-.413.187-1.106.187-2.08zm36.907-1.346c0 2.053.293 3.333.893 3.826.6.507 1.84.747 3.72.747 1.533 0 2.693-.147 3.48-.44.787-.293 1.387-.8 1.8-1.507.227-.386.4-.853.52-1.386.12-.534.28-.8.467-.8.133 0 .226.053.266.173.054.12.067.373.067.773 0 .32-.027.84-.067 1.547-.04.707-.053 1.253-.053 1.627 0 .413-.053.666-.173.76-.107.08-.4.12-.854.12-.093 0-.4 0-.893-.014-3.453-.093-7.04-.133-10.76-.133-1.28 0-2.533.053-3.76.133-.187.014-.307.014-.36.014-.187 0-.32-.027-.413-.08-.094-.054-.147-.147-.147-.254 0-.2.253-.333.76-.4.027-.013.053-.013.08-.013.253-.027.48-.053.68-.093.187-.054.36-.107.507-.174.386-.186.653-.44.8-.773.146-.333.213-.92.213-1.773v-14.134c0-.813-.08-1.386-.227-1.72-.146-.333-.4-.586-.773-.76-.16-.066-.333-.12-.52-.146-.187-.04-.413-.067-.68-.094-.027 0-.053 0-.093-.013-.507-.08-.76-.187-.76-.333 0-.094.053-.174.146-.227.094-.053.24-.08.414-.08.053 0 .2 0 .466.013 1.494.067 2.987.107 4.467.107.693 0 1.893-.013 3.613-.053 1.72-.027 3.094-.054 4.134-.054h.693c.84 0 1.373.054 1.587.147.2.107.306.307.306.6 0 .04-.013.24-.053.613-.027.374-.04.734-.04 1.08 0 .294.013.627.053.987s.067.573.067.64c0 .187-.027.32-.08.387-.053.08-.147.12-.267.12-.2 0-.346-.28-.44-.84-.08-.56-.226-1-.44-1.32-.386-.614-.96-1.04-1.733-1.294-.773-.253-2.12-.373-4.013-.373h-.24c-1.147 0-1.84.093-2.054.267-.213.173-.306.653-.306 1.44v7.2c1.44-.067 2.48-.214 3.133-.48.64-.254 1.133-.667 1.493-1.24.214-.347.374-.827.48-1.454.107-.626.254-.933.44-.933.12 0 .214.053.267.133.067.094.093.227.093.4 0 .134-.026.574-.08 1.32-.053.747-.066 1.427-.066 2.04 0 .854.026 1.72.093 2.6.067.88.093 1.347.093 1.387 0 .173-.04.307-.093.413-.053.094-.147.147-.24.147-.147 0-.267-.213-.373-.667-.094-.44-.214-.813-.347-1.12-.307-.653-.787-1.12-1.44-1.4-.653-.28-1.613-.426-2.88-.426h-.56l-.013 5.24" class="st0"/><path id="path38" d="M586.24 146.68c0 .96.093 1.653.293 2.08.187.427.534.773 1.027 1.027.147.066.293.12.48.16.173.04.36.066.547.093h.053c.387.067.587.2.587.387 0 .106-.054.186-.174.253-.12.053-.28.08-.493.08-.067 0-.213-.013-.48-.027-.867-.053-1.68-.093-2.44-.093-.347 0-.813.013-1.387.053-.573.027-.973.04-1.2.04-.24 0-.426-.026-.56-.093-.133-.067-.2-.147-.2-.24 0-.12.067-.2.187-.267.12-.066.32-.093.56-.093.053-.013.133-.027.253-.067.414-.093.72-.213.92-.32.4-.226.68-.533.827-.946.147-.4.227-1.094.227-2.067v-14.68c-.267-.413-.547-.747-.854-.973-.293-.24-.666-.414-1.106-.56-.12-.027-.307-.067-.547-.107-.04-.013-.067-.013-.093-.013-.014 0-.027 0-.067-.014-.44-.066-.653-.186-.653-.373 0-.107.066-.187.213-.227.133-.053.36-.08.653-.08.094 0 .4.027.894.054.506.04.973.066 1.386.066.094 0 .254 0 .467-.013.213-.013.373-.013.493-.013.054-.014.174-.027.374-.054.186-.026.346-.04.48-.04.2 0 .4.054.573.147.173.093.347.24.493.453l12.867 16.094v-12.894c0-1.16-.2-1.973-.613-2.466-.414-.494-1.08-.734-2.027-.734-.08 0-.16-.026-.227-.093-.066-.067-.106-.147-.106-.227 0-.093.04-.173.133-.226.093-.054.227-.08.387-.08.186 0 .653.026 1.386.08.734.053 1.374.066 1.907.066.307 0 .613 0 .893-.013.294-.013.6-.027.934-.053.026 0 .066 0 .12-.014.293-.026.493-.053.6-.053.173 0 .306.027.4.08.093.053.133.133.133.227 0 .146-.227.266-.68.373l-.053.013h-.054c-.493.094-.88.187-1.12.307-.4.213-.666.507-.826.88-.147.387-.227 1.027-.227 1.947v16.813c0 .387-.04.627-.12.76-.08.133-.213.2-.4.2-.16 0-.32-.053-.467-.147-.146-.106-.333-.306-.573-.6l-14.027-17.466.027 13.693zm37.4.507c0 .813.08 1.4.253 1.746.16.347.454.614.894.8.293.134.733.227 1.333.28h.12c.533.067.813.214.813.414 0 .106-.053.186-.16.24-.12.066-.266.093-.466.093-.04 0-.16 0-.374-.013-1.306-.094-2.653-.134-4.026-.134-1.374 0-2.72.054-4.054.134-.2.013-.32.013-.373.013-.187 0-.347-.027-.44-.093-.107-.054-.147-.147-.147-.24 0-.2.267-.334.814-.414h.12c.586-.053 1.04-.146 1.333-.28.427-.186.733-.453.893-.8.16-.346.254-.933.254-1.746v-15.84c0-.374-.107-.627-.32-.76-.214-.147-.707-.214-1.48-.214h-1.254c-1.733 0-2.933.094-3.626.28-.694.187-1.2.507-1.52.974-.254.373-.427.906-.534 1.6-.106.693-.226 1.04-.36 1.04-.106 0-.173-.04-.213-.107-.04-.067-.067-.213-.067-.427V130.2c0-.28.067-.467.187-.573.12-.094.36-.147.707-.147.08 0 .346 0 .8.013 3 .134 6.106.2 9.306.2 3.214 0 6.32-.066 9.32-.2.454-.013.72-.013.8-.013.347 0 .587.04.694.147.12.093.173.293.173.573v3.533c0 .24-.013.4-.053.454-.04.053-.094.08-.187.08-.147 0-.267-.347-.387-1.04-.12-.694-.306-1.227-.56-1.6-.306-.467-.8-.8-1.48-.974-.68-.186-2.133-.28-4.346-.28h-.534c-.8 0-1.293.067-1.493.2-.2.134-.293.387-.293.774l-.067 15.84zM341.733 191.16c0 .8.08 1.373.254 1.733.173.36.466.627.866.8.2.08.4.147.627.2.227.054.48.08.773.094.027 0 .054 0 .067.013.507.08.773.2.773.4 0 .107-.053.187-.16.24-.106.067-.253.093-.44.093-.053 0-.186 0-.413-.013-1.333-.093-2.653-.133-3.973-.133-1.334 0-2.64.053-3.96.133-.227.013-.36.013-.414.013-.186 0-.346-.026-.466-.093-.107-.053-.174-.147-.174-.24 0-.2.28-.333.814-.413h.12c.586-.054 1.04-.147 1.333-.28.427-.2.733-.467.893-.814.16-.346.24-.92.24-1.733v-14.133c0-.787-.08-1.36-.226-1.694-.147-.346-.427-.613-.814-.786-.146-.067-.333-.12-.56-.147-.226-.04-.48-.08-.786-.093-.027 0-.054 0-.107-.014-.587-.066-.893-.186-.893-.333 0-.08.106-.16.293-.213.2-.067.4-.094.613-.094.067 0 .24 0 .507.014 1.24.066 2.427.106 3.587.106 1.24 0 2.493-.04 3.76-.106.2-.014.333-.014.386-.014.214 0 .4.027.587.08.173.054.267.12.267.2 0 .147-.24.267-.734.347-.066.013-.133.013-.173.027-.227 0-.427.013-.627.04-.186.026-.373.066-.546.12-.467.133-.8.386-1 .76-.187.373-.294.973-.294 1.826v14.107zm15.387-.507c0 .96.107 1.654.293 2.08.187.427.534.774 1.027 1.027.147.067.293.12.48.16.173.04.36.067.547.093h.053c.387.067.587.2.587.387 0 .107-.054.187-.174.253-.12.054-.28.08-.493.08-.067 0-.227-.013-.48-.026-.867-.054-1.68-.094-2.427-.094-.346 0-.813.014-1.386.054-.574.026-.974.04-1.187.04-.24 0-.427-.027-.56-.094-.133-.066-.2-.146-.2-.24 0-.12.067-.2.2-.266.12-.067.307-.094.56-.094.053-.013.133-.026.253-.066.414-.094.734-.214.92-.32.4-.227.68-.534.827-.947.16-.4.227-1.093.227-2.067v-14.68c-.267-.413-.547-.746-.854-.973-.293-.24-.666-.413-1.106-.56-.12-.027-.307-.067-.547-.107-.04-.013-.067-.013-.093-.013-.014 0-.027 0-.067-.013-.44-.067-.667-.187-.667-.36 0-.107.067-.187.214-.227.133-.053.36-.08.653-.08.093 0 .387.027.893.053.507.04.974.067 1.387.067.093 0 .253 0 .467-.013.213-.014.373-.014.493-.014.053-.013.173-.026.36-.053.2-.027.347-.04.48-.04.2 0 .387.053.573.147.174.093.347.24.494.453l12.866 16.093V177.4c0-1.16-.2-1.973-.613-2.467-.4-.493-1.08-.733-2.027-.733-.08 0-.16-.027-.226-.107-.067-.066-.107-.146-.107-.213 0-.093.053-.173.133-.227.094-.053.214-.08.387-.08.187 0 .653.027 1.387.08.733.054 1.373.067 1.906.067.307 0 .614 0 .894-.013.293-.014.6-.027.933-.054.027 0 .067 0 .12-.013.293-.027.48-.053.6-.053.173 0 .307.026.4.08.093.053.133.133.133.226 0 .147-.226.267-.68.36l-.053.014h-.053c-.494.093-.867.186-1.12.306-.4.214-.68.507-.827.88-.147.387-.227 1.027-.227 1.947v16.813c0 .387-.04.64-.12.76-.08.134-.213.2-.386.2-.16 0-.32-.053-.467-.146-.147-.107-.347-.307-.573-.6L357.12 176.96v13.693zm26.04-1.706c0-.267.027-.44.067-.507.04-.067.133-.107.28-.12.24 0 .413.307.533.933.107.507.2.907.307 1.214.466 1.266 1.173 2.253 2.12 2.946.946.694 2.04 1.04 3.293 1.04 1.427 0 2.56-.373 3.36-1.133.813-.76 1.213-1.8 1.213-3.147 0-.506-.066-.973-.213-1.4-.133-.426-.333-.826-.613-1.173-.654-.827-2.2-1.72-4.64-2.733-.414-.16-.72-.294-.92-.387-1.374-.573-2.427-1.36-3.174-2.36-.733-1-1.106-2.12-1.106-3.387 0-1.626.586-2.986 1.76-4.04 1.173-1.053 2.666-1.586 4.466-1.586 1.267 0 2.547.36 3.854 1.066.373.214.626.307.733.307.2 0 .36-.2.52-.587.147-.386.293-.586.453-.586.12 0 .227.066.294.186.08.12.12.294.12.494 0 .093-.014.373-.054.826-.026.467-.04.88-.04 1.254 0 .213.014.52.04.946s.054.76.054.974c0 .36-.027.6-.067.706-.053.107-.133.16-.267.174-.253 0-.44-.267-.586-.8-.134-.467-.267-.854-.4-1.147-.454-1-1.08-1.773-1.854-2.293-.773-.534-1.666-.787-2.68-.787-1.2 0-2.16.32-2.866.973-.72.654-1.08 1.507-1.08 2.574 0 1.506 1.506 2.933 4.52 4.266.133.067.226.094.28.12 2.4 1.067 4.066 2.147 4.986 3.214.934 1.066 1.387 2.386 1.387 3.946 0 1.814-.72 3.307-2.133 4.507-1.427 1.187-3.214 1.787-5.374 1.787-1.56 0-3.12-.454-4.693-1.347-.4-.227-.653-.347-.747-.347-.146 0-.293.16-.466.48-.16.32-.307.48-.44.48-.107 0-.187-.04-.24-.106-.054-.067-.067-.187-.067-.334 0-.013.027-.28.08-.8.053-.52.08-1.04.08-1.56 0-.413-.013-.933-.053-1.546 0-.6-.027-1-.027-1.2zm32.933 2.213c0 .813.08 1.4.254 1.747.16.346.453.613.893.8.293.133.733.226 1.333.28h.12c.534.08.814.213.814.413 0 .107-.054.187-.174.24-.12.067-.266.093-.453.093-.04 0-.16 0-.373-.013-1.307-.093-2.654-.133-4.027-.133-1.373 0-2.72.053-4.053.133-.2.013-.32.013-.374.013-.186 0-.333-.026-.44-.093-.093-.053-.146-.147-.146-.24 0-.2.266-.333.813-.413h.12c.587-.054 1.04-.147 1.333-.28.427-.187.72-.454.894-.8.16-.347.24-.934.24-1.747v-15.84c0-.373-.107-.627-.32-.76-.214-.147-.707-.213-1.48-.213h-1.254c-1.733 0-2.933.093-3.626.28-.694.186-1.2.52-1.52.973-.254.373-.44.907-.534 1.6-.093.693-.226 1.04-.36 1.04-.106 0-.173-.04-.213-.107-.04-.066-.067-.213-.067-.426v-3.534c0-.28.067-.466.187-.573.12-.107.36-.147.707-.147.08 0 .346 0 .8.014 3 .133 6.106.2 9.306.2 3.214 0 6.32-.067 9.334-.2.453-.014.706-.014.8-.014.346 0 .586.054.693.147.12.093.173.293.173.573v3.534c0 .24-.013.4-.053.453-.04.053-.093.08-.187.08-.146 0-.28-.347-.386-1.04-.12-.693-.307-1.227-.56-1.6-.307-.467-.8-.8-1.48-.973-.68-.187-2.134-.28-4.347-.28h-.533c-.8 0-1.294.066-1.494.2-.2.133-.293.386-.293.773l-.067 15.84zm22.614 0c0 .8.08 1.373.253 1.733.173.36.453.627.867.8.186.08.4.147.626.2.227.054.48.08.774.094.026 0 .053 0 .066.013.507.08.774.2.774.4 0 .107-.054.187-.16.24-.107.067-.254.093-.44.093-.054 0-.187 0-.414-.013-1.333-.093-2.653-.133-3.973-.133-1.333 0-2.653.053-3.96.133-.227.013-.36.013-.413.013-.2 0-.347-.026-.467-.093-.107-.053-.173-.147-.173-.24 0-.2.266-.333.813-.413h.12c.587-.054 1.04-.147 1.333-.28.427-.2.734-.467.894-.814.16-.346.24-.92.24-1.733v-14.133c0-.787-.08-1.36-.227-1.694-.147-.346-.427-.613-.813-.786-.147-.067-.334-.12-.56-.147-.214-.04-.48-.08-.787-.093-.027 0-.053 0-.107-.014-.586-.066-.893-.186-.893-.333 0-.08.093-.16.293-.213.187-.067.4-.094.614-.094.066 0 .24 0 .506.014 1.24.066 2.427.106 3.587.106 1.24 0 2.493-.04 3.76-.106.2-.014.333-.014.387-.014.213 0 .413.027.586.08.174.054.267.12.267.2 0 .147-.24.267-.733.347-.067.013-.134.013-.174.027-.226 0-.44.013-.626.04-.187.026-.374.066-.547.12-.467.133-.8.386-1 .76-.2.373-.293.973-.293 1.826v14.107zm22.64 0c0 .813.08 1.4.253 1.747.16.346.453.613.893.8.294.133.734.226 1.334.28h.12c.533.08.813.213.813.413 0 .107-.053.187-.16.24-.12.067-.267.093-.467.093-.04 0-.16 0-.373-.013-1.307-.093-2.653-.133-4.027-.133-1.373 0-2.72.053-4.053.133-.2.013-.32.013-.373.013-.187 0-.347-.026-.44-.093-.107-.053-.16-.147-.16-.24 0-.2.28-.333.813-.413h.12c.587-.054 1.04-.147 1.333-.28.427-.187.734-.454.894-.8.16-.347.253-.934.253-1.747v-15.84c0-.373-.107-.627-.32-.76-.213-.147-.707-.213-1.48-.213h-1.253c-1.734 0-2.934.093-3.627.28-.693.186-1.2.52-1.52.973-.253.373-.44.907-.533 1.6-.094.693-.227 1.04-.374 1.04-.106 0-.173-.04-.213-.107-.04-.066-.067-.213-.067-.426v-3.534c0-.28.067-.466.187-.573.12-.107.36-.147.707-.147.08 0 .346 0 .8.014 3 .133 6.106.2 9.306.2 3.214 0 6.32-.067 9.32-.2.454-.014.72-.014.8-.014.347 0 .587.054.694.147.12.093.173.293.173.573v3.534c0 .24-.013.4-.053.453-.04.053-.107.08-.2.08-.147 0-.267-.347-.387-1.04-.12-.693-.307-1.227-.56-1.6-.307-.467-.8-.8-1.48-.973-.68-.187-2.133-.28-4.347-.28h-.533c-.8 0-1.293.066-1.493.2-.2.133-.294.386-.294.773l-.026 15.84zm18.866-14.147c0-.786-.08-1.36-.226-1.693-.147-.347-.414-.613-.8-.787-.16-.066-.334-.12-.52-.146-.187-.04-.414-.08-.68-.094-.014 0-.054 0-.094-.013-.506-.067-.746-.173-.746-.333 0-.094.053-.174.146-.227.107-.053.254-.08.44-.08.067 0 .227 0 .507.013 1.227.067 2.413.107 3.573.107 1.254 0 2.507-.04 3.76-.107.214-.013.347-.013.387-.013.173 0 .307.027.4.067.093.053.133.12.133.213 0 .147-.213.267-.626.347-.054.013-.094.013-.12.026-.134 0-.28.014-.44.04-.16.027-.347.067-.56.12-.467.134-.8.387-1 .76-.187.374-.294.974-.294 1.827v11.027c0 2.08.467 3.6 1.4 4.573.934.973 2.387 1.453 4.36 1.453 2.32 0 4.027-.586 5.134-1.746 1.093-1.174 1.653-2.987 1.653-5.48v-9.827c0-.787-.08-1.36-.227-1.693-.146-.347-.413-.614-.8-.787-.16-.067-.333-.12-.52-.147-.186-.04-.413-.08-.68-.093-.026 0-.053 0-.093-.013-.507-.067-.747-.187-.747-.334 0-.093.054-.173.16-.226.107-.054.254-.08.427-.08.16 0 .573.026 1.267.053.68.04 1.293.067 1.8.067.493 0 1.053-.027 1.666-.067.614-.04.987-.053 1.12-.053.174 0 .307.026.4.066.094.054.147.12.147.214 0 .146-.213.266-.627.346-.053.014-.093.014-.12.027-.146 0-.293.013-.466.04-.16.027-.36.067-.56.12-.467.12-.8.373-.974.733-.186.36-.28.974-.28 1.84v9.04c0 3.307-.653 5.667-1.986 7.054-1.32 1.386-3.547 2.093-6.654 2.093-2.68 0-4.693-.56-6.026-1.68-1.334-1.12-2-2.8-2-5.04l-.014-11.507zm38.48 14.147c0 .813.08 1.4.254 1.747.16.346.466.613.893.8.293.133.733.226 1.333.28h.12c.534.08.814.213.814.413 0 .107-.054.187-.174.24-.12.067-.266.093-.466.093-.04 0-.16 0-.374-.013-1.306-.093-2.653-.133-4.026-.133-1.374 0-2.72.053-4.054.133-.2.013-.32.013-.373.013-.187 0-.333-.026-.44-.093-.093-.053-.16-.147-.16-.24 0-.2.28-.333.813-.413h.12c.587-.054 1.04-.147 1.334-.28.426-.187.733-.454.893-.8.16-.347.24-.934.24-1.747v-15.84c0-.373-.107-.627-.32-.76-.213-.147-.707-.213-1.48-.213h-1.253c-1.734 0-2.934.093-3.627.28-.693.186-1.2.52-1.52.973-.253.373-.427.907-.533 1.6-.094.693-.227 1.04-.374 1.04-.106 0-.173-.04-.213-.107-.04-.066-.067-.213-.067-.426v-3.534c0-.28.067-.466.187-.573.12-.107.36-.147.72-.147.08 0 .347 0 .8.014 3 .133 6.107.2 9.307.2 3.213 0 6.32-.067 9.333-.2.453-.014.707-.014.8-.014.347 0 .587.054.693.147.12.093.174.293.174.573v3.534c0 .24-.014.4-.054.453-.04.053-.093.08-.186.08-.147 0-.28-.347-.387-1.04-.12-.693-.307-1.227-.56-1.6-.307-.467-.8-.8-1.48-.973-.68-.187-2.133-.28-4.347-.28h-.533c-.8 0-1.293.066-1.493.2-.2.133-.294.386-.294.773l-.04 15.84" class="st0"/><path id="path40" d="M540.827 189.267c0 2.053.293 3.333.893 3.826.6.507 1.84.747 3.72.747 1.533 0 2.693-.147 3.48-.44.787-.293 1.387-.8 1.8-1.507.227-.386.4-.853.52-1.386.12-.534.28-.8.467-.8.133 0 .226.053.266.173.054.12.067.373.067.773 0 .32-.027.84-.067 1.547-.04.707-.053 1.253-.053 1.627 0 .413-.053.666-.173.76-.107.08-.4.12-.854.12-.093 0-.4 0-.893-.014-3.453-.093-7.04-.133-10.76-.133-1.28 0-2.533.053-3.76.133-.2.014-.32.014-.36.014-.187 0-.32-.027-.413-.08-.094-.054-.147-.147-.147-.254 0-.2.253-.333.76-.4.027-.013.053-.013.08-.013.253-.027.48-.053.68-.093.187-.054.36-.107.507-.174.386-.186.653-.44.8-.773.146-.333.213-.92.213-1.773v-14.134c0-.813-.067-1.386-.213-1.72-.147-.333-.414-.586-.774-.76-.16-.066-.333-.12-.52-.146-.2-.04-.413-.08-.68-.094-.026 0-.053 0-.093-.013-.507-.067-.76-.187-.76-.333 0-.094.053-.174.147-.227.093-.053.24-.08.413-.08.053 0 .2 0 .467.013 1.493.08 2.986.107 4.466.107.694 0 1.894-.013 3.614-.053 1.72-.027 3.093-.054 4.133-.054h.693c.854 0 1.374.054 1.587.147.2.107.307.307.307.6 0 .04-.014.24-.054.613-.026.374-.04.734-.04 1.08 0 .294.014.627.054.987s.066.573.066.64c0 .187-.026.307-.08.387-.053.08-.146.12-.266.12-.2 0-.347-.28-.44-.84-.08-.56-.227-1-.44-1.32-.387-.614-.96-1.04-1.734-1.294-.773-.253-2.12-.373-4.013-.373h-.24c-1.147 0-1.84.093-2.053.267-.214.173-.32.653-.32 1.44v7.2c1.44-.067 2.48-.227 3.133-.48.64-.254 1.133-.667 1.493-1.24.214-.347.374-.827.48-1.454.107-.626.254-.933.44-.933.12 0 .214.053.267.133.067.094.093.227.093.4 0 .134-.026.574-.08 1.32-.053.747-.08 1.427-.08 2.04 0 .854.027 1.72.094 2.6.066.88.093 1.347.093 1.387 0 .173-.027.307-.093.413-.054.107-.147.147-.24.147-.147 0-.267-.213-.374-.667-.093-.44-.213-.813-.346-1.12-.307-.653-.787-1.12-1.44-1.4-.654-.28-1.614-.426-2.88-.426h-.56v5.24" class="st0"/><path id="path42" d="M279.467 96.747c0-3.24-.587-5.467-1.76-6.48-1.174-1.214-3.12-1.827-5.854-1.827-2.533 0-3.893-.4-4.88-.813-.586 0-1.36-.614-1.36-1.827 0-1.827 1.36-2.427 3.507-2.427h33.707c2.533 0 3.706.614 3.706 2.227 0 1.013-.386 1.827-.973 1.827-.973.2-2.333.2-5.267.613-2.333.4-4.293.813-5.066 1.413-1.56 1.214-2.534 3.64-2.534 7.294v84.88c0 4.453.974 6.893 2.734 7.693 1.36.613 3.12 1.413 5.653 1.413 2.333.4 4.293.4 4.88.814.587 0 .773.613.773 1.826 0 1.014-.773 1.627-2.733 1.627h-35.467c-1.946 0-2.92-.2-2.92-1.627 0-1.213.387-1.826.974-1.826.586-.4 1.56-.4 2.733-.4 2.92 0 4.68-.4 5.653-.4 1.174-.4 2.147-1.014 2.92-2.227 1.36-1.013 1.56-3.24 1.56-6.08l.014-85.693" class="st0"/><path id="path44" d="M86.507 184.44v-11.027c0-6.386.96-9.666 2.893-9.666.773 0 1.733 2.133 2.307 6.573.573 8.32 3.266 14.12 7.32 17.987 3.853 3.866 9.053 5.8 14.626 5.8 3.854 0 7.694-.587 11.16-2.707 3.654-2.133 6.347-4.84 8.467-8.32 2.12-3.48 3.08-7.547 3.08-12.187 0-7.16-2.507-13.346-7.32-18.186-2.507-2.52-6.16-5.027-10.4-6.96-4.24-2.52-8.467-4.64-12.12-6.574-3.853-2.133-7.12-4.64-10.2-7.346-3.08-2.707-5.2-6.187-6.733-10.44-.96-2.707-1.534-5.414-1.734-8.894 0-4.84 1.534-9.48 3.654-13.933 2.306-4.453 5.973-8.32 10.586-11.027 4.44-2.72 9.627-4.266 15.787-4.266 4.813 0 9.627.773 14.827 1.546 5 .974 7.893 3.294 7.893 6.187l.573 15.867c0 .973-.573 2.133-1.533 2.52-.96-.387-1.92-1.747-2.507-3.867-2.693-12.773-9.053-19.347-19.053-19.347-3.267 0-6.547.574-9.627 1.934-3.08 1.546-5.586 3.48-7.32 6.386-1.733 2.707-2.693 5.8-2.693 9.667 0 4.453.96 8.32 2.307 10.64 1.92 2.907 4.613 5.613 8.28 7.733 3.853 2.32 10.013 5.8 19.053 10.254 6.16 3.48 10.587 7.733 14.053 12.96 3.267 5.226 4.814 11.026 4.814 17.213 0 4.253-.574 8.32-2.12 12.573-1.92 4.067-4.04 7.934-7.12 11.027-2.894 3.093-6.547 6-11.16 7.547-4.427 1.546-9.427 2.32-15.014 2.32-3.08 0-6.546-.387-10.4-1.36-3.853-.774-7.32-1.547-10.4-3.68-2.68-1.72-4.226-4.04-4.226-6.947" class="st0"/><path id="path46" d="M165.613 194.96v-3.76c4.88 0 8.44-1.12 9.947-2.253 1.32-1.507 2.44-5.254 2.44-10.694V99.987c0-4.134-1.133-7.507-2.067-8.44-1.506-1.134-5.44-2.814-10.32-2.814v-3.76c1.507 0 4.507.56 8.44.56h44.107c9.387 0 15.387-.56 17.267-.56v24.214h-3.374c0-6.387-2.44-11.827-6.013-14.454-3.947-2.626-10.693-4.32-19.52-4.32h-14.827v43.92h18.214c4.32 0 7.88-1.12 9.386-2.626 1.88-2.254 3.374-6 3.374-10.694h3.946c0 3.187-.56 5.814-.56 8.067 0 2.067-.373 4.693-.373 6.947 0 3.76.373 10.693.373 19.706 0 .56.56 1.12.56 1.12h-3.946v-1.12c0-5.253-.947-9.573-3-11.266-1.88-2.067-7.32-3.187-14.64-3.187h-13.32v32.653c0 6.574.933 11.267 3 12.947 1.88 1.693 8.253 2.627 17.08 2.627 9.386 0 16.333-1.507 20.266-3.76 3.947-2.627 7.32-8.067 9.76-15.574l3.374 1.12c-.934 3.187-2.44 6.947-3.374 11.267-.933 4.32-1.88 8.64-3 12.947H207.84c-9.2 0-17.08-.56-23.093-.56h-7.32s-6.934.013-11.814.013" class="st0"/></g></g></svg>