<?xml version="1.0" encoding="utf-8"?>
<!-- Generator: Adobe Illustrator 22.0.1, SVG Export Plug-In . SVG Version: 6.00 Build 0)  -->
<svg version="1.1" id="Laag_1" xmlns="http://www.w3.org/2000/svg" xmlns:xlink="http://www.w3.org/1999/xlink" x="0px" y="0px"
	 viewBox="0 0 68.9 34.5" style="enable-background:new 0 0 68.9 34.5;" xml:space="preserve">
<style type="text/css">
	.st0{fill:#DC1218;}
</style>
<g>
	<g>
		<path class="st0" d="M50.6,13.9v-0.7c1.9-1.3,3.1-2.2,3.4-4.1c0.1-0.7-0.1-1.6-0.7-2.4c-1.7-2.2-5.6-3.4-9.1-4
			C27.1-0.3,10.8,6,9.5,6.6l0-0.5C11,5.2,29.6-2.4,47.6,0.8c3.5,0.6,6.7,1.6,8.5,3.9c0.7,0.9,0.9,1.9,0.8,2.8
			C56.4,9.8,53.1,12.5,50.6,13.9"/>
		<path class="st0" d="M59.2,16c4,0,7,3.1,7,7.1c0,4.1-3,7.3-7.1,7.3c-4,0-7-3.1-7-7.2C52.1,19,55.1,16,59.2,16 M59.1,13.4
			c-5.6,0-9.7,4.1-9.7,9.8c0,5.5,4.1,9.7,9.5,9.7c5.7,0,9.9-4.1,9.9-9.7C68.9,17.5,64.7,13.4,59.1,13.4"/>
	</g>
	<polygon points="16.8,13.6 14.3,13.6 14.3,28.4 2.1,13.6 0,13.6 0,32.6 2.4,32.6 2.4,18 14.5,32.6 16.8,32.6 	"/>
	<g>
		<path d="M43.9,20.7c-2.6,4.5-12.1,13.9-12.1,13.9h-0.9c3.1-5.4,4.2-13.9,4.5-14.1l0-0.1c0,0-2.1,4.1-6.4,8.5
			c-4.3,4.3-5.9,5.7-5.9,5.7h-1c3.3-6.1,5.3-13,5.3-16.4c0-1-0.1-1.6-0.7-1.6c-1.3,0-2.6,2.2-3.3,3.8h-1c1.4-3.1,4.8-7.2,6.8-7.2
			c1.2,0,1.6,1.4,1.6,2.7c0,6.4-4.5,14.8-4.9,15.1c0,0.1,0.2,0.1,0.2,0.1c0.2-0.9,3.8-4,6.8-8.6c2.9-4.5,5.2-9.5,5.4-9.5
			c0.1-0.1,0.5,0.8,0.5,2.9c0,7.3-3.5,14.3-4.3,15.2c0,0.1,0.1,0.1,0.1,0.1c0.3-0.7,3.4-3.8,5.4-6.4c0.7-1,3.7-4.9,3.5-8.5
			c0,0,0.4-0.8,1.8-2.2c0,0,1-1,1.5-1c0.3,0,0.3,0.7,0.3,0.7C46.8,15.9,44.5,19.6,43.9,20.7"/>
	</g>
</g>
</svg>
