<?xml version="1.0" encoding="utf-8"?>
<!-- Generator: Adobe Illustrator 24.1.2, SVG Export Plug-In . SVG Version: 6.00 Build 0)  -->
<svg version="1.1" id="Ebene_1" xmlns="http://www.w3.org/2000/svg" xmlns:xlink="http://www.w3.org/1999/xlink" x="0px" y="0px"
	 viewBox="0 0 633 279.7" style="enable-background:new 0 0 633 279.7;" xml:space="preserve">
<style type="text/css">
	.st0{fill:#00589D;}
</style>
<path class="st0" d="M0.3,44.6v133h3v-130h129.9v-3C133.2,44.6,0.3,44.6,0.3,44.6z M76.9,64.9c-21.6,0-40.4,12.2-49.8,30.1h99.7
	C117.3,77.1,98.5,64.9,76.9,64.9z M27.1,95c-4.1,7.9-6.5,16.8-6.5,26.3c0,4.9,0.6,9.7,1.8,14.2l52.3,6v-22.6h58.6
	c-0.1-4.2-0.7-8.1-1.7-12L27.1,95L27.1,95z M592.7,83.8c-4.2,0-6.1,2.6-6.1,6.6v5.4h-3.8V99h3.8v21.1h4V99h4.4v-3.2h-4.4v-5.1
	c0-2.4,0.7-3.7,2.9-3.7c1,0,1.9,0.2,2.4,0.5v-3.4C595,83.9,593.8,83.8,592.7,83.8L592.7,83.8z M396.6,84.3v35.8h4V84.3
	C400.6,84.3,396.6,84.3,396.6,84.3z M315.7,85.7v4.8h4.4v-4.8H315.7z M487.7,85.7v4.8h4.4v-4.8H487.7z M169.2,86.8v33.3h4.2V86.8
	C173.4,86.8,169.2,86.8,169.2,86.8z M420,86.8v33.3h4.2V86.8C424.2,86.8,420,86.8,420,86.8z M209.7,89.6l-4,1.2v5h-3.9V99h3.9v15.6
	c0,4.3,2,5.8,5.6,5.8c1.1,0,2.4-0.3,3.4-0.6v-3.2c-0.8,0.3-1.5,0.6-2.5,0.6c-1.8,0-2.5-1.1-2.5-3.8V99h5v-3.2h-5V89.6z M306.6,89.6
	l-4,1.2v5h-3.8V99h3.8v15.6c0,4.3,2,5.8,5.6,5.8c1.1,0,2.5-0.3,3.4-0.6v-3.2c-0.8,0.3-1.5,0.6-2.5,0.6c-1.8,0-2.6-1.1-2.6-3.8V99h5
	v-3.2h-5v-6.2H306.6z M478.6,89.6l-4,1.2v5h-3.9V99h3.9v15.6c0,4.3,2,5.8,5.6,5.8c1.1,0,2.4-0.3,3.4-0.6v-3.2
	c-0.8,0.3-1.4,0.6-2.4,0.6c-1.8,0-2.6-1.1-2.6-3.8V99h5v-3.2h-5V89.6z M504.3,89.6l-4,1.2v5h-3.9V99h3.9v15.6c0,4.3,2,5.8,5.6,5.8
	c1.1,0,2.4-0.3,3.4-0.6v-3.2c-0.8,0.3-1.5,0.6-2.5,0.6c-1.8,0-2.6-1.1-2.6-3.8V99h5v-3.2h-5v-6.2H504.3z M542.4,89.6l-4,1.2v5h-3.8
	V99h3.8v15.6c0,4.3,2,5.8,5.6,5.8c1.1,0,2.5-0.3,3.4-0.6v-3.2c-0.8,0.3-1.5,0.6-2.5,0.6c-1.8,0-2.6-1.1-2.6-3.8V99h5v-3.2h-5
	L542.4,89.6L542.4,89.6z M190.5,95.5c-2.8,0-4.9,1.2-6.2,4h-0.1l-0.2-3.6h-3.8c0.1,1.7,0.2,3.5,0.2,5.2v19.1h4v-14.6
	c0-4.4,2-6.6,5.2-6.6c2.6,0,4,1.6,4,5.5v15.7h4v-16.9C197.6,97.9,194.8,95.5,190.5,95.5L190.5,95.5z M226.7,95.5
	c-6.1,0-9.4,4.9-9.4,12.5s3.4,12.5,9.8,12.5c2.4,0,4.9-0.5,6.8-1.4l-0.2-3.6c-1.4,1-3.6,2-5.6,2c-4.4,0-6.6-2.6-6.6-8.3h13.8v-2.1
	C235.3,99.8,232.2,95.5,226.7,95.5z M251,95.5c-3.6,0-5.6,1.2-6.9,4.2H244l-0.1-3.8H240c0,1.7,0.2,3.5,0.2,5.2v19.1h4v-12.9
	c0-5.3,2.2-7.9,5.3-7.9c0.5,0,1,0,1.5,0.1V95.5L251,95.5z M264.9,95.5c-2.8,0-4.9,1.2-6.2,4h-0.1l-0.1-3.6h-3.8
	c0,1.7,0.2,3.5,0.2,5.2v19.1h4v-14.6c0-4.4,2-6.6,5.2-6.6c2.6,0,4,1.6,4,5.5v15.7h4v-16.9C272,97.9,269.2,95.5,264.9,95.5
	L264.9,95.5z M286.2,95.5c-2.4,0-4.8,0.7-6.8,2l0.4,3.8c1.4-1.5,3.8-2.6,6.2-2.6c1.7,0,3.3,0.5,4.1,1.5c0.8,1.1,0.9,2.1,0.9,3.9v1.1
	h-2.4c-8.4,0-11.4,3.5-11.4,8.3c0,4.7,3,7,7,7c3.7,0,5.7-1.8,6.8-3.6h0.1l0.3,3.3h3.6c-0.1-0.9-0.2-2.3-0.2-3.7v-12.7
	c0-3.4-1-4.9-2.1-6C291.9,97,289.7,95.5,286.2,95.5L286.2,95.5z M335.2,95.5c-6.4,0-9.7,4.9-9.7,12.5s3.3,12.5,9.7,12.5
	c6.4,0,9.8-4.8,9.8-12.5S341.6,95.5,335.2,95.5z M360.2,95.5c-2.8,0-4.8,1.2-6.1,4H354l-0.1-3.6H350c0,1.7,0.2,3.5,0.2,5.2v19.1h4
	v-14.6c0-4.4,2-6.6,5.2-6.6c2.6,0,4,1.6,4,5.5v15.7h4v-16.9C367.3,97.9,364.4,95.5,360.2,95.5z M381.4,95.5c-2.4,0-4.9,0.7-6.9,2
	l0.5,3.8c1.4-1.5,3.8-2.6,6.2-2.6c1.7,0,3.2,0.5,4,1.5c0.8,1.1,0.9,2.1,0.9,3.9v1.1h-2.4c-8.4,0-11.5,3.5-11.5,8.3c0,4.7,3,7,7.1,7
	c3.7,0,5.8-1.8,6.8-3.6h0.1l0.2,3.3h3.7c-0.1-0.9-0.2-2.3-0.2-3.7v-12.7c0-3.4-1-4.9-2.1-6C387.2,97,385,95.5,381.4,95.5L381.4,95.5
	z M441.3,95.5c-2.8,0-4.8,1.2-6.1,4H435l-0.1-3.6h-3.8c0.1,1.7,0.1,3.5,0.1,5.2v19.1h4v-14.6c0-4.4,2-6.6,5.2-6.6c2.6,0,4,1.6,4,5.5
	v15.7h4v-16.9C448.5,97.9,445.5,95.5,441.3,95.5z M461.4,95.5c-4.7,0-7.9,3-7.9,7.1c0,3.1,1.3,4.7,4.8,6.2l2.7,1.2
	c2.2,1,3.1,2.2,3.1,3.8c0,1.9-1.6,3.4-4.6,3.4c-2,0-3.9-0.7-5.7-1.8l-0.3,3.6c1.8,0.9,4,1.4,6.6,1.4c5.6,0,7.9-3.3,7.9-7.5
	c0-3-1.9-5-4.8-6.2l-1.4-0.6c-2.7-1.1-4.1-2.1-4.1-4.1c0-1.9,1.3-3.4,4-3.4c1.8,0,3.5,0.5,4.8,1.1l0.2-3.4
	C465.1,95.8,463.4,95.5,461.4,95.5L461.4,95.5z M559.5,95.5c-6.1,0-9.5,4.9-9.5,12.5s3.4,12.5,9.8,12.5c2.4,0,5-0.5,6.8-1.4
	l-0.2-3.6c-1.4,1-3.6,2-5.6,2c-4.4,0-6.6-2.6-6.6-8.3H568v-2.1C568.1,99.8,565,95.5,559.5,95.5z M607.3,95.5
	c-6.4,0-9.8,4.9-9.8,12.5s3.4,12.5,9.8,12.5s9.7-4.8,9.7-12.5S613.7,95.5,607.3,95.5z M633,95.5c-3.6,0-5.6,1.2-6.9,4.2H626
	l-0.1-3.8H622c0,1.7,0.2,3.5,0.2,5.2v19.1h4v-12.9c0-5.3,2.2-7.9,5.3-7.9c0.5,0,1.1,0,1.5,0.1V95.5L633,95.5z M315.9,95.8v24.3h4
	V95.8H315.9z M487.9,95.8v24.3h4V95.8H487.9z M513.2,95.8v16.8c0,5.4,2.9,7.8,7.1,7.8c2.8,0,4.8-1.2,6.1-4h0.1l0.1,3.6h3.9
	c-0.1-1.7-0.2-3.5-0.2-5.2V95.7h-4v14.6c0,4.4-2,6.6-5.2,6.6c-2.6,0-4-1.6-4-5.5V95.7L513.2,95.8L513.2,95.8z M226.5,98.5
	c3.2,0,4.8,2.5,4.8,7.6h-9.7C221.6,100.4,223.9,98.5,226.5,98.5z M559.3,98.5c3.2,0,4.8,2.5,4.8,7.6h-9.7
	C554.4,100.4,556.7,98.5,559.3,98.5z M335.2,98.7c3.8,0,5.6,3.2,5.6,9.3c0,6.1-1.8,9.3-5.6,9.3s-5.6-3.2-5.6-9.3
	C329.6,101.8,331.4,98.7,335.2,98.7z M607.3,98.7c3.8,0,5.6,3.2,5.6,9.3c0,6.1-1.8,9.3-5.6,9.3s-5.6-3.2-5.6-9.3
	C601.6,101.8,603.5,98.7,607.3,98.7z M288.1,108.1c1.1,0,2.1,0,2.8,0.1v3c0,3.3-2.2,6.2-5.7,6.2c-2.8,0-4.1-1.6-4.1-4.2
	C281.1,110.4,283.4,108.1,288.1,108.1L288.1,108.1z M383.4,108.1c1.1,0,2.1,0,2.8,0.1v3c0,3.3-2.2,6.2-5.7,6.2
	c-2.8,0-4.1-1.6-4.1-4.2C376.4,110.4,378.7,108.1,383.4,108.1L383.4,108.1z M79.2,123.5V142l47.6,5.5c3.8-7.2,6.1-15.4,6.4-24H79.2z
	 M126.8,147.6H79.2v30C99.8,176.8,117.7,164.8,126.8,147.6z M243.6,141.3v35.8h4v-35.8H243.6z M300.5,141.3v14.8h-0.1
	c-1.6-2.6-3.5-3.6-6.2-3.6c-5,0-8.4,4.1-8.4,12.5s3.4,12.5,8.4,12.5c3.5,0,5.4-2,6.4-3.9h0.1l0.1,3.6h3.9c0-1.5-0.2-3-0.2-4.5v-31.3
	h-4L300.5,141.3z M555.2,141.3v35.8h4v-35.8H555.2z M254.5,142.7v4.8h4.4v-4.8H254.5z M604.1,142.7v4.8h4.4v-4.8H604.1z
	 M330.9,143.5c-5.1,0-9.3,2.8-9.3,8.3c0,4.3,1.4,6.4,7.4,10c4.5,2.7,5.2,4.2,5.2,6.8c0,2.7-2.1,5.2-5.9,5.2c-2,0-4.5-1-6.4-2.1v4.4
	c1.8,0.9,4.3,1.4,7,1.4c6.4,0,9.7-4.2,9.7-9.5c0-3.8-1.7-6.7-6.8-9.7c-4.8-2.8-5.6-4.1-5.6-6.2c0-2.8,2-5,5.2-5c2,0,4.1,0.6,5.7,1.5
	v-4.1C335.4,143.9,333.1,143.5,330.9,143.5L330.9,143.5z M177,143.8l-11.1,33.3h4.2l2.7-8.7h12.7l2.7,8.7h4.4l-10.9-33.3H177
	L177,143.8z M489.5,143.8l-11.1,33.3h4.2l2.7-8.7H498l2.7,8.7h4.4l-10.9-33.3H489.5L489.5,143.8z M387.9,146.6l-4,1.2v5H380v3.2h3.9
	v15.6c0,4.3,2,5.8,5.6,5.8c1.1,0,2.4-0.3,3.4-0.6v-3.2c-0.8,0.3-1.5,0.6-2.5,0.6c-1.8,0-2.5-1.1-2.5-3.8V156h5v-3.2h-5V146.6
	L387.9,146.6z M27.1,147.6c9.1,17.3,27,29.2,47.6,30v-30H27.1z M179.1,148.2h0.1l5.1,16.7h-10.5L179.1,148.2L179.1,148.2z
	 M491.6,148.2h0.1l5.1,16.7h-10.5L491.6,148.2z M206.2,152.5c-3.5,0-5.4,2-6.4,3.9h-0.1l-0.1-3.6h-3.9c0,1.5,0.2,3,0.2,4.5v30.2h4
	v-13.6h0.1c1.6,2.6,3.5,3.6,6.2,3.6c5,0,8.4-4.1,8.4-12.5S211.3,152.5,206.2,152.5L206.2,152.5z M229.7,152.5c-3.5,0-5.4,2-6.4,3.9
	h-0.1l-0.1-3.6h-3.9c0,1.5,0.2,3,0.2,4.5v30.2h4v-13.6h0.1c1.6,2.6,3.5,3.6,6.2,3.6c5,0,8.4-4.1,8.4-12.5S234.7,152.5,229.7,152.5
	L229.7,152.5z M273.5,152.5c-6.1,0-9.4,4.9-9.4,12.5s3.4,12.5,9.8,12.5c2.4,0,4.9-0.5,6.8-1.4l-0.2-3.6c-1.4,1-3.6,2-5.6,2
	c-4.4,0-6.6-2.6-6.6-8.3h13.8v-2.1C282.1,156.8,279,152.5,273.5,152.5L273.5,152.5z M370.6,152.5c-4.7,0-7.8,3-7.8,7.1
	c0,3.1,1.3,4.7,4.8,6.2l2.7,1.2c2.2,1,3.1,2.2,3.1,3.8c0,1.9-1.6,3.4-4.6,3.4c-2,0-3.9-0.7-5.7-1.8l-0.3,3.6
	c1.8,0.9,4.1,1.4,6.6,1.4c5.6,0,7.9-3.3,7.9-7.5c0-3-1.9-5-4.8-6.2l-1.4-0.6c-2.7-1.1-4.2-2.1-4.2-4.1c0-1.9,1.4-3.4,4-3.4
	c1.8,0,3.5,0.5,4.8,1.1l0.2-3.5C374.4,152.7,372.6,152.5,370.6,152.5L370.6,152.5z M404.9,152.5c-6.1,0-9.4,4.9-9.4,12.5
	s3.3,12.5,9.8,12.5c2.4,0,4.9-0.5,6.8-1.4l-0.2-3.6c-1.4,1-3.6,2-5.6,2c-4.4,0-6.6-2.6-6.6-8.3h13.8v-2.1
	C413.5,156.8,410.4,152.5,404.9,152.5L404.9,152.5z M428.4,152.5c-2.7,0-4.7,1.2-6,4h-0.1l-0.1-3.6h-3.9c0,1.7,0.2,3.5,0.2,5.2v19.1
	h4v-15c0-4.4,1.6-6.2,4.6-6.2c2.4,0,3.7,1.4,3.7,4.5v16.7h4v-15c0-4.4,1.6-6.2,4.6-6.2c2.4,0,3.8,1.4,3.8,4.5v16.7h4v-16.9
	c0-5.3-2.8-7.8-7.1-7.8c-2.8,0-4.6,1.4-5.9,3.8C432.8,153.8,431,152.5,428.4,152.5L428.4,152.5z M459.9,152.5c-4.7,0-7.8,3-7.8,7.1
	c0,3.1,1.3,4.7,4.8,6.2l2.7,1.2c2.2,1,3.1,2.2,3.1,3.8c0,1.9-1.6,3.4-4.6,3.4c-2,0-3.9-0.7-5.7-1.8l-0.3,3.6
	c1.8,0.9,4.1,1.4,6.6,1.4c5.6,0,7.9-3.3,7.9-7.5c0-3-1.9-5-4.8-6.2l-1.4-0.6c-2.7-1.1-4.1-2.1-4.1-4.1c0-1.9,1.3-3.4,4-3.4
	c1.8,0,3.6,0.5,4.8,1.1l0.1-3.5C463.7,152.7,462,152.5,459.9,152.5L459.9,152.5z M518.8,152.5c-2.8,0-4.9,1.2-6.2,4h-0.1l-0.1-3.6
	h-3.8c0,1.7,0.2,3.5,0.2,5.2v19.1h4v-14.6c0-4.4,2-6.6,5.2-6.6c2.6,0,4,1.6,4,5.5v15.7h4v-16.9C526,154.9,523.1,152.5,518.8,152.5
	L518.8,152.5z M540.1,152.5c-2.4,0-4.8,0.7-6.8,2l0.4,3.8c1.4-1.5,3.8-2.6,6.2-2.6c1.7,0,3.3,0.4,4.1,1.5s0.9,2.1,0.9,3.9v1.1h-2.4
	c-8.4,0-11.4,3.5-11.4,8.3c0,4.7,3,7,7,7c3.7,0,5.8-1.8,6.8-3.6h0.1l0.3,3.3h3.6c-0.1-0.9-0.2-2.3-0.2-3.7v-12.7c0-3.4-1-4.9-2.1-6
	C545.8,154,543.6,152.5,540.1,152.5L540.1,152.5z M592.4,152.5c-4.7,0-7.8,3-7.8,7.1c0,3.1,1.3,4.7,4.8,6.2l2.7,1.2
	c2.2,1,3.1,2.2,3.1,3.8c0,1.9-1.6,3.4-4.6,3.4c-2,0-3.9-0.7-5.7-1.8l-0.3,3.6c1.8,0.9,4,1.4,6.6,1.4c5.6,0,7.9-3.3,7.9-7.5
	c0-3-1.9-5-4.8-6.2l-1.4-0.6c-2.7-1.1-4.1-2.1-4.1-4.1c0-1.9,1.3-3.4,4-3.4c1.8,0,3.5,0.5,4.8,1.1l0.2-3.5
	C596.2,152.7,594.4,152.5,592.4,152.5z M621.7,152.5c-4.7,0-7.9,3-7.9,7.1c0,3.1,1.3,4.7,4.8,6.2l2.7,1.2c2.2,1,3.1,2.2,3.1,3.8
	c0,1.9-1.6,3.4-4.6,3.4c-2,0-3.9-0.7-5.7-1.8l-0.3,3.6c1.8,0.9,4.1,1.4,6.6,1.4c5.6,0,7.9-3.3,7.9-7.5c0-3-1.9-5-4.8-6.2l-1.4-0.6
	c-2.7-1.1-4.1-2.1-4.1-4.1c0-1.9,1.4-3.4,4-3.4c1.8,0,3.5,0.5,4.8,1.1l0.1-3.5C625.4,152.7,623.7,152.5,621.7,152.5L621.7,152.5z
	 M254.7,152.8v24.3h4v-24.3H254.7z M341.4,152.8l7.7,24.7l-1,3.7c-0.7,2.5-1.5,3.1-2.7,3.1c-0.9,0-1.5-0.2-2.1-0.5l-0.2,3.6
	c0.7,0.2,1.7,0.3,2.7,0.3c3.1,0,4.8-1.5,6-5.6l8.5-29.3h-4l-5.1,19.8H351l-5.4-19.8H341.4L341.4,152.8z M563.2,152.8l7.7,24.7
	l-0.9,3.7c-0.7,2.5-1.5,3.1-2.7,3.1c-0.9,0-1.6-0.2-2.2-0.5l-0.2,3.6c0.7,0.2,1.8,0.3,2.8,0.3c3.1,0,4.8-1.5,6-5.6l8.4-29.3h-4
	l-5.1,19.8h-0.1l-5.4-19.8H563.2z M604.3,152.8v24.3h4v-24.3H604.3z M273.3,155.5c3.2,0,4.8,2.5,4.8,7.6h-9.7
	C268.5,157.4,270.7,155.5,273.3,155.5L273.3,155.5z M404.7,155.5c3.2,0,4.8,2.5,4.8,7.6h-9.7C399.9,157.4,402.2,155.5,404.7,155.5
	L404.7,155.5z M205.2,155.7c3.7,0,5.4,3.2,5.4,9.3s-1.7,9.3-5.4,9.3s-5.3-3.2-5.3-9.3C199.9,158.8,201.6,155.7,205.2,155.7z
	 M228.7,155.7c3.7,0,5.3,3.2,5.3,9.3s-1.6,9.3-5.3,9.3s-5.4-3.2-5.4-9.3C223.4,158.8,225.1,155.7,228.7,155.7z M295.2,155.7
	c3.7,0,5.4,3.2,5.4,9.3s-1.7,9.3-5.4,9.3s-5.3-3.2-5.3-9.3C289.8,158.8,291.5,155.7,295.2,155.7z M542,165.1c1.1,0,2.1,0,2.8,0.1v3
	c0,3.3-2.1,6.2-5.6,6.2c-2.8,0-4.1-1.6-4.1-4.2C535.1,167.4,537.3,165.1,542,165.1L542,165.1z M94.2,193.2c-3.9,0-6.6,3.8-6.6,9.3
	c0,8.3,7,17.5,7,23.8c0,2.2-1.4,4-3.2,4c-1.2,0-2.5-0.9-3.6-2.3v5.4c1.4,1.1,2.7,1.6,4.1,1.6c4,0,6.6-3.9,6.6-9.4
	c0-8.5-6.9-17.3-6.9-23.8c0-2.6,1.1-3.9,3.1-3.9c1,0,1.7,0.4,3,1.3v-4.9C96.3,193.5,95.3,193.2,94.2,193.2L94.2,193.2z M58,193.5
	l-6.1,41h4l1.2-9.1h6l1.2,9.1h4l-6-41H58z M123.8,193.5l-6,41h4l1.3-9.1h6l1.1,9.1h4l-6-41C128.2,193.5,123.8,193.5,123.8,193.5z
	 M0,193.8v40.6h4.2v-40.6H0z M27.1,193.8v40.6h4.2v-40.6C31.3,193.8,27.1,193.8,27.1,193.8z M60,203.5L60,203.5l2.5,17.1h-4.7
	L60,203.5z M125.9,203.5L125.9,203.5l2.3,17.1h-4.6L125.9,203.5z"/>
</svg>
