<svg xmlns="http://www.w3.org/2000/svg" id="Layer_1" viewBox="0 0 633 279.7"><style>.st0{fill:#2C3E50;} .st1{fill:#566573;}</style><g id="Page-1"><g id="_x31_61116_x5F_FH_x3B_P_x5F_horizontal_x5F_K"><path id="Fill-1" d="M188.3 166.6c0 11.9-2.7 20.8-13.5 29.2l-11.7-9.9c6.1-5.7 8.1-10.2 8.2-17.2H162v-26.5h26.2v24.4z" class="st0"/><path id="Fill-3" d="M162.2 124.6h26.1V98.1h-26.1z" class="st0"/><path id="Fill-5" d="M0 168.7V84.9h63v20H25.3v14.7h34.9v19.9H25.3v29.2z" class="st0"/><path id="Fill-6" d="M121.8 168.7V136H97.3v32.7H71.5V84.9h25.8v29.5h24.5V84.9h26v83.8z" class="st0"/><path id="Fill-7" d="M238.6 122.9c5 0 8.7-.7 10.7-2.4 1.9-1.5 2.6-3.9 2.6-6.6 0-2.6-.7-5-2.6-6.6-1.9-1.8-5-2.4-10.3-2.4h-10.3v18h9.9zm-35.5 45.8V84.9h35.8c16.5 0 23.6 1.8 28.6 5.1 7.4 4.9 10.9 12.8 10.9 23.3 0 9.6-3.8 18-10.6 23-5.8 4.2-13.4 6.2-26.5 6.2h-12.7v26.2h-25.5z" class="st0"/><path id="Fill-8" d="M323.4 87.9v5.4h5.5v3h-5.5v8.3h-3.9V84.9h10v3z" class="st0"/><path id="Fill-9" d="M339.6 98h-1.1c-2.8 0-3.6.9-3.6 2.3 0 1.2.7 1.9 2 1.9.9 0 1.9-.5 2.8-1.3V98zm.8 6.6l-.3-1.5c-1.3 1.1-2.6 1.8-4.5 1.8-2.9 0-4.5-1.5-4.5-4.2 0-3 2.4-5 7.5-5h.9v-1.1c0-1.5-.8-2.2-2.7-2.2-1.5 0-3.1.4-4.4.9L332 91c1.7-.8 3.7-1.3 5.9-1.3 3.7 0 5.5 1.8 5.5 4.5v10.4h-3z" class="st0"/><path id="Fill-10" d="M352.6 104.9c-3.8 0-5.8-2.4-5.8-7.4 0-4.6 2.4-7.8 6.1-7.8 1.9 0 3.3.7 4.4 1.8l-1.3 1.9c-.7-.6-1.5-1-2.5-1-1.7 0-2.8 1.6-2.8 4.6 0 3.6 1 5 2.7 5 1.2 0 2.1-.4 3.1-1.2l1.1 1.9c-1.2 1.2-2.8 2.2-5 2.2" class="st0"/><path id="Fill-11" d="M372.1 104.6h-3.7c0-3 .1-6 .1-7.6 0-3.5-.7-4.3-2-4.3-.7 0-1.7.4-2.7 1.2v10.7H360V83.9h3.8v7.3c1-.9 2.4-1.6 4-1.6 2.9 0 4.5 1.8 4.5 6.6-.1 1.8-.2 5.1-.2 8.4" class="st0"/><path id="Fill-12" d="M388.5 104.6h-3.7c0-3 .1-6 .1-7.6 0-3.5-.7-4.3-2-4.3-.7 0-1.7.4-2.7 1.2v10.7h-3.8V83.9h3.8v7.3c1-.9 2.4-1.6 4-1.6 2.9 0 4.5 1.8 4.5 6.6-.1 1.8-.2 5.1-.2 8.4" class="st0"/><path id="Fill-13" d="M398.6 92.4c-1.7 0-2.9 1.2-2.9 4.5 0 4.1 1.1 5.2 2.9 5.2 1.7 0 2.9-1.2 2.9-4.5.1-4.1-1-5.2-2.9-5.2m-.2 12.5c-4.1 0-6.5-2.1-6.5-7.3 0-5.4 2.7-7.9 7-7.9 4.1 0 6.5 2.1 6.5 7.3 0 5.4-2.7 7.9-7 7.9" class="st0"/><path id="Fill-14" d="M413.8 104.9c-3.8 0-5.8-2.4-5.8-7.4 0-4.6 2.4-7.8 6.1-7.8 1.9 0 3.3.7 4.4 1.8l-1.3 1.9c-.7-.6-1.5-1-2.5-1-1.7 0-2.8 1.6-2.8 4.6 0 3.6 1 5 2.7 5 1.2 0 2.1-.4 3.1-1.2l1.1 1.9c-1.1 1.2-2.8 2.2-5 2.2" class="st0"/><path id="Fill-15" d="M433.4 104.6h-3.7c0-3 .1-6 .1-7.6 0-3.5-.7-4.3-2-4.3-.7 0-1.7.4-2.7 1.2v10.7h-3.8V83.9h3.8v7.3c1-.9 2.4-1.6 4-1.6 2.9 0 4.5 1.8 4.5 6.6-.1 1.8-.2 5.1-.2 8.4" class="st0"/><path id="Fill-16" d="M441.1 104.9c-1.6 0-3.1-.4-4.5-1.2l.3-2c1.7.4 2.7.5 3.6.5 1.9 0 2.7-.7 2.7-1.6 0-1-.5-1.5-2.6-2.2-2.8-1-3.9-2.2-3.9-4.3 0-2.7 2.1-4.4 5.3-4.4 1.3 0 2.6.3 4.1 1.1l-.4 1.9c-1.2-.3-2.1-.4-2.9-.4-1.5 0-2.2.7-2.2 1.5 0 .9.5 1.3 2.6 2.1 2.9 1 3.9 2.3 3.9 4.4-.1 2.6-2.2 4.6-6 4.6" class="st0"/><path id="Fill-17" d="M455.2 104.9c-3.8 0-5.8-2.4-5.8-7.4 0-4.6 2.4-7.8 6.1-7.8 1.9 0 3.3.7 4.4 1.8l-1.3 1.9c-.7-.6-1.5-1-2.5-1-1.7 0-2.8 1.6-2.8 4.6 0 3.6 1 5 2.7 5 1.2 0 2.1-.4 3.1-1.2l1.1 1.9c-1.2 1.2-2.8 2.2-5 2.2" class="st0"/><path id="Fill-18" d="M474.8 104.6H471c0-3 .1-6 .1-7.6 0-3.5-.7-4.3-2-4.3-.7 0-1.7.4-2.7 1.2v10.7h-3.8V83.9h3.8v7.3c1-.9 2.4-1.6 4-1.6 2.9 0 4.5 1.8 4.5 6.6 0 1.8-.1 5.1-.1 8.4" class="st0"/><path id="Fill-19" d="M488.1 104.6l-.3-1.6c-1.3 1.1-2.7 1.9-4.4 1.9-3 0-4.5-1.9-4.5-6.6 0-1.8.1-5.1.1-8.3h3.8c0 2.9-.1 5.9-.1 7.7 0 3.4.7 4.3 2 4.3.8 0 1.8-.5 2.7-1.2V90h3.8v14.6h-3.1z" class="st0"/><path id="Fill-20" d="M498.2 104.8c-1.9 0-2.9-.6-2.9-2.9V84h3.8v16.4c0 1.6.2 1.9 1 1.9h.7l.1 2.2c-.7.2-1.5.3-2.7.3" class="st0"/><path id="Fill-21" d="M511.5 95.6c0-2.3-.8-3.5-2.4-3.5-1.6 0-2.5 1.4-2.6 3.5h5zm-5 2.4v.2c0 2.7 1.2 3.8 3.3 3.8 1.3 0 3-.3 4.7-.8l.6 2.2c-1.8.9-3.9 1.5-6 1.5-3.8 0-6.3-1.9-6.3-7.2 0-5.2 2.5-8 6.6-8 3.8 0 6.2 2.1 5.8 8.4h-8.7z" class="st0"/><path id="Fill-22" d="M531.6 87.7h-1.2V95h1.2c2.6 0 3.8-1.3 3.8-3.7 0-2.3-1-3.6-3.8-3.6m-.4 10.3h-.8v6.6h-3.9V84.9c1.8 0 3.7-.1 5.7-.1 5.3 0 7.3 2.4 7.3 6.2 0 4-2.2 7-8.3 7" class="st0"/><path id="Fill-23" d="M548.2 92.4c-1.7 0-2.9 1.2-2.9 4.5 0 4.1 1.1 5.2 2.9 5.2 1.7 0 2.9-1.2 2.9-4.5 0-4.1-1.1-5.2-2.9-5.2m-.3 12.5c-4.1 0-6.5-2.1-6.5-7.3 0-5.4 2.7-7.9 7-7.9 4.1 0 6.5 2.1 6.5 7.3 0 5.4-2.7 7.9-7 7.9" class="st0"/><path id="Fill-24" d="M562.2 104.9c-2.7 0-3.7-1-3.7-3.8v-8.5h-1.8V90h2c.3-1.3.6-2.6.9-4.3h2.7V90h3.2v2.6h-3.2v7.5c0 1.5.4 2 1.3 2 .5 0 1.1-.1 2-.3l.3 2.2c-1.4.6-2.6.9-3.7.9" class="st0"/><path id="Fill-25" d="M572.2 104.9c-1.6 0-3.1-.4-4.5-1.2l.3-2c1.7.4 2.7.5 3.6.5 1.9 0 2.7-.7 2.7-1.6 0-1-.5-1.5-2.6-2.2-2.8-1-3.9-2.2-3.9-4.3 0-2.7 2.1-4.4 5.3-4.4 1.3 0 2.6.3 4.1 1.1l-.4 1.9c-1.2-.3-2.1-.4-2.9-.4-1.5 0-2.2.7-2.2 1.5 0 .9.5 1.3 2.6 2.1 2.9 1 3.9 2.3 3.9 4.4 0 2.6-2.2 4.6-6 4.6" class="st0"/><path id="Fill-26" d="M589.3 92.6c-.5-.2-1.1-.3-1.8-.3-1.9 0-3.2 1.5-3.2 5 0 3.1.9 4.7 2.4 4.7.7 0 1.6-.4 2.6-1.2v-8.2zm.7 12l-.3-1.5c-1.2 1-2.6 1.8-4.1 1.8-3.4 0-5.1-3.1-5.1-7 0-5.9 3.2-8.2 7.2-8.2.6 0 1.3.1 1.6.1V84h3.8v20.6H590z" class="st0"/><path id="Fill-27" d="M604.8 98h-1.1c-2.8 0-3.6.9-3.6 2.3 0 1.2.7 1.9 2 1.9.9 0 1.9-.5 2.8-1.3V98zm.8 6.6l-.3-1.5c-1.3 1.1-2.6 1.8-4.5 1.8-2.9 0-4.5-1.5-4.5-4.2 0-3 2.4-5 7.5-5h.9v-1.1c0-1.5-.8-2.2-2.7-2.2-1.5 0-3.1.4-4.4.9l-.4-2.3c1.7-.8 3.7-1.3 5.9-1.3 3.7 0 5.5 1.8 5.5 4.5v10.4h-3z" class="st0"/><path id="Fill-28" d="M632.9 104.6h-3.7c0-2.9.1-5.9.1-7.6 0-3.5-.6-4.3-1.9-4.3-.8 0-1.8.6-2.8 1.3.1.5.1 1.1.1 2.2v8.4H621v-7.7c0-3.4-.6-4.3-1.9-4.3-.7 0-1.7.5-2.6 1.2v10.8h-3.8V90h3.1l.3 1.5c1.2-1.1 2.7-1.9 4.3-1.9 1.8 0 3 .9 3.6 2.1 1.4-1.3 2.9-2.1 4.7-2.1 2.9 0 4.4 1.9 4.4 6.6-.1 1.8-.2 5.2-.2 8.4" class="st0"/><path id="Fill-29" d="M326.5 137c-4.7 0-7.1-2-7.1-7v-13h3.9v12.6c0 3.3 1 4.5 3.5 4.5 2.2 0 3.5-1 3.5-4.3V117h3.8v12.6c.1 5.3-3.1 7.4-7.6 7.4" class="st0"/><path id="Fill-30" d="M350.8 136.6H347c0-2.9.1-5.9.1-7.7 0-3.5-.7-4.3-2-4.3-.8 0-1.7.5-2.7 1.2v10.7h-3.8V122h3.1l.3 1.5c1.3-1.1 2.7-1.9 4.4-1.9 2.9 0 4.5 1.9 4.5 6.6 0 1.9-.1 5.2-.1 8.4" class="st0"/><path id="Fill-31" d="M355 136.6h3.8V122H355v14.6zm1.9-16.4c-1.8 0-2.2-.5-2.2-2s.5-2 2.2-2c1.8 0 2.2.4 2.2 2 0 1.5-.4 2-2.2 2z" class="st0"/><path id="Fill-32" d="M370.5 136.6h-4.9l-4.2-14.6h4l2.4 8.2.6 2.9c1.2-4 2.1-7.6 2.4-11.2h3.9c-.8 5.2-2.2 10.2-4.2 14.7" class="st0"/><path id="Fill-33" d="M385.4 127.7c0-2.3-.8-3.5-2.4-3.5-1.6 0-2.5 1.4-2.6 3.5h5zm-5 2.4v.2c0 2.7 1.2 3.8 3.3 3.8 1.3 0 3-.3 4.7-.8l.6 2.2c-1.8.9-3.9 1.5-6 1.5-3.8 0-6.3-1.9-6.3-7.2 0-5.2 2.5-8 6.6-8 3.8 0 6.2 2.1 5.8 8.4h-8.7z" class="st0"/><path id="Fill-34" d="M400.5 125.4c-.6-.2-1-.2-1.3-.2-.8 0-1.5.6-2.8 2.2v9.3h-3.8V122h3.1l.3 2.3c1.5-2 2.5-2.6 3.5-2.6.4 0 .9.1 1.4.3l-.4 3.4z" class="st0"/><path id="Fill-35" d="M407 136.9c-1.6 0-3.1-.4-4.5-1.2l.3-2c1.7.4 2.7.5 3.6.5 1.9 0 2.7-.7 2.7-1.6 0-1-.5-1.5-2.6-2.2-2.8-1-3.9-2.2-3.9-4.3 0-2.7 2.1-4.4 5.3-4.4 1.3 0 2.6.3 4.1 1.1l-.4 1.9c-1.2-.3-2.1-.4-2.9-.4-1.5 0-2.2.7-2.2 1.5 0 .9.5 1.3 2.6 2.1 2.9 1 3.9 2.3 3.9 4.4 0 2.6-2.2 4.6-6 4.6" class="st0"/><path id="Fill-36" d="M416.1 136.6h3.8V122h-3.8v14.6zm1.9-16.4c-1.8 0-2.2-.5-2.2-2s.5-2 2.2-2c1.8 0 2.2.4 2.2 2 0 1.5-.4 2-2.2 2z" class="st0"/><path id="Fill-37" d="M428.1 136.9c-2.7 0-3.7-1-3.7-3.8v-8.5h-1.8V122h2c.3-1.3.6-2.6.9-4.3h2.7v4.3h3.2v2.6h-3.2v7.5c0 1.5.4 2 1.3 2 .5 0 1.1-.1 2-.3l.3 2.2c-1.4.7-2.6.9-3.7.9" class="st0"/><path id="Fill-38" d="M435.2 141.9c-.6 0-1.5-.2-2.2-.6v-2.2c.4.1 1.1.1 1.5.1.9 0 1.6-.2 2.1-.6.6-.5.8-1 .8-1.7 0-.6-.2-1.5-.7-2.9l-3.6-12h4l2.3 8.2c.4 1.4.7 2.7.6 3.6 1.1-3.4 2.1-7.9 2.4-11.8h3.9c-2.3 15.3-7.1 19.9-11.1 19.9" class="st0"/><path id="Fill-39" d="M461.3 124.5c-1.7 0-2.9 1.2-2.9 4.5 0 4.1 1.1 5.2 2.9 5.2 1.7 0 2.9-1.2 2.9-4.5 0-4.1-1-5.2-2.9-5.2M461 137c-4.1 0-6.5-2.1-6.5-7.3 0-5.4 2.7-7.9 7-7.9 4.1 0 6.5 2.1 6.5 7.3.1 5.3-2.6 7.9-7 7.9" class="st0"/><path id="Fill-40" d="M478.8 118.7c-.6-.2-1.2-.3-1.7-.3-1.1 0-1.6.6-1.6 1.8v1.8h2.6v2.6h-2.6v12h-3.7v-12H470V122h1.9v-1.7c0-2.9 1.1-4.6 4.1-4.6 1.5 0 2.6.4 3.5.9l-.7 2.1z" class="st0"/><path id="Fill-41" d="M325.3 152.5c-.8 2.8-1.8 6.4-2.5 9.4h5.2c-.8-3-1.7-6.4-2.7-9.4zm4.2 16.2c-.2-1.1-.6-2.7-.8-3.9h-6.5c-.3 1.1-.6 2.5-.8 3.9h-3.8c1.5-6.6 3.4-13.3 5.4-19.7h5.2c2.3 6.7 4 13.1 5.6 19.7h-4.3z" class="st0"/><path id="Fill-42" d="M342.7 156.7c-.7 0-1.7.4-2.6 1.2v8.2c.5.2 1.1.3 1.8.3 1.9 0 3.2-1.5 3.2-5 0-3.1-.9-4.7-2.4-4.7m-1 12.3c-.4 0-1.1 0-1.5-.1v4.8h-3.8v-19.6h3.1l.3 1.5c1.2-1.1 2.6-1.8 4-1.8 3.5 0 5.2 3.1 5.2 7 0 5.8-3.1 8.2-7.3 8.2" class="st0"/><path id="Fill-43" d="M358.7 156.7c-.7 0-1.7.4-2.6 1.2v8.2c.5.2 1.1.3 1.8.3 1.9 0 3.2-1.5 3.2-5 0-3.1-.9-4.7-2.4-4.7m-1 12.3c-.4 0-1.1 0-1.5-.1v4.8h-3.8v-19.6h3.1l.3 1.5c1.2-1.1 2.6-1.8 4-1.8 3.5 0 5.2 3.1 5.2 7 0 5.8-3.1 8.2-7.3 8.2" class="st0"/><path id="Fill-44" d="M371.3 168.9c-1.9 0-2.9-.6-2.9-2.9v-18h3.8v16.5c0 1.6.2 1.9 1 1.9h.7l.1 2.2c-.7.2-1.6.3-2.7.3" class="st0"/><path id="Fill-45" d="M376.8 168.7h3.8v-14.6h-3.8v14.6zm1.9-16.5c-1.8 0-2.2-.5-2.2-2s.5-2 2.2-2c1.8 0 2.2.4 2.2 2 .1 1.5-.4 2-2.2 2z" class="st0"/><path id="Fill-46" d="M392.8 159.8c0-2.3-.8-3.5-2.4-3.5-1.6 0-2.5 1.4-2.6 3.5h5zm-4.9 2.4v.2c0 2.7 1.2 3.8 3.3 3.8 1.3 0 3-.3 4.7-.8l.6 2.2c-1.8.9-3.9 1.5-6 1.5-3.8 0-6.3-1.9-6.3-7.2 0-5.2 2.5-8 6.6-8 3.8 0 6.2 2.1 5.8 8.4h-8.7z" class="st0"/><path id="Fill-47" d="M408.1 156.8c-.5-.2-1.1-.3-1.8-.3-1.9 0-3.2 1.5-3.2 5 0 3.1.9 4.7 2.4 4.7.7 0 1.6-.4 2.6-1.2v-8.2zm.7 11.9l-.3-1.5c-1.2 1-2.6 1.8-4.1 1.8-3.4 0-5.1-3.1-5.1-7 0-5.9 3.2-8.2 7.2-8.2.6 0 1.3.1 1.6.1v-5.8h3.8v20.7h-3.1z" class="st0"/><path id="Fill-48" d="M428.6 169c-2.3 0-4.3-.8-5.9-1.9l.9-2.1c1.6.6 3.1 1 4.3 1 2 0 3.3-.9 3.3-2.5 0-3.8-8.2-3.1-8.2-9.3 0-3.4 2.6-5.6 6.3-5.6 1.8 0 3.6.5 5.3 1.6l-.9 2c-1.3-.5-2.5-.8-3.6-.8-2 0-2.9.9-2.9 2.2 0 3.8 8.4 3.2 8.4 9.3-.1 3.5-2.6 6.1-7 6.1" class="st0"/><path id="Fill-49" d="M443.7 169c-3.8 0-5.8-2.4-5.8-7.4 0-4.6 2.4-7.8 6.1-7.8 1.9 0 3.3.7 4.4 1.8l-1.3 1.9c-.7-.6-1.5-1-2.5-1-1.7 0-2.8 1.6-2.8 4.6 0 3.6 1 5 2.7 5 1.2 0 2.1-.4 3.1-1.2l1.1 1.9c-1.1 1.2-2.7 2.2-5 2.2" class="st0"/><path id="Fill-50" d="M451.5 168.7h3.8v-14.6h-3.8v14.6zm1.9-16.5c-1.8 0-2.2-.5-2.2-2s.5-2 2.2-2c1.8 0 2.2.4 2.2 2 0 1.5-.4 2-2.2 2z" class="st0"/><path id="Fill-51" d="M467.5 159.8c0-2.3-.8-3.5-2.4-3.5-1.6 0-2.5 1.4-2.6 3.5h5zm-5 2.4v.2c0 2.7 1.2 3.8 3.3 3.8 1.3 0 3-.3 4.7-.8l.6 2.2c-1.8.9-3.9 1.5-6 1.5-3.8 0-6.3-1.9-6.3-7.2 0-5.2 2.5-8 6.6-8 3.8 0 6.2 2.1 5.8 8.4h-8.7z" class="st0"/><path id="Fill-52" d="M486.9 168.7h-3.7c0-2.9.1-5.9.1-7.7 0-3.5-.7-4.3-2-4.3-.8 0-1.7.5-2.7 1.2v10.7h-3.8v-14.5h3.1l.3 1.5c1.3-1.1 2.7-1.9 4.4-1.9 2.9 0 4.5 1.9 4.5 6.6-.1 1.9-.2 5.2-.2 8.4" class="st0"/><path id="Fill-53" d="M496.1 169c-3.8 0-5.8-2.4-5.8-7.4 0-4.6 2.4-7.8 6.1-7.8 1.9 0 3.3.7 4.4 1.8l-1.3 1.9c-.7-.6-1.5-1-2.5-1-1.7 0-2.8 1.6-2.8 4.6 0 3.6 1 5 2.7 5 1.2 0 2.1-.4 3.1-1.2l1.1 1.9c-1.1 1.2-2.8 2.2-5 2.2" class="st0"/><path id="Fill-54" d="M511.4 159.8c0-2.3-.8-3.5-2.4-3.5-1.6 0-2.5 1.4-2.6 3.5h5zm-4.9 2.4v.2c0 2.7 1.2 3.8 3.3 3.8 1.3 0 3-.3 4.7-.8l.6 2.2c-1.8.9-3.9 1.5-6 1.5-3.8 0-6.3-1.9-6.3-7.2 0-5.2 2.5-8 6.6-8 3.8 0 6.2 2.1 5.8 8.4h-8.7z" class="st0"/><path id="Fill-55" d="M522.2 169c-1.6 0-3.1-.4-4.5-1.2l.3-2c1.7.4 2.7.5 3.6.5 1.9 0 2.7-.7 2.7-1.6 0-1-.5-1.5-2.6-2.2-2.8-1-3.9-2.2-3.9-4.3 0-2.7 2.1-4.4 5.3-4.4 1.3 0 2.6.3 4.1 1.1l-.4 1.9c-1.2-.3-2.1-.4-2.9-.4-1.5 0-2.2.7-2.2 1.5 0 .9.5 1.3 2.6 2.1 2.9 1 3.9 2.3 3.9 4.4-.1 2.6-2.3 4.6-6 4.6" class="st0"/></g></g></svg>