<svg xmlns="http://www.w3.org/2000/svg" id="Layer_1" viewBox="0 0 633 279.7"><style>.st0{fill:#2C3E50;} .st1{fill:#566573;}</style><path id="layer3" d="M245 204.2v-5.5h53v11h-53v-5.5zm90 0v-5.5h53v11h-53v-5.5zm-315-25v-5.5h100v-10h30v11h-29v10H20v-5.5zm225 .5v-5h-60v-11h61v10h52v11h-53v-5zm90-.5v-5.5h52v-10h61v11h-60v10h-53v-5.5zm177 .5v-5h-29v-11h30v10h100v11H512v-5zM20 154.2v-5.5h41v11H20v-5.5zm60 0v-5.5h40v-10h30v11h-29v10H80v-5.5zm165 .5v-5h-60v-11h61v10h52v11h-53v-5zm90-.5v-5.5h52v-10h61v11h-60v10h-53v-5.5zm177 .5v-5h-29v-11h30v10h40v11h-41v-5zm60-.5v-5.5h41v11h-41v-5.5zm-552-25v-5.5h41v11H20v-5.5zm60 0v-5.5h40v-11h126v11h52v11h-53v-10H121v10H80v-5.5zm255 0v-5.5h52v-11h126v11h40v11h-41v-10H388v10h-53v-5.5zm237 0v-5.5h41v11h-41v-5.5zM245.2 104l.3-5.8h142l.3 5.8.3 5.7H244.9l.3-5.7z" class="st0"/><path d="M315 243.7v36h9v-36h-4.5zm85.2 22.1l-3.2-4.4 5.3-7.6c2.9-4.2 5.7-8.2 6.1-8.8.5-1-.6-1.3-4.6-1.3h-5.3l-4 6.2-4 6.3-.3-6.3-.3-6.2H381v36h9v-13.4l4.7 6.7 4.7 6.7h10.8l-3.5-4.7c-1.9-2.7-4.8-6.8-6.5-9.2zM246 93.7v-5H120v9H0v11h121v-10h125zm327 4h-60v-9H387v10h125v10h121v-11zM388 80.8c0-6.4-2.3-19.1-5.1-27.6-7.2-22.6-23.9-41-44.5-49.2-.9-.4-1.6-.7-2.4-.9-3.9-1.9-11.5-3-19.1-3.1h-2.1c-5.7.1-11.4.9-15.2 2.1-1.6.4-3.1 1-5.3 1.9-21 8.7-36.8 26-44.3 48.9-2.9 8.6-5.2 21.1-5.2 27.8v2.9H298v-8.9h-42v-2.9c0-4.9 4.9-20.2 8.6-27.1 15.8-28.7 44-41.1 70.6-31 13.3 5 26.3 17.3 33.5 31.5 3.7 7.1 7.2 18.1 8 24.2l.6 5.3H335v9h53v-2.9zm165 2.9v-9h-30.2l.6-3.6c2.9-15.2 15.5-30.5 28.7-34.9 7.5-2.5 18.7-1.7 25.7 1.9 12.4 6.3 20.9 18 24.6 33.9l.6 2.7h-31v9h41v-5.2c-.1-15.7-9.4-34.6-21.8-44-8.4-6.5-15.5-9.1-25.5-9.6-20.7-1-36.8 9-46.7 29.2-3.8 7.7-7 19.8-7 26.7v2.9h41zm-492 0v-9H30.8l.6-3.6c2.9-15.2 15.5-30.5 28.7-34.9 7.5-2.5 18.7-1.7 25.7 1.9 12.4 6.3 20.9 18 24.6 33.9l.6 2.7H80v9h41v-5.2c-.1-15.7-9.4-34.6-21.8-44-8.4-6.5-15.5-9.1-25.5-9.6-20.7-1-36.8 9-46.7 29.2-3.8 7.7-7 19.8-7 26.7v2.9h41zm196.9 162.6c-2.8-2.4-3.8-2.6-12.5-2.6H236v36h9V269l4.9-.7c6.1-.8 9.7-3.6 11.2-8.6 1.6-5.4.4-10.4-3.2-13.4zm-9.8 15.4H245V250h3.1c3.5 0 6.3 2.6 6.3 5.9 0 3.3-2.9 5.8-6.3 5.8z" class="st0"/></svg>