<svg xmlns="http://www.w3.org/2000/svg" id="Ebene_1" data-name="Ebene 1" viewBox="0 0 462 462">
  <defs>
    <style>
      .cls-1{fill:#5263ff}
    </style>
  </defs>
  <g id="proposal1">
    <g id="Group">
      <path id="Oval" d="M182 418C82.2 418 1 337.48 1 238.5S82.2 59 182 59s181 80.52 181 179.5S281.8 418 182 418zm0-336.5c-87.4 0-158.5 70.43-158.5 157s71.1 157 158.5 157 158.5-70.43 158.5-157-71.1-157-158.5-157z" class="cls-1"/>
      <path id="Oval-2" d="M340.5 265C274.06 265 220 211.17 220 145S274.06 25 340.5 25 461 78.83 461 145s-54.06 120-120.5 120zm0-217.5c-54 0-98 43.74-98 97.5s44 97.5 98 97.5 98-43.74 98-97.5-43.96-97.5-98-97.5z" class="cls-1" data-name="Oval"/>
      <path id="Oval-3" d="M400.5 437c-33.36 0-60.5-26.92-60.5-60s27.14-60 60.5-60 60.5 26.92 60.5 60-27.14 60-60.5 60zm0-97.5c-20.95 0-38 16.82-38 37.5s17.05 37.5 38 37.5 38-16.82 38-37.5-17.05-37.5-38-37.5z" class="cls-1" data-name="Oval"/>
    </g>
  </g>
</svg>